<svg xmlns="http://www.w3.org/2000/svg" xmlns:svg="http://www.w3.org/2000/svg" xmlns:xlink="http://www.w3.org/1999/xlink" id="svg2" width="250" height="225" version="1.0"><metadata id="metadata7"/><defs id="defs5"><marker id="marker1461" orient="auto" refX="0" refY="0" style="overflow:visible"><path id="path1459" d="M 5.77,0.0 L -2.88,5.0 L -2.88,-5.0 L 5.77,0.0 z" transform="scale(-0.2)" style="fill-rule:evenodd;stroke:#4d4d4d;stroke-width:1pt;stroke-opacity:1;fill:#4d4d4d;fill-opacity:1"/></marker><marker id="marker1385" orient="auto" refX="0" refY="0" style="overflow:visible"><path id="path1048" d="M 5.77,0.0 L -2.88,5.0 L -2.88,-5.0 L 5.77,0.0 z" transform="scale(-0.2)" style="fill-rule:evenodd;stroke:#4d4d4d;stroke-width:1pt;stroke-opacity:1;fill:#4d4d4d;fill-opacity:1"/></marker><marker id="marker1322" orient="auto" refX="0" refY="0" style="overflow:visible"><path id="path1320" d="M 5.77,0.0 L -2.88,5.0 L -2.88,-5.0 L 5.77,0.0 z" transform="scale(0.2)" style="fill-rule:evenodd;stroke:#4d4d4d;stroke-width:1pt;stroke-opacity:1;fill:#4d4d4d;fill-opacity:1"/></marker><marker id="marker1264" orient="auto" refX="0" refY="0" style="overflow:visible"><path id="path1057" d="M 5.77,0.0 L -2.88,5.0 L -2.88,-5.0 L 5.77,0.0 z" transform="scale(0.2)" style="fill-rule:evenodd;stroke:#4d4d4d;stroke-width:1pt;stroke-opacity:1;fill:#4d4d4d;fill-opacity:1"/></marker><marker id="marker1426" orient="auto" overflow="visible" refX="0" refY="0"><path id="path1424" fill="#000" fill-opacity="1" fill-rule="evenodd" stroke="#000" stroke-opacity="1" stroke-width="1pt" d="M 5.77,0.0 L -2.88,5.0 L -2.88,-5.0 L 5.77,0.0 z" transform="scale(-0.2)"/></marker><marker id="TriangleInS" orient="auto" overflow="visible" refX="0" refY="0"><path id="path1033" fill="#000" fill-opacity="1" fill-rule="evenodd" stroke="#000" stroke-opacity="1" stroke-width="1pt" d="M 5.77,0.0 L -2.88,5.0 L -2.88,-5.0 L 5.77,0.0 z" transform="scale(-0.2)"/></marker><marker id="marker1238" orient="auto" overflow="visible" refX="0" refY="0"><path id="path1236" fill="#000" fill-opacity="1" fill-rule="evenodd" stroke="#000" stroke-opacity="1" stroke-width="1pt" d="M 5.77,0.0 L -2.88,5.0 L -2.88,-5.0 L 5.77,0.0 z" transform="scale(0.2)"/></marker><marker id="marker1204" orient="auto" overflow="visible" refX="0" refY="0"><path id="path1202" fill="#000" fill-opacity="1" fill-rule="evenodd" stroke="#000" stroke-opacity="1" stroke-width="1pt" d="M 5.77,0.0 L -2.88,5.0 L -2.88,-5.0 L 5.77,0.0 z" transform="scale(0.2)"/></marker><marker id="TriangleOutS" orient="auto" overflow="visible" refX="0" refY="0"><path id="path1042" fill="#000" fill-opacity="1" fill-rule="evenodd" stroke="#000" stroke-opacity="1" stroke-width="1pt" d="M 5.77,0.0 L -2.88,5.0 L -2.88,-5.0 L 5.77,0.0 z" transform="scale(0.2)"/></marker><marker id="TriangleOutM" orient="auto" overflow="visible" refX="0" refY="0"><path id="path1039" fill="#000" fill-opacity="1" fill-rule="evenodd" stroke="#000" stroke-opacity="1" stroke-width="1pt" d="M 5.77,0.0 L -2.88,5.0 L -2.88,-5.0 L 5.77,0.0 z" transform="scale(0.4)"/></marker></defs><path style="fill:none;fill-opacity:.75;fill-rule:evenodd;stroke:#4d4d4d;stroke-width:5;stroke-linecap:butt;stroke-linejoin:miter;stroke-miterlimit:4;stroke-dasharray:none;stroke-opacity:1;marker-end:url(#marker1264)" id="path2329" stroke-miterlimit="4" d="M 57.118,32.25 H 186.16926"/><path style="fill:none;fill-opacity:.75;fill-rule:evenodd;stroke:#4d4d4d;stroke-width:5;stroke-linecap:butt;stroke-linejoin:miter;stroke-miterlimit:4;stroke-dasharray:none;stroke-opacity:1;marker-start:url(#marker1385)" id="use2331" stroke-miterlimit="4" d="M 47.478763,60.218153 111.90969,170.81573"/><path style="fill:none;fill-opacity:.75;fill-rule:evenodd;stroke:#4d4d4d;stroke-width:5;stroke-linecap:butt;stroke-linejoin:miter;stroke-miterlimit:4;stroke-dasharray:none;stroke-opacity:1;marker-start:url(#marker1461);marker-end:url(#marker1322)" id="use2333" stroke-miterlimit="4" d="M 142.95526,165.53001 202.79466,61.483252"/><circle style="fill:none;fill-opacity:1;fill-rule:evenodd;stroke:#000070;stroke-width:3.75;stroke-miterlimit:4;stroke-dasharray:none;stroke-dashoffset:0;stroke-opacity:1" id="path2317" cx="32" cy="32" r="19.302" stroke-miterlimit="4"/><use style="fill:none;fill-opacity:1" id="use2325" width="250" height="225" x="0" y="0" transform="translate(186)" xlink:href="#path2317"/><use style="fill:none;fill-opacity:1" id="use2327" width="250" height="225" x="0" y="0" transform="translate(93,161)" xlink:href="#path2317"/></svg>