<svg xmlns="http://www.w3.org/2000/svg" xmlns:svg="http://www.w3.org/2000/svg" xmlns:xlink="http://www.w3.org/1999/xlink" id="svg2" width="250" height="225" version="1.0"><metadata id="metadata7"/><defs id="defs5"><marker id="marker1426" orient="auto" overflow="visible" refX="0" refY="0"><path id="path1424" fill="#000" fill-opacity="1" fill-rule="evenodd" stroke="#000" stroke-opacity="1" stroke-width="1pt" d="M 5.77,0.0 L -2.88,5.0 L -2.88,-5.0 L 5.77,0.0 z" transform="scale(-0.2)"/></marker><marker id="TriangleInS" orient="auto" overflow="visible" refX="0" refY="0"><path id="path1033" fill="#000" fill-opacity="1" fill-rule="evenodd" stroke="#000" stroke-opacity="1" stroke-width="1pt" d="M 5.77,0.0 L -2.88,5.0 L -2.88,-5.0 L 5.77,0.0 z" transform="scale(-0.2)"/></marker><marker id="marker1238" orient="auto" overflow="visible" refX="0" refY="0"><path id="path1236" fill="#000" fill-opacity="1" fill-rule="evenodd" stroke="#000" stroke-opacity="1" stroke-width="1pt" d="M 5.77,0.0 L -2.88,5.0 L -2.88,-5.0 L 5.77,0.0 z" transform="scale(0.2)"/></marker><marker id="marker1204" orient="auto" overflow="visible" refX="0" refY="0"><path id="path1202" fill="#000" fill-opacity="1" fill-rule="evenodd" stroke="#000" stroke-opacity="1" stroke-width="1pt" d="M 5.77,0.0 L -2.88,5.0 L -2.88,-5.0 L 5.77,0.0 z" transform="scale(0.2)"/></marker><marker id="TriangleOutS" orient="auto" overflow="visible" refX="0" refY="0"><path id="path1042" fill="#000" fill-opacity="1" fill-rule="evenodd" stroke="#000" stroke-opacity="1" stroke-width="1pt" d="M 5.77,0.0 L -2.88,5.0 L -2.88,-5.0 L 5.77,0.0 z" transform="scale(0.2)"/></marker><marker id="TriangleOutM" orient="auto" overflow="visible" refX="0" refY="0"><path id="path1039" fill="#000" fill-opacity="1" fill-rule="evenodd" stroke="#000" stroke-opacity="1" stroke-width="1pt" d="M 5.77,0.0 L -2.88,5.0 L -2.88,-5.0 L 5.77,0.0 z" transform="scale(0.4)"/></marker></defs><g id="g2601"><path id="path2329" fill="none" fill-opacity=".75" fill-rule="evenodd" stroke="#000" stroke-dasharray="none" stroke-linecap="butt" stroke-linejoin="miter" stroke-miterlimit="4" stroke-opacity="1" stroke-width="5" marker-end="url(#TriangleOutS)" d="M 57.118,30.25 H 186.16926" transform="translate(0,2)"/><path id="use2331" fill="none" fill-opacity=".75" fill-rule="evenodd" stroke="#000" stroke-dasharray="none" stroke-linecap="butt" stroke-linejoin="miter" stroke-miterlimit="4" stroke-opacity="1" stroke-width="5" marker-start="url(#marker1426)" d="M 47.478763,58.218153 111.90969,168.81573" transform="translate(0,2)"/><path id="use2333" fill="none" fill-opacity=".75" fill-rule="evenodd" stroke="#000" stroke-dasharray="none" stroke-linecap="butt" stroke-linejoin="miter" stroke-miterlimit="4" stroke-opacity="1" stroke-width="5" marker-end="url(#marker1204)" marker-start="url(#TriangleInS)" d="M 142.95526,163.53001 202.79466,59.483252" transform="translate(0,2)"/><circle id="path2317" cx="32" cy="32" r="19.302" fill="none" fill-opacity="1" fill-rule="evenodd" stroke="#000070" stroke-dasharray="none" stroke-dashoffset="0" stroke-miterlimit="4" stroke-opacity="1" stroke-width="3.75"/><use id="use2325" width="250" height="225" x="0" y="0" fill="none" fill-opacity="1" transform="translate(186)" xlink:href="#path2317"/><use id="use2327" width="250" height="225" x="0" y="0" fill="none" fill-opacity="1" transform="translate(93,161)" xlink:href="#path2317"/></g></svg>