<svg xmlns="http://www.w3.org/2000/svg" xmlns:svg="http://www.w3.org/2000/svg" id="svg2" width="250" height="225" version="1.0"><metadata id="metadata7"/><defs id="defs5"><marker id="EmptyTriangleOutS" orient="auto" overflow="visible" refX="0" refY="0"><path id="path4800" fill="#fff" fill-rule="evenodd" stroke="#000070" stroke-opacity="1" stroke-width="1pt" d="M 5.77,0.0 L -2.88,5.0 L -2.88,-5.0 L 5.77,0.0 z" transform="scale(0.2) translate(-3.0,0)"/></marker><marker id="marker17975" orient="auto" overflow="visible" refX="0" refY="0"><path id="path17973" fill="#fff" fill-rule="evenodd" stroke="#000070" stroke-opacity="1" stroke-width="1pt" d="M 5.77,0.0 L -2.88,5.0 L -2.88,-5.0 L 5.77,0.0 z" transform="scale(0.2) translate(-3.0,0)"/></marker><marker id="marker17827" orient="auto" overflow="visible" refX="0" refY="0"><path id="path17825" fill="#fff" fill-rule="evenodd" stroke="#000070" stroke-opacity="1" stroke-width="1pt" d="M 5.77,0.0 L -2.88,5.0 L -2.88,-5.0 L 5.77,0.0 z" transform="scale(0.2) translate(-3.0,0)"/></marker><marker id="marker17691" orient="auto" overflow="visible" refX="0" refY="0"><path id="path17689" fill="#fff" fill-rule="evenodd" stroke="#000070" stroke-opacity="1" stroke-width="1pt" d="M 5.77,0.0 L -2.88,5.0 L -2.88,-5.0 L 5.77,0.0 z" transform="scale(0.4) translate(-4.5,0)"/></marker><marker id="marker17561" orient="auto" overflow="visible" refX="0" refY="0"><path id="path17559" fill="#000070" fill-opacity="1" fill-rule="evenodd" stroke="#000070" stroke-opacity="1" stroke-width="1pt" d="M 5.77,0.0 L -2.88,5.0 L -2.88,-5.0 L 5.77,0.0 z" transform="scale(0.2)"/></marker><marker id="marker17479" orient="auto" overflow="visible" refX="0" refY="0"><path id="path17477" fill="#000070" fill-opacity="1" fill-rule="evenodd" stroke="#000070" stroke-opacity="1" stroke-width="1pt" d="M 5.77,0.0 L -2.88,5.0 L -2.88,-5.0 L 5.77,0.0 z" transform="scale(0.2) translate(-3.0,0)"/></marker><marker id="marker13527" orient="auto" overflow="visible" refX="0" refY="0"><path id="path13525" fill="#000" fill-opacity="1" fill-rule="evenodd" stroke="#000" stroke-opacity="1" stroke-width="1pt" d="M 5.77,0.0 L -2.88,5.0 L -2.88,-5.0 L 5.77,0.0 z" transform="scale(-0.2)"/></marker><marker id="marker13403" orient="auto" overflow="visible" refX="0" refY="0"><path id="path13401" fill="#000" fill-opacity="1" fill-rule="evenodd" stroke="#000" stroke-opacity="1" stroke-width="1pt" d="M 5.77,0.0 L -2.88,5.0 L -2.88,-5.0 L 5.77,0.0 z" transform="scale(0.2)"/></marker><marker id="marker13285" orient="auto" overflow="visible" refX="0" refY="0"><path id="path13283" fill="#000" fill-opacity="1" fill-rule="evenodd" stroke="#000" stroke-opacity="1" stroke-width="1pt" d="M 5.77,0.0 L -2.88,5.0 L -2.88,-5.0 L 5.77,0.0 z" transform="scale(0.2)"/></marker><marker id="TriangleInS" orient="auto" overflow="visible" refX="0" refY="0"><path id="path4773" fill="#000" fill-opacity="1" fill-rule="evenodd" stroke="#000" stroke-opacity="1" stroke-width="1pt" d="M 5.77,0.0 L -2.88,5.0 L -2.88,-5.0 L 5.77,0.0 z" transform="scale(-0.2)"/></marker><marker id="TriangleOutS" orient="auto" overflow="visible" refX="0" refY="0"><path id="path4782" fill="#000" fill-opacity="1" fill-rule="evenodd" stroke="#000" stroke-opacity="1" stroke-width="1pt" d="M 5.77,0.0 L -2.88,5.0 L -2.88,-5.0 L 5.77,0.0 z" transform="scale(0.2)"/></marker><marker id="Arrow1Mend" orient="auto" overflow="visible" refX="0" refY="0"><path id="path4643" fill="#000" fill-opacity="1" fill-rule="evenodd" stroke="#000" stroke-opacity="1" stroke-width="1pt" d="M 0.0,0.0 L 5.0,-5.0 L -12.5,0.0 L 5.0,5.0 L 0.0,0.0 z" transform="scale(0.4) rotate(180) translate(10,0)"/></marker><marker id="Arrow2Lend" orient="auto" overflow="visible" refX="0" refY="0"><path id="path4655" fill="#000" fill-opacity="1" fill-rule="evenodd" stroke="#000" stroke-linejoin="round" stroke-opacity="1" stroke-width=".625" d="M 8.7185878,4.0337352 L -2.2072895,0.016013256 L 8.7185884,-4.0017078 C 6.9730900,-1.6296469 6.9831476,1.6157441 8.7185878,4.0337352 z" transform="scale(1.1) rotate(180) translate(1,0)"/></marker><marker id="Arrow1Mstart" orient="auto" overflow="visible" refX="0" refY="0"><path id="path4640" fill="#000" fill-opacity="1" fill-rule="evenodd" stroke="#000" stroke-opacity="1" stroke-width="1pt" d="M 0.0,0.0 L 5.0,-5.0 L -12.5,0.0 L 5.0,5.0 L 0.0,0.0 z" transform="scale(0.4) translate(10,0)"/></marker><marker id="marker12725" orient="auto" overflow="visible" refX="0" refY="0"><path id="path12723" fill="#000" fill-opacity="1" fill-rule="evenodd" stroke="#000" stroke-linejoin="round" stroke-opacity="1" stroke-width=".625" d="M 8.7185878,4.0337352 L -2.2072895,0.016013256 L 8.7185884,-4.0017078 C 6.9730900,-1.6296469 6.9831476,1.6157441 8.7185878,4.0337352 z" transform="scale(1.1) translate(1,0)"/></marker><marker id="Arrow2Lstart" orient="auto" overflow="visible" refX="0" refY="0"><path id="path4652" fill="#000" fill-opacity="1" fill-rule="evenodd" stroke="#000" stroke-linejoin="round" stroke-opacity="1" stroke-width=".625" d="M 8.7185878,4.0337352 L -2.2072895,0.016013256 L 8.7185884,-4.0017078 C 6.9730900,-1.6296469 6.9831476,1.6157441 8.7185878,4.0337352 z" transform="scale(1.1) translate(1,0)"/></marker><marker id="Arrow2Mend" orient="auto" overflow="visible" refX="0" refY="0"><path id="path4661" fill="#000" fill-opacity="1" fill-rule="evenodd" stroke="#000" stroke-linejoin="round" stroke-opacity="1" stroke-width=".625" d="M 8.7185878,4.0337352 L -2.2072895,0.016013256 L 8.7185884,-4.0017078 C 6.9730900,-1.6296469 6.9831476,1.6157441 8.7185878,4.0337352 z" transform="scale(0.6) rotate(180) translate(0,0)"/></marker><marker id="marker12512" orient="auto" overflow="visible" refX="0" refY="0"><path id="path12510" fill="#000070" fill-opacity="1" fill-rule="evenodd" stroke="#000070" stroke-opacity="1" stroke-width="1pt" d="M 5.77,0.0 L -2.88,5.0 L -2.88,-5.0 L 5.77,0.0 z" transform="scale(0.2) translate(-3.0,0)"/></marker><marker id="EmptyTriangleOutM" orient="auto" overflow="visible" refX="0" refY="0"><path id="path4797" fill="#007fff" fill-opacity="1" fill-rule="evenodd" stroke="#000070" stroke-opacity="1" stroke-width="1pt" d="M 5.77,0.0 L -2.88,5.0 L -2.88,-5.0 L 5.77,0.0 z" transform="scale(0.4) translate(-4.5,0)"/></marker><marker id="Arrow2Send" orient="auto" overflow="visible" refX="0" refY="0"><path id="path4667" fill="#000070" fill-opacity="1" fill-rule="evenodd" stroke="#000070" stroke-linejoin="round" stroke-opacity="1" stroke-width=".625" d="M 8.7185878,4.0337352 -2.2072895,0.01601326 8.7185884,-4.0017078 c -1.7454984,2.3720609 -1.7354408,5.6174519 -6e-7,8.035443 z" transform="matrix(-0.3,0,0,-0.3,0.69,0)"/></marker><marker id="Arrow2Send-9" orient="auto" overflow="visible" refX="0" refY="0"><path id="path4667-6" fill="#000070" fill-opacity="1" fill-rule="evenodd" stroke="#000070" stroke-linejoin="round" stroke-opacity="1" stroke-width=".625" d="M 8.7185878,4.0337352 -2.2072895,0.01601326 8.7185884,-4.0017078 c -1.7454984,2.3720609 -1.7354408,5.6174519 -6e-7,8.035443 z" transform="matrix(-0.3,0,0,-0.3,0.69,0)"/></marker><marker id="Arrow2Send-7" orient="auto" overflow="visible" refX="0" refY="0"><path id="path4667-1" fill="#007fff" fill-opacity="1" fill-rule="evenodd" stroke="#000070" stroke-linejoin="round" stroke-opacity="1" stroke-width=".625" d="M 8.7185878,4.0337352 -2.2072895,0.01601326 8.7185884,-4.0017078 c -1.7454984,2.3720609 -1.7354408,5.6174519 -6e-7,8.035443 z" transform="matrix(-0.3,0,0,-0.3,0.69,0)"/></marker><marker id="marker2309" orient="auto" refX="0" refY="0" style="overflow:visible"><path id="path2307" d="M 5.77,0 -2.88,5 V -5 Z" transform="scale(0.2)" style="fill:#4d4d4d;fill-opacity:1;fill-rule:evenodd;stroke:#4d4d4d;stroke-width:1.00000003pt;stroke-opacity:1"/></marker></defs><g id="layer1" transform="matrix(-2.6725005,-2.6725005,2.6725005,-2.6725005,-41.532142,127.23402)"><g id="g4553"><path style="fill:none;fill-opacity:1;fill-rule:evenodd;stroke:#000070;stroke-width:1.05799997;stroke-linecap:butt;stroke-linejoin:miter;stroke-miterlimit:3.9000001;stroke-dasharray:none;stroke-opacity:1" id="path99-3" stroke-miterlimit="3.9" d="m -24.190476,4.4464286 c 0,0 -1.748219,-3.3072916 -3.307292,-3.3072916 -1.559073,0 -3.307292,1.7482192 -3.307292,3.3072916 0,1.5590723 1.748219,3.3072916 3.307292,3.3072916 1.559073,0 3.307292,-3.3072916 3.307292,-3.3072916 0,0 1.748218,-3.3072916 3.307291,-3.3072916 1.559073,0 3.307292,1.7482192 3.307292,3.3072916 0,1.5590723 -1.748219,3.3072916 -3.307292,3.3072916 -0.81545,0 -1.682644,-0.9047622 -2.324375,-1.7678415"/><path style="fill:#000070;fill-opacity:1;stroke:#000070;stroke-width:1.05799997;stroke-miterlimit:3.9000001;stroke-dasharray:none;stroke-opacity:1" id="path4547" stroke-miterlimit="3.9" d="m -22.272711,6.4278388 -0.490509,0.2831957 -0.49051,0.2831957 V 6.4278388 5.8614474 l 0.49051,0.2831957 z" transform="rotate(-5.6270424,-24.136965,5.6066507)"/></g></g><g id="layer1-7-2" transform="matrix(2.6725005,2.6725005,-2.6725005,2.6725005,286.53214,97.765977)"><g id="g4553-5-1"><path style="fill:none;fill-opacity:1;fill-rule:evenodd;stroke:#000070;stroke-width:1.05799997;stroke-linecap:butt;stroke-linejoin:miter;stroke-miterlimit:3.9000001;stroke-dasharray:none;stroke-opacity:1" id="path99-3-9-7" stroke-miterlimit="3.9" d="m -24.190476,4.4464286 c 0,0 -1.748219,-3.3072916 -3.307292,-3.3072916 -1.559073,0 -3.307292,1.7482192 -3.307292,3.3072916 0,1.5590723 1.748219,3.3072916 3.307292,3.3072916 1.559073,0 3.307292,-3.3072916 3.307292,-3.3072916 0,0 1.748218,-3.3072916 3.307291,-3.3072916 1.559073,0 3.307292,1.7482192 3.307292,3.3072916 0,1.5590723 -1.748219,3.3072916 -3.307292,3.3072916 -0.81545,0 -1.682644,-0.9047622 -2.324375,-1.7678415"/><path style="fill:#000070;fill-opacity:1;stroke:#000070;stroke-width:1.05799997;stroke-miterlimit:3.9000001;stroke-dasharray:none;stroke-opacity:1" id="path4547-6-8" stroke-miterlimit="3.9" d="m -22.272711,6.4278388 -0.490509,0.2831957 -0.49051,0.2831957 V 6.4278388 5.8614474 l 0.49051,0.2831957 z" transform="rotate(-5.6270424,-24.136965,5.6066507)"/></g></g><text style="font-style:oblique;font-variant:normal;font-weight:400;font-stretch:normal;line-height:0%;font-family:Arial;-inkscape-font-specification:'Arial Oblique';text-align:end;letter-spacing:0;word-spacing:0;writing-mode:lr-tb;text-anchor:end;fill:#000;fill-opacity:1;stroke:none" id="text3034-5-5-5" x="31.959" y="210.012" xml:space="preserve"><tspan id="tspan3036-82-5-2" x="31.959" y="210.012" style="font-style:oblique;font-size:32px;line-height:1.25;-inkscape-font-specification:'Arial Oblique';fill:#d40000">1</tspan></text><text style="font-style:normal;font-variant:normal;font-weight:400;font-stretch:normal;line-height:0%;font-family:Arial;-inkscape-font-specification:Arial;text-align:end;letter-spacing:0;word-spacing:0;writing-mode:lr-tb;text-anchor:end;fill:#000;fill-opacity:1;stroke:none" id="text3034-5-5-2" x="235.462" y="37.344" xml:space="preserve"><tspan id="tspan3036-82-5-0" x="235.462" y="37.344" style="font-style:oblique;font-size:32px;line-height:1.25;-inkscape-font-specification:'Arial Oblique';fill:#d40000">2</tspan></text><text style="font-style:normal;font-variant:normal;font-weight:400;font-stretch:normal;line-height:0%;font-family:Arial;-inkscape-font-specification:Arial;text-align:end;letter-spacing:0;word-spacing:0;writing-mode:lr-tb;text-anchor:end;fill:#000;fill-opacity:1;stroke:none" id="text3034-5-2" x="141.197" y="137.361" xml:space="preserve"><tspan id="tspan3036-82-6" x="141.197" y="137.361" style="font-style:normal;font-size:32px;line-height:1.25;-inkscape-font-specification:Arial;fill:green">3</tspan></text><path style="fill:none;fill-opacity:.75;fill-rule:evenodd;stroke:#4d4d4d;stroke-width:4.665;stroke-linecap:butt;stroke-linejoin:miter;stroke-miterlimit:4;stroke-dasharray:none;stroke-opacity:1;marker-end:url(#marker2309)" id="path2329" stroke-miterlimit="4" d="M 44,170 196,57"/></svg>