<svg xmlns="http://www.w3.org/2000/svg" xmlns:svg="http://www.w3.org/2000/svg" id="svg11753" width="54" height="29" version="1.1" viewBox="0 0 14.287 7.673"><defs id="defs11747"><marker id="marker1153" orient="auto" overflow="visible" refX="0" refY="0"><path id="path1151" fill="#fff" fill-rule="evenodd" stroke="#000070" stroke-opacity="1" stroke-width="1pt" d="M 5.77,0.0 L -2.88,5.0 L -2.88,-5.0 L 5.77,0.0 z" transform="scale(0.2) translate(-3.0,0)"/></marker><marker id="EmptyTriangleOutS" orient="auto" overflow="visible" refX="0" refY="0"><path id="path1011" fill="#000070" fill-opacity="1" fill-rule="evenodd" stroke="#000070" stroke-opacity="1" stroke-width="1pt" d="M 5.77,0.0 L -2.88,5.0 L -2.88,-5.0 L 5.77,0.0 z" transform="scale(0.2) translate(-3.0,0)"/></marker><marker id="Arrow2Send" orient="auto" overflow="visible" refX="0" refY="0"><path id="path4667" fill="#007fff" fill-opacity="1" fill-rule="evenodd" stroke="#000070" stroke-linejoin="round" stroke-opacity="1" stroke-width=".625" d="M 8.7185878,4.0337352 -2.2072895,0.01601326 8.7185884,-4.0017078 c -1.7454984,2.3720609 -1.7354408,5.6174519 -6e-7,8.035443 z" transform="matrix(-0.3,0,0,-0.3,0.69,0)"/></marker></defs><metadata id="metadata11750"/><g id="layer1" transform="translate(31.334226,-0.6099703)"><g id="g10778" fill="#007fff" fill-opacity="1" transform="matrix(0.26458333,0,0,0.26458333,-81.571986,-4.2848213)"><path id="path99" fill="none" fill-opacity="1" fill-rule="evenodd" stroke="#000070" stroke-dasharray="none" stroke-linecap="butt" stroke-linejoin="miter" stroke-miterlimit="3.9" stroke-opacity="1" stroke-width="3.999" marker-end="url(#marker1153)" d="m 216.875,33 c 0,0 -6.60744,-12.5 -12.5,-12.5 -5.89256,0 -12.5,6.607443 -12.5,12.5 0,5.892557 6.60744,12.5 12.5,12.5 5.89256,0 12.5,-12.5 12.5,-12.5 0,0 6.60744,-12.5 12.5,-12.5 5.89256,0 12.5,6.607443 12.5,12.5 0,5.892557 -6.60744,12.5 -12.5,12.5 -5.89256,0 -12.5,-12.5 -12.5,-12.5"/></g></g></svg>