<?xml version="1.0" encoding="UTF-8" standalone="no"?>
<svg
   xmlns:dc="http://purl.org/dc/elements/1.1/"
   xmlns:cc="http://creativecommons.org/ns#"
   xmlns:rdf="http://www.w3.org/1999/02/22-rdf-syntax-ns#"
   xmlns:svg="http://www.w3.org/2000/svg"
   xmlns="http://www.w3.org/2000/svg"
   xmlns:sodipodi="http://sodipodi.sourceforge.net/DTD/sodipodi-0.dtd"
   xmlns:inkscape="http://www.inkscape.org/namespaces/inkscape"
   id="svg2"
   width="744.094"
   height="1052.362"
   version="1.1"
   sodipodi:docname="links-edge-to-edge.svg"
   inkscape:version="0.92.5 (2060ec1f9f, 2020-04-08)"
   inkscape:export-filename="/home/konard/Archive/Code/Links/Documentation/doc/links-edge-to-edge.png"
   inkscape:export-xdpi="300"
   inkscape:export-ydpi="300">
  <sodipodi:namedview
     pagecolor="#ffffff"
     bordercolor="#666666"
     borderopacity="1"
     objecttolerance="10"
     gridtolerance="10"
     guidetolerance="10"
     inkscape:pageopacity="0"
     inkscape:pageshadow="2"
     inkscape:window-width="3840"
     inkscape:window-height="2021"
     id="namedview22"
     showgrid="false"
     inkscape:zoom="1.2685915"
     inkscape:cx="111.65687"
     inkscape:cy="588.62951"
     inkscape:window-x="0"
     inkscape:window-y="48"
     inkscape:window-maximized="1"
     inkscape:current-layer="svg2" />
  <defs
     id="defs4">
    <marker
       inkscape:stockid="Arrow1Send"
       orient="auto"
       refY="0.0"
       refX="0.0"
       id="marker1623"
       style="overflow:visible;"
       inkscape:isstock="true">
      <path
         id="path1621"
         d="M 0.0,0.0 L 5.0,-5.0 L -12.5,0.0 L 5.0,5.0 L 0.0,0.0 z "
         style="fill-rule:evenodd;stroke:#4d4d4d;stroke-width:1pt;stroke-opacity:1;fill:#4d4d4d;fill-opacity:1"
         transform="scale(0.2) rotate(180) translate(6,0)" />
    </marker>
    <marker
       inkscape:stockid="Arrow1Send"
       orient="auto"
       refY="0.0"
       refX="0.0"
       id="marker1571"
       style="overflow:visible;"
       inkscape:isstock="true">
      <path
         id="path1569"
         d="M 0.0,0.0 L 5.0,-5.0 L -12.5,0.0 L 5.0,5.0 L 0.0,0.0 z "
         style="fill-rule:evenodd;stroke:#4d4d4d;stroke-width:1pt;stroke-opacity:1;fill:#4d4d4d;fill-opacity:1"
         transform="scale(0.2) rotate(180) translate(6,0)" />
    </marker>
    <marker
       inkscape:stockid="Arrow1Send"
       orient="auto"
       refY="0.0"
       refX="0.0"
       id="marker1447"
       style="overflow:visible;"
       inkscape:isstock="true">
      <path
         id="path1445"
         d="M 0.0,0.0 L 5.0,-5.0 L -12.5,0.0 L 5.0,5.0 L 0.0,0.0 z "
         style="fill-rule:evenodd;stroke:#4d4d4d;stroke-width:1pt;stroke-opacity:1;fill:#4d4d4d;fill-opacity:1"
         transform="scale(0.2) rotate(180) translate(6,0)" />
    </marker>
    <marker
       inkscape:stockid="Arrow1Send"
       orient="auto"
       refY="0.0"
       refX="0.0"
       id="Arrow1Send"
       style="overflow:visible;"
       inkscape:isstock="true">
      <path
         id="path890"
         d="M 0.0,0.0 L 5.0,-5.0 L -12.5,0.0 L 5.0,5.0 L 0.0,0.0 z "
         style="fill-rule:evenodd;stroke:#4d4d4d;stroke-width:1pt;stroke-opacity:1;fill:#4d4d4d;fill-opacity:1"
         transform="scale(0.2) rotate(180) translate(6,0)" />
    </marker>
    <marker
       id="Arrow1Lend"
       orient="auto"
       overflow="visible"
       refX="0"
       refY="0">
      <path
         id="path3786"
         fill-rule="evenodd"
         stroke="#000"
         stroke-width="1pt"
         d="M 0.0,0.0 L 5.0,-5.0 L -12.5,0.0 L 5.0,5.0 L 0.0,0.0 z"
         transform="scale(0.8) rotate(180) translate(12.5,0)" />
    </marker>
    <marker
       id="Arrow1Lend-9"
       orient="auto"
       overflow="visible"
       refX="0"
       refY="0">
      <path
         id="path3786-8"
         fill-rule="evenodd"
         stroke="#000"
         stroke-width="1pt"
         d="M 0,0 5,-5 -12.5,0 5,5 0,0 z"
         transform="matrix(-0.8,0,0,-0.8,-10,0)" />
    </marker>
    <marker
       id="Arrow1Lend-4"
       orient="auto"
       overflow="visible"
       refX="0"
       refY="0">
      <path
         id="path3786-5"
         fill-rule="evenodd"
         stroke="#000"
         stroke-width="1pt"
         d="M 0,0 5,-5 -12.5,0 5,5 0,0 z"
         transform="matrix(-0.8,0,0,-0.8,-10,0)" />
    </marker>
  </defs>
  <metadata
     id="metadata7">
    <rdf:RDF>
      <cc:Work
         rdf:about="">
        <dc:format>image/svg+xml</dc:format>
        <dc:type
           rdf:resource="http://purl.org/dc/dcmitype/StillImage" />
      </cc:Work>
    </rdf:RDF>
  </metadata>
  <path
     style="fill:#ff0000;fill-opacity:1;fill-rule:evenodd;stroke:#4d4d4d;stroke-width:10;stroke-linecap:butt;stroke-linejoin:miter;stroke-opacity:1;stroke-miterlimit:4;stroke-dasharray:none"
     inkscape:connector-curvature="0"
     d="m 112.23172,158.07647 a 34.285713,34.285713 0 1 1 -68.571423,0 34.285713,34.285713 0 1 1 68.571423,0 z"
     id="path2987" />
  <path
     style="fill:#0000ff;fill-opacity:1;fill-rule:evenodd;stroke:#4d4d4d;stroke-width:10;stroke-linecap:butt;stroke-linejoin:miter;stroke-opacity:1;stroke-miterlimit:4;stroke-dasharray:none"
     inkscape:connector-curvature="0"
     d="m 700.43418,155.21933 a 34.285713,34.285713 0 1 1 -68.57142,0 34.285713,34.285713 0 1 1 68.57142,0 z"
     id="path2987-1" />
  <path
     style="fill:none;stroke:#4d4d4d;stroke-width:5;stroke-linecap:butt;stroke-linejoin:miter;stroke-miterlimit:4;stroke-dasharray:none;stroke-opacity:1;marker-end:url(#Arrow1Send)"
     inkscape:connector-curvature="0"
     d="m 106.97651,183.75666 c 277.91075,228.92226 520.12806,-0.48214 520.12806,-0.48214"
     id="path3777"
     sodipodi:nodetypes="cc" />
  <path
     style="fill:#ff0000;fill-opacity:1;fill-rule:evenodd;stroke:#4d4d4d;stroke-width:10;stroke-linecap:butt;stroke-linejoin:miter;stroke-opacity:1;stroke-miterlimit:4;stroke-dasharray:none"
     inkscape:connector-curvature="0"
     d="m 112.04723,432.7259 a 34.285713,34.285713 0 1 1 -68.571423,0 34.285713,34.285713 0 1 1 68.571423,0 z"
     id="path2987-10" />
  <path
     style="fill:#0000ff;fill-opacity:1;fill-rule:evenodd;stroke:#4d4d4d;stroke-width:10;stroke-linecap:butt;stroke-linejoin:miter;stroke-opacity:1;stroke-miterlimit:4;stroke-dasharray:none"
     inkscape:connector-curvature="0"
     d="m 700.61867,432.7259 a 34.285713,34.285713 0 1 1 -68.57142,0 34.285713,34.285713 0 1 1 68.57142,0 z"
     id="path2987-1-8" />
  <path
     style="fill:none;stroke:#4d4d4d;stroke-width:5;stroke-linecap:butt;stroke-linejoin:miter;stroke-miterlimit:4;stroke-dasharray:none;stroke-opacity:1;marker-end:url(#marker1447)"
     inkscape:connector-curvature="0"
     d="m 107.41909,458.12739 c 285.22481,239.95882 518.39247,0.16607 518.39247,0.16607"
     id="path3777-0"
     sodipodi:nodetypes="cc" />
  <path
     style="fill:none;stroke:#4d4d4d;stroke-width:5;stroke-linecap:butt;stroke-linejoin:miter;stroke-miterlimit:4;stroke-dasharray:none;stroke-opacity:1;marker-end:url(#marker1623)"
     inkscape:connector-curvature="0"
     d="m 372.04724,816.21013 -0.0493,-239.63098"
     id="path4253"
     sodipodi:nodetypes="cc" />
  <path
     style="fill:#ff00ff;fill-opacity:1;fill-rule:evenodd;stroke:#4d4d4d;stroke-width:10;stroke-linecap:butt;stroke-linejoin:miter;stroke-opacity:1;stroke-miterlimit:4;stroke-dasharray:none"
     inkscape:connector-curvature="0"
     d="m 112.04723,950.28416 a 34.285713,34.285713 0 1 0 -68.571423,0 34.285713,34.285713 0 1 0 68.571423,0 z"
     id="path2987-5" />
  <path
     style="fill:#00ff00;fill-opacity:1;fill-rule:evenodd;stroke:#4d4d4d;stroke-width:10;stroke-linecap:butt;stroke-linejoin:miter;stroke-opacity:1;stroke-miterlimit:4;stroke-dasharray:none"
     inkscape:connector-curvature="0"
     d="m 700.61867,953.14136 a 34.285713,34.285713 0 1 0 -68.57142,0 34.285713,34.285713 0 1 0 68.57142,0 z"
     id="path2987-1-1" />
  <path
     style="fill:none;stroke:#4d4d4d;stroke-width:5;stroke-linecap:butt;stroke-linejoin:miter;stroke-miterlimit:4;stroke-dasharray:none;stroke-opacity:1;marker-end:url(#marker1571)"
     inkscape:connector-curvature="0"
     d="M 110.1992,928.56107 C 390.78968,684.71858 630.27967,922.2721 630.27967,922.2721"
     id="path3777-7"
     sodipodi:nodetypes="cc" />
</svg>
