<svg xmlns="http://www.w3.org/2000/svg" xmlns:svg="http://www.w3.org/2000/svg" id="svg2" width="744.094" height="1052.362" version="1.1"><defs id="defs4"><marker style="overflow:visible" id="marker1187" orient="auto" refX="0" refY="0"><path style="fill-rule:evenodd;stroke:#4d4d4d;stroke-width:1pt;stroke-opacity:1;fill:#4d4d4d;fill-opacity:1" id="path1185" d="M 0.0,0.0 L 5.0,-5.0 L -12.5,0.0 L 5.0,5.0 L 0.0,0.0 z" transform="scale(0.2) rotate(180) translate(6,0)"/></marker><marker style="overflow:visible" id="marker1153" orient="auto" refX="0" refY="0"><path style="fill-rule:evenodd;stroke:#4d4d4d;stroke-width:1pt;stroke-opacity:1;fill:#4d4d4d;fill-opacity:1" id="path1151" d="M 0.0,0.0 L 5.0,-5.0 L -12.5,0.0 L 5.0,5.0 L 0.0,0.0 z" transform="scale(0.2) rotate(180) translate(6,0)"/></marker><marker id="Arrow1Send" orient="auto" refX="0" refY="0" style="overflow:visible"><path id="path872" d="M 0.0,0.0 L 5.0,-5.0 L -12.5,0.0 L 5.0,5.0 L 0.0,0.0 z" transform="scale(0.2) rotate(180) translate(6,0)" style="fill-rule:evenodd;stroke:#4d4d4d;stroke-width:1pt;stroke-opacity:1;fill:#4d4d4d;fill-opacity:1"/></marker><marker id="Arrow1Lend" orient="auto" overflow="visible" refX="0" refY="0"><path id="path3786" fill-rule="evenodd" stroke="#000" stroke-width="1pt" d="M 0.0,0.0 L 5.0,-5.0 L -12.5,0.0 L 5.0,5.0 L 0.0,0.0 z" transform="scale(0.8) rotate(180) translate(12.5,0)"/></marker><marker id="Arrow1Lend-9" orient="auto" overflow="visible" refX="0" refY="0"><path id="path3786-8" fill-rule="evenodd" stroke="#000" stroke-width="1pt" d="M 0,0 5,-5 -12.5,0 5,5 0,0 z" transform="matrix(-0.8,0,0,-0.8,-10,0)"/></marker><marker id="Arrow1Send-9" orient="auto" refX="0" refY="0" style="overflow:visible"><path id="path872-6" d="M 0,0 5,-5 -12.5,0 5,5 Z" transform="matrix(-0.2,0,0,-0.2,-1.2,0)" style="fill:#4d4d4d;fill-opacity:1;fill-rule:evenodd;stroke:#4d4d4d;stroke-width:1.00000003pt;stroke-opacity:1"/></marker></defs><metadata id="metadata7"/><path style="fill:red;fill-opacity:1;fill-rule:evenodd;stroke:#4d4d4d;stroke-width:10;stroke-linecap:butt;stroke-linejoin:miter;stroke-opacity:1;stroke-miterlimit:4;stroke-dasharray:none" id="path2987" d="m 112.23172,158.07647 a 34.285713,34.285713 0 1 1 -68.571423,0 34.285713,34.285713 0 1 1 68.571423,0 z"/><path style="fill:#00f;fill-opacity:1;fill-rule:evenodd;stroke:#4d4d4d;stroke-width:10;stroke-linecap:butt;stroke-linejoin:miter;stroke-opacity:1;stroke-miterlimit:4;stroke-dasharray:none" id="path2987-1" d="m 700.43418,155.21933 a 34.285713,34.285713 0 1 1 -68.57142,0 34.285713,34.285713 0 1 1 68.57142,0 z"/><path style="fill:red;fill-opacity:1;fill-rule:evenodd;stroke:#4d4d4d;stroke-width:10;stroke-linecap:butt;stroke-linejoin:miter;stroke-opacity:1;stroke-miterlimit:4;stroke-dasharray:none" id="path2987-10" d="m 112.04723,490.7259 a 34.285713,34.285713 0 1 1 -68.571423,0 34.285713,34.285713 0 1 1 68.571423,0 z"/><path style="fill:#00f;fill-opacity:1;fill-rule:evenodd;stroke:#4d4d4d;stroke-width:10;stroke-linecap:butt;stroke-linejoin:miter;stroke-opacity:1;stroke-miterlimit:4;stroke-dasharray:none" id="path2987-1-8" d="m 700.61867,490.7259 a 34.285713,34.285713 0 1 1 -68.57142,0 34.285713,34.285713 0 1 1 68.57142,0 z"/><path style="fill:none;stroke:#4d4d4d;stroke-width:5;stroke-linecap:butt;stroke-linejoin:miter;stroke-miterlimit:4;stroke-dasharray:none;stroke-opacity:1;marker-end:url(#Arrow1Send)" id="path3777-0" d="m 107.90681,515.50032 c 287.66517,243.13584 519.23751,2.88927 519.23751,2.88927"/><path style="fill:none;stroke:#4d4d4d;stroke-width:5;stroke-linecap:butt;stroke-linejoin:miter;stroke-miterlimit:4;stroke-dasharray:none;stroke-opacity:1;marker-end:url(#marker1153)" id="path4253" d="m 372.04724,875.21933 0.13935,-239.47917"/><path style="fill:#0f0;fill-opacity:1;fill-rule:evenodd;stroke:#4d4d4d;stroke-width:10;stroke-linecap:butt;stroke-linejoin:miter;stroke-opacity:1;stroke-miterlimit:4;stroke-dasharray:none" id="path2987-10-8" d="m 406.33295,910.4223 a 34.285713,34.285713 0 1 1 -68.57142,0 34.285713,34.285713 0 1 1 68.57142,0 z"/><path style="fill:none;stroke:#4d4d4d;stroke-width:5;stroke-linecap:butt;stroke-linejoin:miter;stroke-miterlimit:4;stroke-dasharray:none;stroke-opacity:1;marker-end:url(#Arrow1Send-9)" id="path3777-0-2" d="m 107.76339,182.96521 c 287.66517,243.13583 520.24574,1.57946 520.24574,1.57946"/></svg>