<svg xmlns="http://www.w3.org/2000/svg" xmlns:svg="http://www.w3.org/2000/svg" id="svg2" width="744.094" height="1052.362" version="1.1"><defs id="defs4"><marker id="Arrow1Lend" orient="auto" overflow="visible" refX="0" refY="0"><path id="path3786" fill-rule="evenodd" stroke="#000" stroke-width="1pt" d="M 0.0,0.0 L 5.0,-5.0 L -12.5,0.0 L 5.0,5.0 L 0.0,0.0 z" transform="scale(0.8) rotate(180) translate(12.5,0)"/></marker><marker id="Arrow1Lend-9" orient="auto" overflow="visible" refX="0" refY="0"><path id="path3786-8" fill-rule="evenodd" stroke="#000" stroke-width="1pt" d="M 0,0 5,-5 -12.5,0 5,5 0,0 z" transform="matrix(-0.8,0,0,-0.8,-10,0)"/></marker><marker id="Arrow1Lend-4" orient="auto" overflow="visible" refX="0" refY="0"><path id="path3786-5" fill-rule="evenodd" stroke="#000" stroke-width="1pt" d="M 0,0 5,-5 -12.5,0 5,5 0,0 z" transform="matrix(-0.8,0,0,-0.8,-10,0)"/></marker></defs><metadata id="metadata7"/><g id="layer1"><path id="path2987" fill="red" fill-opacity="1" fill-rule="evenodd" stroke="#000" stroke-linecap="butt" stroke-linejoin="miter" stroke-opacity="1" stroke-width="1" d="m 131.42857,189.50504 a 34.285713,34.285713 0 1 1 -68.571423,0 34.285713,34.285713 0 1 1 68.571423,0 z" transform="translate(-19.19685,-31.428569)"/><path id="path2987-1" fill="#00f" fill-opacity="1" fill-rule="evenodd" stroke="#000" stroke-linecap="butt" stroke-linejoin="miter" stroke-opacity="1" stroke-width="1" d="m 131.42857,189.50504 a 34.285713,34.285713 0 1 1 -68.571423,0 34.285713,34.285713 0 1 1 68.571423,0 z" transform="translate(569.00561,-34.285712)"/><path id="path3777" fill="none" stroke="#000" stroke-linecap="butt" stroke-linejoin="miter" stroke-opacity="1" stroke-width="1" marker-end="url(#Arrow1Lend)" d="M 93.041629,188.07647 C 378.75591,430.93361 635.89877,175.21933 635.89877,175.21933"/><path id="path2987-10" fill="red" fill-opacity="1" fill-rule="evenodd" stroke="#000" stroke-linecap="butt" stroke-linejoin="miter" stroke-opacity="1" stroke-width="1" d="m 131.42857,189.50504 a 34.285713,34.285713 0 1 1 -68.571423,0 34.285713,34.285713 0 1 1 68.571423,0 z" transform="translate(-19.38134,243.22086)"/><path id="path2987-1-8" fill="#00f" fill-opacity="1" fill-rule="evenodd" stroke="#000" stroke-linecap="butt" stroke-linejoin="miter" stroke-opacity="1" stroke-width="1" d="m 131.42857,189.50504 a 34.285713,34.285713 0 1 1 -68.571423,0 34.285713,34.285713 0 1 1 68.571423,0 z" transform="translate(569.1901,243.22086)"/><path id="path3777-0" fill="none" stroke="#000" stroke-linecap="butt" stroke-linejoin="miter" stroke-opacity="1" stroke-width="1" marker-end="url(#Arrow1Lend)" d="M 92.85714,462.7259 C 378.57143,705.58304 635.71427,449.86876 635.71427,449.86876"/><path id="path4253" fill="none" stroke="#000" stroke-linecap="butt" stroke-linejoin="miter" stroke-opacity="1" stroke-width=".998" marker-end="url(#Arrow1Lend-9)" d="m 372.04724,816.21013 0,-248.99175"/><path id="path2987-5" fill="#f0f" fill-opacity="1" fill-rule="evenodd" stroke="#000" stroke-linecap="butt" stroke-linejoin="miter" stroke-opacity="1" stroke-width="1" d="m 131.42857,189.50504 a 34.285713,34.285713 0 1 1 -68.571423,0 34.285713,34.285713 0 1 1 68.571423,0 z" transform="matrix(1,0,0,-1,-19.38134,1139.7892)"/><path id="path2987-1-1" fill="#0f0" fill-opacity="1" fill-rule="evenodd" stroke="#000" stroke-linecap="butt" stroke-linejoin="miter" stroke-opacity="1" stroke-width="1" d="m 131.42857,189.50504 a 34.285713,34.285713 0 1 1 -68.571423,0 34.285713,34.285713 0 1 1 68.571423,0 z" transform="matrix(1,0,0,-1,569.1901,1142.6464)"/><path id="path3777-7" fill="none" stroke="#000" stroke-linecap="butt" stroke-linejoin="miter" stroke-opacity="1" stroke-width="1" marker-end="url(#Arrow1Lend)" d="M 92.857137,920.28417 C 378.57141,677.42703 635.71427,933.14131 635.71427,933.14131"/></g></svg>