<svg xmlns="http://www.w3.org/2000/svg" xmlns:svg="http://www.w3.org/2000/svg" id="svg2" width="744.094" height="1052.362" version="1.1"><defs id="defs4"><marker id="Arrow1Lend" orient="auto" overflow="visible" refX="0" refY="0"><path id="path3786" fill-rule="evenodd" stroke="#000" stroke-width="1pt" d="M 0.0,0.0 L 5.0,-5.0 L -12.5,0.0 L 5.0,5.0 L 0.0,0.0 z" transform="scale(0.8) rotate(180) translate(12.5,0)"/></marker><marker id="Arrow1Lend-9" orient="auto" overflow="visible" refX="0" refY="0"><path id="path3786-8" fill-rule="evenodd" stroke="#000" stroke-width="1pt" d="M 0,0 5,-5 -12.5,0 5,5 0,0 z" transform="matrix(-0.8,0,0,-0.8,-10,0)"/></marker></defs><metadata id="metadata7"/><g id="layer1"><path id="path2987" fill="red" fill-opacity="1" fill-rule="evenodd" stroke="#000" stroke-linecap="butt" stroke-linejoin="miter" stroke-opacity="1" stroke-width="1" d="m 131.42857,189.50504 a 34.285713,34.285713 0 1 1 -68.571423,0 34.285713,34.285713 0 1 1 68.571423,0 z" transform="translate(-19.19685,-31.428569)"/><path id="path2987-1" fill="#00f" fill-opacity="1" fill-rule="evenodd" stroke="#000" stroke-linecap="butt" stroke-linejoin="miter" stroke-opacity="1" stroke-width="1" d="m 131.42857,189.50504 a 34.285713,34.285713 0 1 1 -68.571423,0 34.285713,34.285713 0 1 1 68.571423,0 z" transform="translate(570.43418,-34.285712)"/><path id="path3777" fill="none" stroke="#000" stroke-linecap="butt" stroke-linejoin="miter" stroke-opacity="1" stroke-width="1" marker-end="url(#Arrow1Lend)" d="M 93.041629,188.07647 C 378.75591,430.93361 635.89877,175.21933 635.89877,175.21933"/><path id="path2987-10" fill="red" fill-opacity="1" fill-rule="evenodd" stroke="#000" stroke-linecap="butt" stroke-linejoin="miter" stroke-opacity="1" stroke-width="1" d="m 131.42857,189.50504 a 34.285713,34.285713 0 1 1 -68.571423,0 34.285713,34.285713 0 1 1 68.571423,0 z" transform="translate(-19.38134,301.22086)"/><path id="path2987-1-8" fill="#00f" fill-opacity="1" fill-rule="evenodd" stroke="#000" stroke-linecap="butt" stroke-linejoin="miter" stroke-opacity="1" stroke-width="1" d="m 131.42857,189.50504 a 34.285713,34.285713 0 1 1 -68.571423,0 34.285713,34.285713 0 1 1 68.571423,0 z" transform="translate(569.1901,301.22086)"/><path id="path3777-0" fill="none" stroke="#000" stroke-linecap="butt" stroke-linejoin="miter" stroke-opacity="1" stroke-width="1" marker-end="url(#Arrow1Lend)" d="M 92.85714,520.7259 C 378.57143,763.58304 635.71427,507.86876 635.71427,507.86876"/><path id="path4253" fill="none" stroke="#000" stroke-linecap="butt" stroke-linejoin="miter" stroke-opacity="1" stroke-width="1" marker-end="url(#Arrow1Lend-9)" d="m 372.04724,875.21933 0,-250"/><path id="path2987-10-8" fill="#0f0" fill-opacity="1" fill-rule="evenodd" stroke="#000" stroke-linecap="butt" stroke-linejoin="miter" stroke-opacity="1" stroke-width="1" d="m 131.42857,189.50504 a 34.285713,34.285713 0 1 1 -68.571423,0 34.285713,34.285713 0 1 1 68.571423,0 z" transform="translate(274.90438,720.91726)"/><text id="text3012" x="631.825" y="102.2" fill="#000" fill-opacity="1" stroke="none" font-family="Sans" font-size="40" font-style="normal" font-weight="normal" letter-spacing="0" word-spacing="0" xml:space="preserve" style="line-height:125%"><tspan id="tspan3014" x="631.825" y="102.2">End</tspan></text><text id="text3016" x="34.919" y="102.435" fill="#000" fill-opacity="1" stroke="none" font-family="Sans" font-size="40" font-style="normal" font-weight="normal" letter-spacing="0" word-spacing="0" xml:space="preserve" style="line-height:125%"><tspan id="tspan3018" x="34.919" y="102.435">Start</tspan></text><text id="text3020" x="407.773" y="332.393" fill="#000" fill-opacity="1" stroke="none" font-family="Sans" font-size="40" font-style="normal" font-weight="normal" letter-spacing="0" word-spacing="0" xml:space="preserve" style="line-height:125%"><tspan id="tspan3022" x="407.773" y="332.393">Link</tspan></text><text id="text3016-1" x="34.734" y="438.964" fill="#000" fill-opacity="1" stroke="none" font-family="Sans" font-size="40" font-style="normal" font-weight="normal" letter-spacing="0" word-spacing="0" xml:space="preserve" style="line-height:125%"><tspan id="tspan3018-7" x="34.734" y="438.964">Start</tspan></text><text id="text3012-4" x="630.581" y="438.73" fill="#000" fill-opacity="1" stroke="none" font-family="Sans" font-size="40" font-style="normal" font-weight="normal" letter-spacing="0" word-spacing="0" xml:space="preserve" style="line-height:125%"><tspan id="tspan3014-0" x="630.581" y="438.73">End</tspan></text><text id="text3020-9" x="407.773" y="665.219" fill="#000" fill-opacity="1" stroke="none" font-family="Sans" font-size="40" font-style="normal" font-weight="normal" letter-spacing="0" word-spacing="0" xml:space="preserve" style="line-height:125%"><tspan id="tspan3022-4" x="407.773" y="665.219">Link</tspan></text><text id="text3087" x="327.926" y="991.531" fill="#000" fill-opacity="1" stroke="none" font-family="Sans" font-size="40" font-style="normal" font-weight="normal" letter-spacing="0" word-spacing="0" xml:space="preserve" style="line-height:125%"><tspan id="tspan3091" x="327.926" y="991.531">Type</tspan></text></g></svg>