<svg xmlns="http://www.w3.org/2000/svg" xmlns:svg="http://www.w3.org/2000/svg" id="svg4552" width="210mm" height="210mm" version="1.1" viewBox="0 0 210 210"><defs id="defs4546"><marker style="overflow:visible" id="marker1153" orient="auto" refX="0" refY="0"><path style="fill:#4d4d4d;fill-opacity:1;fill-rule:evenodd;stroke:#4d4d4d;stroke-width:1.00000003pt;stroke-opacity:1" id="path1151" d="M 0,0 5,-5 -12.5,0 5,5 Z" transform="matrix(-0.2,0,0,-0.2,-1.2,0)"/></marker><marker id="Arrow1Send" orient="auto" refX="0" refY="0" style="overflow:visible"><path id="path872" d="M 0,0 5,-5 -12.5,0 5,5 Z" transform="matrix(-0.2,0,0,-0.2,-1.2,0)" style="fill:#4d4d4d;fill-opacity:1;fill-rule:evenodd;stroke:#4d4d4d;stroke-width:1.00000003pt;stroke-opacity:1"/></marker></defs><metadata id="metadata4549"/><g id="layer1" transform="translate(0,-87)"><g id="g8896" transform="translate(-1.4712719,85.59609)"><path id="path2987-10" d="m 37.6796,50.878716 a 9.0714282,9.0714282 0 1 1 -18.142856,0 9.0714282,9.0714282 0 1 1 18.142856,0 z" style="fill:red;fill-opacity:1;fill-rule:evenodd;stroke:#4d4d4d;stroke-width:2.64583325;stroke-linecap:butt;stroke-linejoin:miter;stroke-miterlimit:4;stroke-dasharray:none;stroke-opacity:1"/><path id="path2987-1-8" d="m 193.4058,50.878716 a 9.07143,9.07143 0 1 1 -18.14286,0 9.07143,9.07143 0 1 1 18.14286,0 z" style="fill:#00f;fill-opacity:1;fill-rule:evenodd;stroke:#4d4d4d;stroke-width:2.64583325;stroke-linecap:butt;stroke-linejoin:miter;stroke-miterlimit:4;stroke-dasharray:none;stroke-opacity:1"/><path id="path3777-0" d="m 36.58411,57.433614 c 76.11141,64.329686 137.3816,0.764453 137.3816,0.764453" style="fill:none;stroke:#4d4d4d;stroke-width:1.32291663;stroke-linecap:butt;stroke-linejoin:miter;stroke-miterlimit:4;stroke-dasharray:none;stroke-opacity:1;marker-end:url(#Arrow1Send)"/><path id="path4253" d="m 106.47127,152.60927 0.0369,-63.362198" style="fill:none;stroke:#4d4d4d;stroke-width:1.32291663;stroke-linecap:butt;stroke-linejoin:miter;stroke-miterlimit:4;stroke-dasharray:none;stroke-opacity:1;marker-end:url(#marker1153)"/><path id="path2987-10-8" d="m 115.54269,161.92339 a 9.0714282,9.0714282 0 1 1 -18.14285,0 9.0714282,9.0714282 0 1 1 18.14285,0 z" style="fill:#0f0;fill-opacity:1;fill-rule:evenodd;stroke:#4d4d4d;stroke-width:2.64583325;stroke-linecap:butt;stroke-linejoin:miter;stroke-miterlimit:4;stroke-dasharray:none;stroke-opacity:1"/></g></g></svg>