<svg xmlns="http://www.w3.org/2000/svg" xmlns:svg="http://www.w3.org/2000/svg" id="svg4552" width="210mm" height="210mm" version="1.1" viewBox="0 0 210 210"><defs id="defs4546"><marker style="overflow:visible" id="marker1153" orient="auto" refX="0" refY="0"><path style="fill:#4d4d4d;fill-opacity:1;fill-rule:evenodd;stroke:#4d4d4d;stroke-width:1.00000003pt;stroke-opacity:1" id="path1151" d="M 0,0 5,-5 -12.5,0 5,5 Z" transform="matrix(-0.2,0,0,-0.2,-1.2,0)"/></marker><marker id="Arrow1Send-9" orient="auto" refX="0" refY="0" style="overflow:visible"><path id="path872-6" d="M 0,0 5,-5 -12.5,0 5,5 Z" transform="matrix(-0.2,0,0,-0.2,-1.2,0)" style="fill:#4d4d4d;fill-opacity:1;fill-rule:evenodd;stroke:#4d4d4d;stroke-width:1.00000003pt;stroke-opacity:1"/></marker></defs><metadata id="metadata4549"/><g id="layer1" transform="translate(0,-87)"><g id="g8977" transform="translate(-162.00226,94.917607)"><path id="path2987" d="m 198.2594,84.690087 a 9.0714282,9.0714282 0 1 1 -18.14285,0 9.0714282,9.0714282 0 1 1 18.14285,0 z" style="fill:red;fill-opacity:1;fill-rule:evenodd;stroke:#4d4d4d;stroke-width:2.64583325;stroke-linecap:butt;stroke-linejoin:miter;stroke-miterlimit:4;stroke-dasharray:none;stroke-opacity:1"/><path id="path2987-1" d="m 353.88797,83.934136 a 9.07143,9.07143 0 1 1 -18.14286,0 9.07143,9.07143 0 1 1 18.14286,0 z" style="fill:#00f;fill-opacity:1;fill-rule:evenodd;stroke:#4d4d4d;stroke-width:2.64583325;stroke-linecap:butt;stroke-linejoin:miter;stroke-miterlimit:4;stroke-dasharray:none;stroke-opacity:1"/><path id="path3777-0-2" d="m 197.07716,91.27523 c 76.1114,64.32969 137.64835,0.4179 137.64835,0.4179" style="fill:none;stroke:#4d4d4d;stroke-width:1.32291663;stroke-linecap:butt;stroke-linejoin:miter;stroke-miterlimit:4;stroke-dasharray:none;stroke-opacity:1;marker-end:url(#Arrow1Send-9)"/></g></g></svg>