<svg xmlns="http://www.w3.org/2000/svg" xmlns:xlink="http://www.w3.org/1999/xlink" width="1080" height="620pt" viewBox="0 0 810.13 620"><g id="graph0" class="graph" transform="scale(1 1) rotate(0) translate(4 616)"><title>PlatformDataDoubletsDependencies</title><polygon fill="#fff" stroke="transparent" points="-4 4 -4 -616 806.127 -616 806.127 4 -4 4"/><g id="node1" class="node"><title>Platform.Delegates</title><g id="a_node1"><a xlink:href="https://github.com/linksplatform/Delegates" xlink:title="Platform.Delegates"><polygon fill="#ccd1ff" stroke="#ccd1ff" points="127.03 -612 3.667 -612 3.667 -576 127.03 -576 127.03 -612"/><text x="65.349" y="-589.8" fill="#000" font-family="Times,serif" font-size="14" text-anchor="middle">Platform.Delegates</text></a></g></g><g id="node2" class="node"><title>Platform.Exceptions</title><g id="a_node2"><a xlink:href="https://github.com/linksplatform/Exceptions" xlink:title="Platform.Exceptions"><polygon fill="#ccd1ff" stroke="#ccd1ff" points="130.547 -540 .151 -540 .151 -504 130.547 -504 130.547 -540"/><text x="65.349" y="-517.8" fill="#000" font-family="Times,serif" font-size="14" text-anchor="middle">Platform.Exceptions</text></a></g></g><g id="edge1" class="edge"><title>Platform.Delegates-&gt;Platform.Exceptions</title><path fill="none" stroke="#000" d="M65.3489,-575.8314C65.3489,-568.131 65.3489,-558.9743 65.3489,-550.4166"/><polygon fill="#000" stroke="#000" points="68.849 -550.413 65.349 -540.413 61.849 -550.413 68.849 -550.413"/></g><g id="node5" class="node"><title>Platform.Collections</title><g id="a_node5"><a xlink:href="https://github.com/linksplatform/Collections" xlink:title="Platform.Collections"><polygon fill="#ccd1ff" stroke="#ccd1ff" points="365.612 -324 233.086 -324 233.086 -288 365.612 -288 365.612 -324"/><text x="299.349" y="-301.8" fill="#000" font-family="Times,serif" font-size="14" text-anchor="middle">Platform.Collections</text></a></g></g><g id="edge23" class="edge"><title>Platform.Exceptions-&gt;Platform.Collections</title><path fill="none" stroke="#000" d="M69.5865,-503.92C78.2755,-470.7324 101.2058,-399.8515 146.3489,-360 167.8835,-340.9896 196.5396,-328.556 223.2265,-320.476"/><polygon fill="#000" stroke="#000" points="224.302 -323.809 232.953 -317.692 222.375 -317.079 224.302 -323.809"/></g><g id="node8" class="node"><title>Platform.Ranges</title><g id="a_node8"><a xlink:href="https://github.com/linksplatform/Ranges" xlink:title="Platform.Ranges"><polygon fill="#ccd1ff" stroke="#ccd1ff" points="268.05 -468 158.648 -468 158.648 -432 268.05 -432 268.05 -468"/><text x="213.349" y="-445.8" fill="#000" font-family="Times,serif" font-size="14" text-anchor="middle">Platform.Ranges</text></a></g></g><g id="edge11" class="edge"><title>Platform.Exceptions-&gt;Platform.Ranges</title><path fill="none" stroke="#000" d="M102.6955,-503.8314C122.2258,-494.3302 146.313,-482.6121 167.022,-472.5374"/><polygon fill="#000" stroke="#000" points="168.81 -475.56 176.271 -468.038 165.747 -469.265 168.81 -475.56"/></g><g id="node3" class="node"><title>Platform.Threading</title><g id="a_node3"><a xlink:href="https://github.com/linksplatform/Threading" xlink:title="Platform.Threading"><polygon fill="#ccd1ff" stroke="#ccd1ff" points="362.372 -252 236.326 -252 236.326 -216 362.372 -216 362.372 -252"/><text x="299.349" y="-229.8" fill="#000" font-family="Times,serif" font-size="14" text-anchor="middle">Platform.Threading</text></a></g></g><g id="node4" class="node"><title>Platform.IO</title><g id="a_node4"><a xlink:href="https://github.com/linksplatform/IO" xlink:title="Platform.IO"><polygon fill="#ccd1ff" stroke="#ccd1ff" points="333.107 -180 249.591 -180 249.591 -144 333.107 -144 333.107 -180"/><text x="291.349" y="-157.8" fill="#000" font-family="Times,serif" font-size="14" text-anchor="middle">Platform.IO</text></a></g></g><g id="edge2" class="edge"><title>Platform.Threading-&gt;Platform.IO</title><path fill="none" stroke="#000" d="M297.3302,-215.8314C296.4746,-208.131 295.4572,-198.9743 294.5063,-190.4166"/><polygon fill="#000" stroke="#000" points="297.978 -189.966 293.395 -180.413 291.021 -190.739 297.978 -189.966"/></g><g id="node14" class="node"><title>Platform.Data</title><g id="a_node14"><a xlink:href="https://github.com/linksplatform/Data" xlink:title="Platform.Data"><polygon fill="#4c5eff" stroke="#4c5eff" points="445.765 -180 350.932 -180 350.932 -144 445.765 -144 445.765 -180"/><text x="398.349" y="-157.8" fill="#000" font-family="Times,serif" font-size="14" text-anchor="middle">Platform.Data</text></a></g></g><g id="edge9" class="edge"><title>Platform.Threading-&gt;Platform.Data</title><path fill="none" stroke="#000" d="M324.3308,-215.8314C336.6417,-206.8779 351.6596,-195.9558 364.9426,-186.2955"/><polygon fill="#000" stroke="#000" points="367.346 -188.875 373.375 -180.163 363.229 -183.214 367.346 -188.875"/></g><g id="node13" class="node"><title>Platform.Memory</title><g id="a_node13"><a xlink:href="https://github.com/linksplatform/Memory" xlink:title="Platform.Memory"><polygon fill="#4c5eff" stroke="#4c5eff" points="359.55 -108 243.148 -108 243.148 -72 359.55 -72 359.55 -108"/><text x="301.349" y="-85.8" fill="#000" font-family="Times,serif" font-size="14" text-anchor="middle">Platform.Memory</text></a></g></g><g id="edge8" class="edge"><title>Platform.IO-&gt;Platform.Memory</title><path fill="none" stroke="#000" d="M293.8723,-143.8314C294.9418,-136.131 296.2136,-126.9743 297.4021,-118.4166"/><polygon fill="#000" stroke="#000" points="300.882 -118.8 298.791 -108.413 293.949 -117.837 300.882 -118.8"/></g><g id="edge3" class="edge"><title>Platform.Collections-&gt;Platform.Threading</title><path fill="none" stroke="#000" d="M299.3489,-287.8314C299.3489,-280.131 299.3489,-270.9743 299.3489,-262.4166"/><polygon fill="#000" stroke="#000" points="302.849 -262.413 299.349 -252.413 295.849 -262.413 302.849 -262.413"/></g><g id="node6" class="node"><title>Platform.Numbers</title><g id="a_node6"><a xlink:href="https://github.com/linksplatform/Numbers" xlink:title="Platform.Numbers"><polygon fill="#ccd1ff" stroke="#ccd1ff" points="583.156 -180 463.541 -180 463.541 -144 583.156 -144 583.156 -180"/><text x="523.349" y="-157.8" fill="#000" font-family="Times,serif" font-size="14" text-anchor="middle">Platform.Numbers</text></a></g></g><g id="node7" class="node"><title>Platform.Collections.Methods</title><g id="a_node7"><a xlink:href="https://github.com/linksplatform/Collections.Methods" xlink:title="Platform.Collections.Methods"><polygon fill="#ccd1ff" stroke="#ccd1ff" points="604.606 -108 420.091 -108 420.091 -72 604.606 -72 604.606 -108"/><text x="512.349" y="-85.8" fill="#000" font-family="Times,serif" font-size="14" text-anchor="middle">Platform.Collections.Methods</text></a></g></g><g id="edge4" class="edge"><title>Platform.Numbers-&gt;Platform.Collections.Methods</title><path fill="none" stroke="#000" d="M520.5731,-143.8314C519.3967,-136.131 517.9978,-126.9743 516.6903,-118.4166"/><polygon fill="#000" stroke="#000" points="520.132 -117.77 515.162 -108.413 513.212 -118.827 520.132 -117.77"/></g><g id="node17" class="node"><title>Platform.Data.Doublets</title><g id="a_node17"><a xlink:href="https://github.com/linksplatform/Data.Doublets" xlink:title="Platform.Data.Doublets"><polygon fill="#4c5eff" stroke="#4c5eff" points="586.813 -36 437.885 -36 437.885 0 586.813 0 586.813 -36"/><text x="512.349" y="-13.8" fill="#000" font-family="Times,serif" font-size="14" text-anchor="middle">Platform.Data.Doublets</text></a></g></g><g id="edge15" class="edge"><title>Platform.Collections.Methods-&gt;Platform.Data.Doublets</title><path fill="none" stroke="#000" d="M512.3489,-71.8314C512.3489,-64.131 512.3489,-54.9743 512.3489,-46.4166"/><polygon fill="#000" stroke="#000" points="515.849 -46.413 512.349 -36.413 508.849 -46.413 515.849 -46.413"/></g><g id="node9" class="node"><title>Platform.Random</title><g id="a_node9"><a xlink:href="https://github.com/linksplatform/Random" xlink:title="Platform.Random"><polygon fill="#ccd1ff" stroke="#ccd1ff" points="271.281 -396 155.417 -396 155.417 -360 271.281 -360 271.281 -396"/><text x="213.349" y="-373.8" fill="#000" font-family="Times,serif" font-size="14" text-anchor="middle">Platform.Random</text></a></g></g><g id="edge5" class="edge"><title>Platform.Ranges-&gt;Platform.Random</title><path fill="none" stroke="#000" d="M213.3489,-431.8314C213.3489,-424.131 213.3489,-414.9743 213.3489,-406.4166"/><polygon fill="#000" stroke="#000" points="216.849 -406.413 213.349 -396.413 209.849 -406.413 216.849 -406.413"/></g><g id="edge19" class="edge"><title>Platform.Random-&gt;Platform.Collections</title><path fill="none" stroke="#000" d="M235.0503,-359.8314C245.541,-351.0485 258.2944,-340.3712 269.6683,-330.8489"/><polygon fill="#000" stroke="#000" points="272.234 -333.266 277.654 -324.163 267.74 -327.899 272.234 -333.266"/></g><g id="node10" class="node"><title>Platform.Interfaces</title><g id="a_node10"><a xlink:href="https://github.com/linksplatform/Interfaces" xlink:title="Platform.Interfaces"><polygon fill="#ccd1ff" stroke="#ccd1ff" points="585.015 -396 461.683 -396 461.683 -360 585.015 -360 585.015 -396"/><text x="523.349" y="-373.8" fill="#000" font-family="Times,serif" font-size="14" text-anchor="middle">Platform.Interfaces</text></a></g></g><g id="edge22" class="edge"><title>Platform.Interfaces-&gt;Platform.Collections</title><path fill="none" stroke="#000" d="M467.1134,-359.9243C436.225,-349.9959 397.7393,-337.6255 365.4233,-327.2382"/><polygon fill="#000" stroke="#000" points="366.199 -323.811 355.608 -324.083 364.057 -330.475 366.199 -323.811"/></g><g id="node11" class="node"><title>Platform.Timestamps</title><g id="a_node11"><a xlink:href="https://github.com/linksplatform/Timestamps" xlink:title="Platform.Timestamps"><polygon fill="#ccd1ff" stroke="#ccd1ff" points="672.773 -252 535.925 -252 535.925 -216 672.773 -216 672.773 -252"/><text x="604.349" y="-229.8" fill="#000" font-family="Times,serif" font-size="14" text-anchor="middle">Platform.Timestamps</text></a></g></g><g id="edge6" class="edge"><title>Platform.Interfaces-&gt;Platform.Timestamps</title><path fill="none" stroke="#000" d="M533.6076,-359.7623C547.6668,-334.7682 573.022,-289.6924 589.2509,-260.8409"/><polygon fill="#000" stroke="#000" points="592.321 -262.521 594.173 -252.09 586.22 -259.089 592.321 -262.521"/></g><g id="node12" class="node"><title>Platform.Setters</title><g id="a_node12"><a xlink:href="https://github.com/linksplatform/Setters" xlink:title="Platform.Setters"><polygon fill="#ccd1ff" stroke="#ccd1ff" points="519.438 -324 413.26 -324 413.26 -288 519.438 -288 519.438 -324"/><text x="466.349" y="-301.8" fill="#000" font-family="Times,serif" font-size="14" text-anchor="middle">Platform.Setters</text></a></g></g><g id="edge7" class="edge"><title>Platform.Interfaces-&gt;Platform.Setters</title><path fill="none" stroke="#000" d="M508.9654,-359.8314C502.4003,-351.5386 494.4982,-341.557 487.2911,-332.4533"/><polygon fill="#000" stroke="#000" points="489.877 -330.081 480.926 -324.413 484.389 -334.426 489.877 -330.081"/></g><g id="edge14" class="edge"><title>Platform.Timestamps-&gt;Platform.Data.Doublets</title><path fill="none" stroke="#000" d="M611.4994,-215.9027C622.7685,-184.2026 640.7163,-117.6655 613.3489,-72 605.4254,-58.7788 593.0395,-48.6132 579.6201,-40.8649"/><polygon fill="#000" stroke="#000" points="581.161 -37.72 570.689 -36.114 577.874 -43.901 581.161 -37.72"/></g><g id="edge10" class="edge"><title>Platform.Setters-&gt;Platform.Data</title><path fill="none" stroke="#000" d="M457.7367,-287.7623C445.985,-262.8764 424.8322,-218.0822 411.2011,-189.2165"/><polygon fill="#000" stroke="#000" points="414.326 -187.638 406.891 -180.09 407.997 -190.627 414.326 -187.638"/></g><g id="edge16" class="edge"><title>Platform.Memory-&gt;Platform.Data.Doublets</title><path fill="none" stroke="#000" d="M354.3208,-71.9243C383.2911,-62.0387 419.3562,-49.7321 449.7152,-39.3726"/><polygon fill="#000" stroke="#000" points="451.021 -42.625 459.355 -36.083 448.761 -36 451.021 -42.625"/></g><g id="edge17" class="edge"><title>Platform.Data-&gt;Platform.Data.Doublets</title><path fill="none" stroke="#000" d="M396.4189,-143.6967C395.3283,-124.1715 396.4822,-93.1972 411.3489,-72 420.5273,-58.9133 433.901,-48.7206 447.9301,-40.8949"/><polygon fill="#000" stroke="#000" points="449.938 -43.796 457.206 -36.087 446.717 -37.581 449.938 -43.796"/></g><g id="node15" class="node"><title>Platform.Converters</title><g id="a_node15"><a xlink:href="https://github.com/linksplatform/Converters" xlink:title="Platform.Converters"><polygon fill="#ccd1ff" stroke="#ccd1ff" points="278.261 -540 148.436 -540 148.436 -504 278.261 -504 278.261 -540"/><text x="213.349" y="-517.8" fill="#000" font-family="Times,serif" font-size="14" text-anchor="middle">Platform.Converters</text></a></g></g><g id="edge12" class="edge"><title>Platform.Converters-&gt;Platform.Ranges</title><path fill="none" stroke="#000" d="M213.3489,-503.8314C213.3489,-496.131 213.3489,-486.9743 213.3489,-478.4166"/><polygon fill="#000" stroke="#000" points="216.849 -478.413 213.349 -468.413 209.849 -478.413 216.849 -478.413"/></g><g id="node16" class="node"><title>Platform.Hashing</title><g id="a_node16"><a xlink:href="https://github.com/linksplatform/Hashing" xlink:title="Platform.Hashing"><polygon fill="#ccd1ff" stroke="#ccd1ff" points="411.996 -540 296.702 -540 296.702 -504 411.996 -504 411.996 -540"/><text x="354.349" y="-517.8" fill="#000" font-family="Times,serif" font-size="14" text-anchor="middle">Platform.Hashing</text></a></g></g><g id="edge20" class="edge"><title>Platform.Hashing-&gt;Platform.Collections</title><path fill="none" stroke="#000" d="M348.6966,-503.7454C341.2382,-479.3328 327.9354,-434.6417 318.3489,-396 313.2299,-375.3662 308.2969,-351.8546 304.7407,-334.0379"/><polygon fill="#000" stroke="#000" points="308.133 -333.149 302.765 -324.014 301.265 -334.502 308.133 -333.149"/></g><g id="edge13" class="edge"><title>Platform.Hashing-&gt;Platform.Ranges</title><path fill="none" stroke="#000" d="M318.7686,-503.8314C300.3164,-494.4089 277.5944,-482.8062 257.9759,-472.7883"/><polygon fill="#000" stroke="#000" points="259.416 -469.594 248.918 -468.163 256.232 -475.828 259.416 -469.594"/></g><g id="node18" class="node"><title>Platform.Incrementers</title><g id="a_node18"><a xlink:href="https://github.com/linksplatform/Incrementers" xlink:title="Platform.Incrementers"><polygon fill="#ccd1ff" stroke="#ccd1ff" points="801.906 -108 660.792 -108 660.792 -72 801.906 -72 801.906 -108"/><text x="731.349" y="-85.8" fill="#000" font-family="Times,serif" font-size="14" text-anchor="middle">Platform.Incrementers</text></a></g></g><g id="edge18" class="edge"><title>Platform.Incrementers-&gt;Platform.Data.Doublets</title><path fill="none" stroke="#000" d="M676.3686,-71.9243C646.1697,-61.9959 608.5431,-49.6255 576.9485,-39.2382"/><polygon fill="#000" stroke="#000" points="577.945 -35.882 567.352 -36.083 575.758 -42.531 577.945 -35.882"/></g><g id="node19" class="node"><title>Platform.Equality</title><g id="a_node19"><a xlink:href="https://github.com/linksplatform/Equality" xlink:title="Platform.Equality"><polygon fill="#ccd1ff" stroke="#ccd1ff" points="443.278 -396 327.42 -396 327.42 -360 443.278 -360 443.278 -396"/><text x="385.349" y="-373.8" fill="#000" font-family="Times,serif" font-size="14" text-anchor="middle">Platform.Equality</text></a></g></g><g id="edge21" class="edge"><title>Platform.Equality-&gt;Platform.Collections</title><path fill="none" stroke="#000" d="M363.6475,-359.8314C353.1568,-351.0485 340.4034,-340.3712 329.0295,-330.8489"/><polygon fill="#000" stroke="#000" points="330.958 -327.899 321.043 -324.163 326.464 -333.266 330.958 -327.899"/></g></g></svg>