<?xml version="1.0" encoding="UTF-8" standalone="no"?><!DOCTYPE svg PUBLIC "-//W3C//DTD SVG 1.1//EN" "http://www.w3.org/Graphics/SVG/1.1/DTD/svg11.dtd"><!-- Generated by graphviz version 2.40.1 (20161225.0304)
 --><!-- Title: PlatformDataDoubletsDependencies Pages: 1 --><svg xmlns="http://www.w3.org/2000/svg" xmlns:xlink="http://www.w3.org/1999/xlink" width="1118pt" height="476pt" viewBox="0.00 0.00 1118.15 476.00">
<g id="graph0" class="graph" transform="scale(1 1) rotate(0) translate(4 472)">
<title>PlatformDataDoubletsDependencies</title>
<polygon fill="#ffffff" stroke="transparent" points="-4,4 -4,-472 1114.1508,-472 1114.1508,4 -4,4"/>
<!-- Platform.Delegates -->
<g id="node1" class="node">
<title>Platform.Delegates</title>
<g id="a_node1"><a xlink:href="https://github.com/linksplatform/Delegates" xlink:title="Platform.Delegates">
<polygon fill="#ccd1ff" stroke="#ccd1ff" points="127.0303,-468 3.6675,-468 3.6675,-432 127.0303,-432 127.0303,-468"/>
<text text-anchor="middle" x="65.3489" y="-445.8" font-family="Times,serif" font-size="14.00" fill="#000000">Platform.Delegates</text>
</a>
</g>
</g>
<!-- Platform.Exceptions -->
<g id="node2" class="node">
<title>Platform.Exceptions</title>
<g id="a_node2"><a xlink:href="https://github.com/linksplatform/Exceptions" xlink:title="Platform.Exceptions">
<polygon fill="#ccd1ff" stroke="#ccd1ff" points="130.547,-396 .1508,-396 .1508,-360 130.547,-360 130.547,-396"/>
<text text-anchor="middle" x="65.3489" y="-373.8" font-family="Times,serif" font-size="14.00" fill="#000000">Platform.Exceptions</text>
</a>
</g>
</g>
<!-- Platform.Delegates&#45;&gt;Platform.Exceptions -->
<g id="edge1" class="edge">
<title>Platform.Delegates-&gt;Platform.Exceptions</title>
<path fill="none" stroke="#000000" d="M65.3489,-431.8314C65.3489,-424.131 65.3489,-414.9743 65.3489,-406.4166"/>
<polygon fill="#000000" stroke="#000000" points="68.849,-406.4132 65.3489,-396.4133 61.849,-406.4133 68.849,-406.4132"/>
</g>
<!-- Platform.Collections -->
<g id="node4" class="node">
<title>Platform.Collections</title>
<g id="a_node4"><a xlink:href="https://github.com/linksplatform/Collections" xlink:title="Platform.Collections">
<polygon fill="#ccd1ff" stroke="#ccd1ff" points="272.6122,-324 140.0856,-324 140.0856,-288 272.6122,-288 272.6122,-324"/>
<text text-anchor="middle" x="206.3489" y="-301.8" font-family="Times,serif" font-size="14.00" fill="#000000">Platform.Collections</text>
</a>
</g>
</g>
<!-- Platform.Exceptions&#45;&gt;Platform.Collections -->
<g id="edge4" class="edge">
<title>Platform.Exceptions-&gt;Platform.Collections</title>
<path fill="none" stroke="#000000" d="M100.9292,-359.8314C119.3814,-350.4089 142.1034,-338.8062 161.7219,-328.7883"/>
<polygon fill="#000000" stroke="#000000" points="163.4657,-331.8278 170.78,-324.1628 160.2822,-325.5935 163.4657,-331.8278"/>
</g>
<!-- Platform.Ranges -->
<g id="node5" class="node">
<title>Platform.Ranges</title>
<g id="a_node5"><a xlink:href="https://github.com/linksplatform/Ranges" xlink:title="Platform.Ranges">
<polygon fill="#ccd1ff" stroke="#ccd1ff" points="121.0499,-324 11.6479,-324 11.6479,-288 121.0499,-288 121.0499,-324"/>
<text text-anchor="middle" x="66.3489" y="-301.8" font-family="Times,serif" font-size="14.00" fill="#000000">Platform.Ranges</text>
</a>
</g>
</g>
<!-- Platform.Exceptions&#45;&gt;Platform.Ranges -->
<g id="edge3" class="edge">
<title>Platform.Exceptions-&gt;Platform.Ranges</title>
<path fill="none" stroke="#000000" d="M65.6012,-359.8314C65.7082,-352.131 65.8354,-342.9743 65.9542,-334.4166"/>
<polygon fill="#000000" stroke="#000000" points="69.4538,-334.4609 66.0932,-324.4133 62.4545,-334.3637 69.4538,-334.4609"/>
</g>
<!-- Platform.Interfaces -->
<g id="node3" class="node">
<title>Platform.Interfaces</title>
<g id="a_node3"><a xlink:href="https://github.com/linksplatform/Interfaces" xlink:title="Platform.Interfaces">
<polygon fill="#ccd1ff" stroke="#ccd1ff" points="540.015,-396 416.6828,-396 416.6828,-360 540.015,-360 540.015,-396"/>
<text text-anchor="middle" x="478.3489" y="-373.8" font-family="Times,serif" font-size="14.00" fill="#000000">Platform.Interfaces</text>
</a>
</g>
</g>
<!-- Platform.Interfaces&#45;&gt;Platform.Collections -->
<g id="edge2" class="edge">
<title>Platform.Interfaces-&gt;Platform.Collections</title>
<path fill="none" stroke="#000000" d="M416.6279,-361.6621C376.7844,-351.1153 324.6714,-337.3207 282.2933,-326.1029"/>
<polygon fill="#000000" stroke="#000000" points="283.1405,-322.7067 272.5778,-323.5312 281.3492,-329.4736 283.1405,-322.7067"/>
</g>
<!-- Platform.Timestamps -->
<g id="node12" class="node">
<title>Platform.Timestamps</title>
<g id="a_node12"><a xlink:href="https://github.com/linksplatform/Timestamps" xlink:title="Platform.Timestamps">
<polygon fill="#ccd1ff" stroke="#ccd1ff" points="627.7725,-180 490.9253,-180 490.9253,-144 627.7725,-144 627.7725,-180"/>
<text text-anchor="middle" x="559.3489" y="-157.8" font-family="Times,serif" font-size="14.00" fill="#000000">Platform.Timestamps</text>
</a>
</g>
</g>
<!-- Platform.Interfaces&#45;&gt;Platform.Timestamps -->
<g id="edge10" class="edge">
<title>Platform.Interfaces-&gt;Platform.Timestamps</title>
<path fill="none" stroke="#000000" d="M507.4054,-359.8724C519.6299,-350.6746 532.7553,-338.3921 540.3489,-324 562.7662,-281.5128 563.8167,-224.1978 561.9743,-190.3633"/>
<polygon fill="#000000" stroke="#000000" points="565.4577,-189.9958 561.298,-180.2517 558.4733,-190.463 565.4577,-189.9958"/>
</g>
<!-- Platform.Setters -->
<g id="node13" class="node">
<title>Platform.Setters</title>
<g id="a_node13"><a xlink:href="https://github.com/linksplatform/Setters" xlink:title="Platform.Setters">
<polygon fill="#ccd1ff" stroke="#ccd1ff" points="391.4381,-252 285.2597,-252 285.2597,-216 391.4381,-216 391.4381,-252"/>
<text text-anchor="middle" x="338.3489" y="-229.8" font-family="Times,serif" font-size="14.00" fill="#000000">Platform.Setters</text>
</a>
</g>
</g>
<!-- Platform.Interfaces&#45;&gt;Platform.Setters -->
<g id="edge11" class="edge">
<title>Platform.Interfaces-&gt;Platform.Setters</title>
<path fill="none" stroke="#000000" d="M441.3064,-359.8379C425.0082,-350.6332 406.4156,-338.3547 392.3489,-324 374.4562,-305.7409 359.9566,-280.4643 350.5051,-261.3458"/>
<polygon fill="#000000" stroke="#000000" points="353.6258,-259.7587 346.1548,-252.2464 347.3105,-262.7781 353.6258,-259.7587"/>
</g>
<!-- Platform.Threading -->
<g id="node6" class="node">
<title>Platform.Threading</title>
<g id="a_node6"><a xlink:href="https://github.com/linksplatform/Threading" xlink:title="Platform.Threading">
<polygon fill="#ccd1ff" stroke="#ccd1ff" points="267.3721,-252 141.3257,-252 141.3257,-216 267.3721,-216 267.3721,-252"/>
<text text-anchor="middle" x="204.3489" y="-229.8" font-family="Times,serif" font-size="14.00" fill="#000000">Platform.Threading</text>
</a>
</g>
</g>
<!-- Platform.Collections&#45;&gt;Platform.Threading -->
<g id="edge6" class="edge">
<title>Platform.Collections-&gt;Platform.Threading</title>
<path fill="none" stroke="#000000" d="M205.8442,-287.8314C205.6303,-280.131 205.376,-270.9743 205.1383,-262.4166"/>
<polygon fill="#000000" stroke="#000000" points="208.6368,-262.3122 204.8604,-252.4133 201.6395,-262.5066 208.6368,-262.3122"/>
</g>
<!-- Platform.Random -->
<g id="node11" class="node">
<title>Platform.Random</title>
<g id="a_node11"><a xlink:href="https://github.com/linksplatform/Random" xlink:title="Platform.Random">
<polygon fill="#ccd1ff" stroke="#ccd1ff" points="161.2809,-180 45.4169,-180 45.4169,-144 161.2809,-144 161.2809,-180"/>
<text text-anchor="middle" x="103.3489" y="-157.8" font-family="Times,serif" font-size="14.00" fill="#000000">Platform.Random</text>
</a>
</g>
</g>
<!-- Platform.Ranges&#45;&gt;Platform.Random -->
<g id="edge9" class="edge">
<title>Platform.Ranges-&gt;Platform.Random</title>
<path fill="none" stroke="#000000" d="M71.035,-287.7623C77.3737,-263.0928 88.7391,-218.8598 96.1614,-189.9731"/>
<polygon fill="#000000" stroke="#000000" points="99.6021,-190.6461 98.7009,-180.0896 92.8223,-188.904 99.6021,-190.6461"/>
</g>
<!-- Platform.IO -->
<g id="node7" class="node">
<title>Platform.IO</title>
<g id="a_node7"><a xlink:href="https://github.com/linksplatform/IO" xlink:title="Platform.IO">
<polygon fill="#ccd1ff" stroke="#ccd1ff" points="269.1067,-180 185.5911,-180 185.5911,-144 269.1067,-144 269.1067,-180"/>
<text text-anchor="middle" x="227.3489" y="-157.8" font-family="Times,serif" font-size="14.00" fill="#000000">Platform.IO</text>
</a>
</g>
</g>
<!-- Platform.Threading&#45;&gt;Platform.IO -->
<g id="edge5" class="edge">
<title>Platform.Threading-&gt;Platform.IO</title>
<path fill="none" stroke="#000000" d="M210.1528,-215.8314C212.6397,-208.0463 215.602,-198.7729 218.3614,-190.1347"/>
<polygon fill="#000000" stroke="#000000" points="221.7579,-191.0041 221.4669,-180.4133 215.0898,-188.874 221.7579,-191.0041"/>
</g>
<!-- Platform.Data -->
<g id="node15" class="node">
<title>Platform.Data</title>
<g id="a_node15"><a xlink:href="https://github.com/linksplatform/Data" xlink:title="Platform.Data">
<polygon fill="#4c5eff" stroke="#4c5eff" points="384.7655,-180 289.9323,-180 289.9323,-144 384.7655,-144 384.7655,-180"/>
<text text-anchor="middle" x="337.3489" y="-157.8" font-family="Times,serif" font-size="14.00" fill="#000000">Platform.Data</text>
</a>
</g>
</g>
<!-- Platform.Threading&#45;&gt;Platform.Data -->
<g id="edge13" class="edge">
<title>Platform.Threading-&gt;Platform.Data</title>
<path fill="none" stroke="#000000" d="M237.9104,-215.8314C255.237,-206.4516 276.5547,-194.9112 295.0025,-184.9244"/>
<polygon fill="#000000" stroke="#000000" points="296.6703,-188.0015 303.7981,-180.1628 293.3378,-181.8457 296.6703,-188.0015"/>
</g>
<!-- Platform.Memory -->
<g id="node14" class="node">
<title>Platform.Memory</title>
<g id="a_node14"><a xlink:href="https://github.com/linksplatform/Memory" xlink:title="Platform.Memory">
<polygon fill="#4c5eff" stroke="#4c5eff" points="287.5499,-108 171.1479,-108 171.1479,-72 287.5499,-72 287.5499,-108"/>
<text text-anchor="middle" x="229.3489" y="-85.8" font-family="Times,serif" font-size="14.00" fill="#000000">Platform.Memory</text>
</a>
</g>
</g>
<!-- Platform.IO&#45;&gt;Platform.Memory -->
<g id="edge12" class="edge">
<title>Platform.IO-&gt;Platform.Memory</title>
<path fill="none" stroke="#000000" d="M227.8536,-143.8314C228.0675,-136.131 228.3218,-126.9743 228.5595,-118.4166"/>
<polygon fill="#000000" stroke="#000000" points="232.0583,-118.5066 228.8374,-108.4133 225.061,-118.3122 232.0583,-118.5066"/>
</g>
<!-- Platform.Converters -->
<g id="node8" class="node">
<title>Platform.Converters</title>
<g id="a_node8"><a xlink:href="https://github.com/linksplatform/Converters" xlink:title="Platform.Converters">
<polygon fill="#ccd1ff" stroke="#ccd1ff" points="531.2613,-324 401.4365,-324 401.4365,-288 531.2613,-288 531.2613,-324"/>
<text text-anchor="middle" x="466.3489" y="-301.8" font-family="Times,serif" font-size="14.00" fill="#000000">Platform.Converters</text>
</a>
</g>
</g>
<!-- Platform.Numbers -->
<g id="node9" class="node">
<title>Platform.Numbers</title>
<g id="a_node9"><a xlink:href="https://github.com/linksplatform/Numbers" xlink:title="Platform.Numbers">
<polygon fill="#ccd1ff" stroke="#ccd1ff" points="529.1563,-252 409.5415,-252 409.5415,-216 529.1563,-216 529.1563,-252"/>
<text text-anchor="middle" x="469.3489" y="-229.8" font-family="Times,serif" font-size="14.00" fill="#000000">Platform.Numbers</text>
</a>
</g>
</g>
<!-- Platform.Converters&#45;&gt;Platform.Numbers -->
<g id="edge7" class="edge">
<title>Platform.Converters-&gt;Platform.Numbers</title>
<path fill="none" stroke="#000000" d="M467.1059,-287.8314C467.4268,-280.131 467.8083,-270.9743 468.1649,-262.4166"/>
<polygon fill="#000000" stroke="#000000" points="471.6622,-262.5503 468.5817,-252.4133 464.6683,-262.2589 471.6622,-262.5503"/>
</g>
<!-- Platform.Collections.Methods -->
<g id="node10" class="node">
<title>Platform.Collections.Methods</title>
<g id="a_node10"><a xlink:href="https://github.com/linksplatform/Collections.Methods" xlink:title="Platform.Collections.Methods">
<polygon fill="#ccd1ff" stroke="#ccd1ff" points="531.6065,-108 347.0913,-108 347.0913,-72 531.6065,-72 531.6065,-108"/>
<text text-anchor="middle" x="439.3489" y="-85.8" font-family="Times,serif" font-size="14.00" fill="#000000">Platform.Collections.Methods</text>
</a>
</g>
</g>
<!-- Platform.Numbers&#45;&gt;Platform.Collections.Methods -->
<g id="edge8" class="edge">
<title>Platform.Numbers-&gt;Platform.Collections.Methods</title>
<path fill="none" stroke="#000000" d="M465.5494,-215.7623C460.4099,-191.0928 451.1947,-146.8598 445.1766,-117.9731"/>
<polygon fill="#000000" stroke="#000000" points="448.5836,-117.1656 443.1176,-108.0896 441.7308,-118.5933 448.5836,-117.1656"/>
</g>
<!-- Platform.Numbers&#45;&gt;Platform.Data -->
<g id="edge14" class="edge">
<title>Platform.Numbers-&gt;Platform.Data</title>
<path fill="none" stroke="#000000" d="M436.0397,-215.8314C418.9216,-206.4942 397.8783,-195.016 379.6267,-185.0606"/>
<polygon fill="#000000" stroke="#000000" points="381.1024,-181.8788 370.6474,-180.1628 377.7504,-188.024 381.1024,-181.8788"/>
</g>
<!-- Platform.Data.Doublets -->
<g id="node16" class="node">
<title>Platform.Data.Doublets</title>
<g id="a_node16"><a xlink:href="https://github.com/linksplatform/Data.Doublets" xlink:title="Platform.Data.Doublets">
<polygon fill="#4c5eff" stroke="#4c5eff" points="453.8125,-36 304.8853,-36 304.8853,0 453.8125,0 453.8125,-36"/>
<text text-anchor="middle" x="379.3489" y="-13.8" font-family="Times,serif" font-size="14.00" fill="#000000">Platform.Data.Doublets</text>
</a>
</g>
</g>
<!-- Platform.Collections.Methods&#45;&gt;Platform.Data.Doublets -->
<g id="edge18" class="edge">
<title>Platform.Collections.Methods-&gt;Platform.Data.Doublets</title>
<path fill="none" stroke="#000000" d="M424.2084,-71.8314C417.2272,-63.454 408.8098,-53.3531 401.1613,-44.1749"/>
<polygon fill="#000000" stroke="#000000" points="403.784,-41.8548 394.6933,-36.4133 398.4064,-46.3362 403.784,-41.8548"/>
</g>
<!-- Platform.Random&#45;&gt;Platform.Data.Doublets -->
<g id="edge16" class="edge">
<title>Platform.Random-&gt;Platform.Data.Doublets</title>
<path fill="none" stroke="#000000" d="M110.3971,-143.8468C119.3421,-123.2489 136.7523,-90.166 162.3489,-72 183.7934,-56.7807 243.3077,-42.5474 294.5957,-32.5183"/>
<polygon fill="#000000" stroke="#000000" points="295.5708,-35.895 304.7299,-30.5695 294.2489,-29.0209 295.5708,-35.895"/>
</g>
<!-- Platform.Timestamps&#45;&gt;Platform.Data.Doublets -->
<g id="edge17" class="edge">
<title>Platform.Timestamps-&gt;Platform.Data.Doublets</title>
<path fill="none" stroke="#000000" d="M560.4925,-143.7905C560.7347,-123.7615 557.98,-91.796 540.3489,-72 529.2841,-59.5766 496.6842,-47.6119 463.6874,-38.116"/>
<polygon fill="#000000" stroke="#000000" points="464.4982,-34.7085 453.9246,-35.3781 462.608,-41.4484 464.4982,-34.7085"/>
</g>
<!-- Platform.Setters&#45;&gt;Platform.Data -->
<g id="edge15" class="edge">
<title>Platform.Setters-&gt;Platform.Data</title>
<path fill="none" stroke="#000000" d="M338.0966,-215.8314C337.9896,-208.131 337.8624,-198.9743 337.7436,-190.4166"/>
<polygon fill="#000000" stroke="#000000" points="341.2433,-190.3637 337.6046,-180.4133 334.244,-190.4609 341.2433,-190.3637"/>
</g>
<!-- Platform.Memory&#45;&gt;Platform.Data.Doublets -->
<g id="edge19" class="edge">
<title>Platform.Memory-&gt;Platform.Data.Doublets</title>
<path fill="none" stroke="#000000" d="M267.2002,-71.8314C287.0835,-62.2874 311.6271,-50.5065 332.6794,-40.4013"/>
<polygon fill="#000000" stroke="#000000" points="334.2691,-43.5207 341.7698,-36.038 331.2399,-37.21 334.2691,-43.5207"/>
</g>
<!-- Platform.Data&#45;&gt;Platform.Data.Doublets -->
<g id="edge20" class="edge">
<title>Platform.Data-&gt;Platform.Data.Doublets</title>
<path fill="none" stroke="#000000" d="M334.2894,-143.8486C331.8984,-125.2598 330.1906,-95.7983 338.3489,-72 341.7844,-61.9786 347.8717,-52.3293 354.3217,-44.029"/>
<polygon fill="#000000" stroke="#000000" points="357.1141,-46.1448 360.8078,-36.2147 351.7278,-41.674 357.1141,-46.1448"/>
</g>
<!-- Platform.Incrementers -->
<g id="node17" class="node">
<title>Platform.Incrementers</title>
<g id="a_node17"><a xlink:href="https://github.com/linksplatform/Incrementers" xlink:title="Platform.Incrementers">
<polygon fill="#ccd1ff" stroke="#ccd1ff" points="728.9058,-108 587.792,-108 587.792,-72 728.9058,-72 728.9058,-108"/>
<text text-anchor="middle" x="658.3489" y="-85.8" font-family="Times,serif" font-size="14.00" fill="#000000">Platform.Incrementers</text>
</a>
</g>
</g>
<!-- Platform.Incrementers&#45;&gt;Platform.Data.Doublets -->
<g id="edge21" class="edge">
<title>Platform.Incrementers-&gt;Platform.Data.Doublets</title>
<path fill="none" stroke="#000000" d="M588.3055,-71.9243C549.0867,-61.8033 500.0346,-49.1447 459.3136,-38.6361"/>
<polygon fill="#000000" stroke="#000000" points="459.9784,-35.193 449.4211,-36.0831 458.2293,-41.971 459.9784,-35.193"/>
</g>
<!-- Set of deleted:  -->
<g id="node18" class="node">
<title>Set of deleted: </title>
<polygon fill="#ccd1ff" stroke="#ccd1ff" points="892.7136,-468 791.9842,-468 791.9842,-432 892.7136,-432 892.7136,-468"/>
<text text-anchor="middle" x="842.3489" y="-445.8" font-family="Times,serif" font-size="14.00" fill="#000000">Set of deleted: </text>
</g>
<!-- Platform.Disposables -->
<g id="node19" class="node">
<title>Platform.Disposables</title>
<g id="a_node19"><a xlink:href="https://github.com/linksplatform/Disposables" xlink:title="Platform.Disposables">
<polygon fill="#ff0000" stroke="#ff0000" points="694.49,-396 558.2078,-396 558.2078,-360 694.49,-360 694.49,-396"/>
<text text-anchor="middle" x="626.3489" y="-373.8" font-family="Times,serif" font-size="14.00" fill="#000000">Platform.Disposables</text>
</a>
</g>
</g>
<!-- Set of deleted: &#45;&gt;Platform.Disposables -->
<g id="edge22" class="edge">
<title>Set of deleted: -&gt;Platform.Disposables</title>
<path fill="none" stroke="#000000" d="M791.9791,-433.2101C761.7021,-423.1177 722.8793,-410.1768 690.4314,-399.3608"/>
<polygon fill="#000000" stroke="#000000" points="691.1762,-395.9198 680.5825,-396.0779 688.9626,-402.5606 691.1762,-395.9198"/>
</g>
<!-- Platform.Reflection -->
<g id="node20" class="node">
<title>Platform.Reflection</title>
<g id="a_node20"><a xlink:href="https://github.com/linksplatform/Reflection" xlink:title="Platform.Reflection">
<polygon fill="#ff0000" stroke="#ff0000" points="838.6521,-396 712.0457,-396 712.0457,-360 838.6521,-360 838.6521,-396"/>
<text text-anchor="middle" x="775.3489" y="-373.8" font-family="Times,serif" font-size="14.00" fill="#000000">Platform.Reflection</text>
</a>
</g>
</g>
<!-- Set of deleted: &#45;&gt;Platform.Reflection -->
<g id="edge23" class="edge">
<title>Set of deleted: -&gt;Platform.Reflection</title>
<path fill="none" stroke="#000000" d="M825.442,-431.8314C817.5676,-423.3694 808.0569,-413.1489 799.4476,-403.8971"/>
<polygon fill="#000000" stroke="#000000" points="801.8581,-401.3497 792.4835,-396.4133 796.7336,-406.1183 801.8581,-401.3497"/>
</g>
<!-- Platform.Unsafe -->
<g id="node21" class="node">
<title>Platform.Unsafe</title>
<g id="a_node21"><a xlink:href="https://github.com/linksplatform/Unsafe" xlink:title="Platform.Unsafe">
<polygon fill="#ff0000" stroke="#ff0000" points="964.4802,-396 856.2176,-396 856.2176,-360 964.4802,-360 964.4802,-396"/>
<text text-anchor="middle" x="910.3489" y="-373.8" font-family="Times,serif" font-size="14.00" fill="#000000">Platform.Unsafe</text>
</a>
</g>
</g>
<!-- Set of deleted: &#45;&gt;Platform.Unsafe -->
<g id="edge24" class="edge">
<title>Set of deleted: -&gt;Platform.Unsafe</title>
<path fill="none" stroke="#000000" d="M859.5082,-431.8314C867.5,-423.3694 877.1527,-413.1489 885.8905,-403.8971"/>
<polygon fill="#000000" stroke="#000000" points="888.6369,-406.0866 892.9586,-396.4133 883.5478,-401.2802 888.6369,-406.0866"/>
</g>
<!-- Platform.Singletons -->
<g id="node22" class="node">
<title>Platform.Singletons</title>
<g id="a_node22"><a xlink:href="https://github.com/linksplatform/Singletons" xlink:title="Platform.Singletons">
<polygon fill="#ff0000" stroke="#ff0000" points="1109.9533,-396 982.7445,-396 982.7445,-360 1109.9533,-360 1109.9533,-396"/>
<text text-anchor="middle" x="1046.3489" y="-373.8" font-family="Times,serif" font-size="14.00" fill="#000000">Platform.Singletons</text>
</a>
</g>
</g>
<!-- Set of deleted: &#45;&gt;Platform.Singletons -->
<g id="edge25" class="edge">
<title>Set of deleted: -&gt;Platform.Singletons</title>
<path fill="none" stroke="#000000" d="M892.7759,-432.2022C920.7613,-422.325 955.7757,-409.967 985.3007,-399.5464"/>
<polygon fill="#000000" stroke="#000000" points="986.82,-402.7219 995.0851,-396.0931 984.4903,-396.1209 986.82,-402.7219"/>
</g>
<!-- Platform.Hashing -->
<g id="node23" class="node">
<title>Platform.Hashing</title>
<g id="a_node23"><a xlink:href="https://github.com/linksplatform/Hashing" xlink:title="Platform.Hashing">
<polygon fill="#ccd1ff" stroke="#ccd1ff" points="263.9956,-396 148.7022,-396 148.7022,-360 263.9956,-360 263.9956,-396"/>
<text text-anchor="middle" x="206.3489" y="-373.8" font-family="Times,serif" font-size="14.00" fill="#000000">Platform.Hashing</text>
</a>
</g>
</g>
<!-- Platform.Hashing&#45;&gt;Platform.Collections -->
<g id="edge26" class="edge">
<title>Platform.Hashing-&gt;Platform.Collections</title>
<path fill="none" stroke="#000000" d="M206.3489,-359.8314C206.3489,-352.131 206.3489,-342.9743 206.3489,-334.4166"/>
<polygon fill="#000000" stroke="#000000" points="209.849,-334.4132 206.3489,-324.4133 202.849,-334.4133 209.849,-334.4132"/>
</g>
<!-- Platform.Equality -->
<g id="node24" class="node">
<title>Platform.Equality</title>
<g id="a_node24"><a xlink:href="https://github.com/linksplatform/Equality" xlink:title="Platform.Equality">
<polygon fill="#ccd1ff" stroke="#ccd1ff" points="398.2781,-396 282.4197,-396 282.4197,-360 398.2781,-360 398.2781,-396"/>
<text text-anchor="middle" x="340.3489" y="-373.8" font-family="Times,serif" font-size="14.00" fill="#000000">Platform.Equality</text>
</a>
</g>
</g>
<!-- Platform.Equality&#45;&gt;Platform.Collections -->
<g id="edge27" class="edge">
<title>Platform.Equality-&gt;Platform.Collections</title>
<path fill="none" stroke="#000000" d="M306.535,-359.8314C289.0782,-350.4516 267.6002,-338.9112 249.0137,-328.9244"/>
<polygon fill="#000000" stroke="#000000" points="250.6175,-325.8129 240.1519,-324.1628 247.3043,-331.9792 250.6175,-325.8129"/>
</g>
</g>
</svg>