<?xml version="1.0" encoding="UTF-8" standalone="no"?><!DOCTYPE svg PUBLIC "-//W3C//DTD SVG 1.1//EN" "http://www.w3.org/Graphics/SVG/1.1/DTD/svg11.dtd"><!-- Generated by graphviz version 2.40.1 (20161225.0304)
 --><!-- Title: PlatformDataDoubletsDependencies Pages: 1 --><svg xmlns="http://www.w3.org/2000/svg" xmlns:xlink="http://www.w3.org/1999/xlink" width="1266pt" height="476pt" viewBox="0.00 0.00 1265.76 476.00">
<g id="graph0" class="graph" transform="scale(1 1) rotate(0) translate(4 472)">
<title>PlatformDataDoubletsDependencies</title>
<polygon fill="#ffffff" stroke="transparent" points="-4,4 -4,-472 1261.7581,-472 1261.7581,4 -4,4"/>
<!-- Platform.Delegates -->
<g id="node1" class="node">
<title>Platform.Delegates</title>
<g id="a_node1"><a xlink:href="https://github.com/linksplatform/Delegates" xlink:title="Platform.Delegates">
<polygon fill="#ccd1ff" stroke="#ccd1ff" points="274.6376,-468 151.2748,-468 151.2748,-432 274.6376,-432 274.6376,-468"/>
<text text-anchor="middle" x="212.9562" y="-445.8" font-family="Times,serif" font-size="14.00" fill="#000000">Platform.Delegates</text>
</a>
</g>
</g>
<!-- Platform.Exceptions -->
<g id="node2" class="node">
<title>Platform.Exceptions</title>
<g id="a_node2"><a xlink:href="https://github.com/linksplatform/Exceptions" xlink:title="Platform.Exceptions">
<polygon fill="#ccd1ff" stroke="#ccd1ff" points="278.1543,-396 147.7581,-396 147.7581,-360 278.1543,-360 278.1543,-396"/>
<text text-anchor="middle" x="212.9562" y="-373.8" font-family="Times,serif" font-size="14.00" fill="#000000">Platform.Exceptions</text>
</a>
</g>
</g>
<!-- Platform.Delegates&#45;&gt;Platform.Exceptions -->
<g id="edge1" class="edge">
<title>Platform.Delegates-&gt;Platform.Exceptions</title>
<path fill="none" stroke="#000000" d="M212.9562,-431.8314C212.9562,-424.131 212.9562,-414.9743 212.9562,-406.4166"/>
<polygon fill="#000000" stroke="#000000" points="216.4563,-406.4132 212.9562,-396.4133 209.4563,-406.4133 216.4563,-406.4132"/>
</g>
<!-- Platform.Collections -->
<g id="node4" class="node">
<title>Platform.Collections</title>
<g id="a_node4"><a xlink:href="https://github.com/linksplatform/Collections" xlink:title="Platform.Collections">
<polygon fill="#ccd1ff" stroke="#ccd1ff" points="427.2195,-324 294.6929,-324 294.6929,-288 427.2195,-288 427.2195,-324"/>
<text text-anchor="middle" x="360.9562" y="-301.8" font-family="Times,serif" font-size="14.00" fill="#000000">Platform.Collections</text>
</a>
</g>
</g>
<!-- Platform.Exceptions&#45;&gt;Platform.Collections -->
<g id="edge6" class="edge">
<title>Platform.Exceptions-&gt;Platform.Collections</title>
<path fill="none" stroke="#000000" d="M250.3028,-359.8314C269.8331,-350.3302 293.9203,-338.6121 314.6293,-328.5374"/>
<polygon fill="#000000" stroke="#000000" points="316.4169,-331.56 323.8781,-324.038 313.3546,-325.2654 316.4169,-331.56"/>
</g>
<!-- Platform.Ranges -->
<g id="node5" class="node">
<title>Platform.Ranges</title>
<g id="a_node5"><a xlink:href="https://github.com/linksplatform/Ranges" xlink:title="Platform.Ranges">
<polygon fill="#ccd1ff" stroke="#ccd1ff" points="268.6572,-324 159.2552,-324 159.2552,-288 268.6572,-288 268.6572,-324"/>
<text text-anchor="middle" x="213.9562" y="-301.8" font-family="Times,serif" font-size="14.00" fill="#000000">Platform.Ranges</text>
</a>
</g>
</g>
<!-- Platform.Exceptions&#45;&gt;Platform.Ranges -->
<g id="edge3" class="edge">
<title>Platform.Exceptions-&gt;Platform.Ranges</title>
<path fill="none" stroke="#000000" d="M213.2085,-359.8314C213.3155,-352.131 213.4427,-342.9743 213.5615,-334.4166"/>
<polygon fill="#000000" stroke="#000000" points="217.0611,-334.4609 213.7005,-324.4133 210.0618,-334.3637 217.0611,-334.4609"/>
</g>
<!-- Platform.Interfaces -->
<g id="node3" class="node">
<title>Platform.Interfaces</title>
<g id="a_node3"><a xlink:href="https://github.com/linksplatform/Interfaces" xlink:title="Platform.Interfaces">
<polygon fill="#ccd1ff" stroke="#ccd1ff" points="687.6223,-396 564.2901,-396 564.2901,-360 687.6223,-360 687.6223,-396"/>
<text text-anchor="middle" x="625.9562" y="-373.8" font-family="Times,serif" font-size="14.00" fill="#000000">Platform.Interfaces</text>
</a>
</g>
</g>
<!-- Platform.Interfaces&#45;&gt;Platform.Collections -->
<g id="edge2" class="edge">
<title>Platform.Interfaces-&gt;Platform.Collections</title>
<path fill="none" stroke="#000000" d="M564.1599,-361.2101C526.2941,-350.922 477.5331,-337.6737 437.2684,-326.7339"/>
<polygon fill="#000000" stroke="#000000" points="438.0607,-323.3223 427.4928,-324.0779 436.2253,-330.0774 438.0607,-323.3223"/>
</g>
<!-- Platform.Timestamps -->
<g id="node13" class="node">
<title>Platform.Timestamps</title>
<g id="a_node13"><a xlink:href="https://github.com/linksplatform/Timestamps" xlink:title="Platform.Timestamps">
<polygon fill="#ccd1ff" stroke="#ccd1ff" points="655.3798,-252 518.5326,-252 518.5326,-216 655.3798,-216 655.3798,-252"/>
<text text-anchor="middle" x="586.9562" y="-229.8" font-family="Times,serif" font-size="14.00" fill="#000000">Platform.Timestamps</text>
</a>
</g>
</g>
<!-- Platform.Interfaces&#45;&gt;Platform.Timestamps -->
<g id="edge12" class="edge">
<title>Platform.Interfaces-&gt;Platform.Timestamps</title>
<path fill="none" stroke="#000000" d="M621.0168,-359.7623C614.3355,-335.0928 602.3557,-290.8598 594.5322,-261.9731"/>
<polygon fill="#000000" stroke="#000000" points="597.848,-260.8269 591.8555,-252.0896 591.0914,-262.6569 597.848,-260.8269"/>
</g>
<!-- Platform.Setters -->
<g id="node14" class="node">
<title>Platform.Setters</title>
<g id="a_node14"><a xlink:href="https://github.com/linksplatform/Setters" xlink:title="Platform.Setters">
<polygon fill="#ccd1ff" stroke="#ccd1ff" points="578.0454,-324 471.867,-324 471.867,-288 578.0454,-288 578.0454,-324"/>
<text text-anchor="middle" x="524.9562" y="-301.8" font-family="Times,serif" font-size="14.00" fill="#000000">Platform.Setters</text>
</a>
</g>
</g>
<!-- Platform.Interfaces&#45;&gt;Platform.Setters -->
<g id="edge13" class="edge">
<title>Platform.Interfaces-&gt;Platform.Setters</title>
<path fill="none" stroke="#000000" d="M600.4696,-359.8314C587.7903,-350.7927 572.2966,-339.7476 558.6507,-330.0198"/>
<polygon fill="#000000" stroke="#000000" points="560.6091,-327.1176 550.4346,-324.1628 556.5457,-332.8176 560.6091,-327.1176"/>
</g>
<!-- Platform.Threading -->
<g id="node8" class="node">
<title>Platform.Threading</title>
<g id="a_node8"><a xlink:href="https://github.com/linksplatform/Threading" xlink:title="Platform.Threading">
<polygon fill="#ccd1ff" stroke="#ccd1ff" points="423.9794,-252 297.933,-252 297.933,-216 423.9794,-216 423.9794,-252"/>
<text text-anchor="middle" x="360.9562" y="-229.8" font-family="Times,serif" font-size="14.00" fill="#000000">Platform.Threading</text>
</a>
</g>
</g>
<!-- Platform.Collections&#45;&gt;Platform.Threading -->
<g id="edge8" class="edge">
<title>Platform.Collections-&gt;Platform.Threading</title>
<path fill="none" stroke="#000000" d="M360.9562,-287.8314C360.9562,-280.131 360.9562,-270.9743 360.9562,-262.4166"/>
<polygon fill="#000000" stroke="#000000" points="364.4563,-262.4132 360.9562,-252.4133 357.4563,-262.4133 364.4563,-262.4132"/>
</g>
<!-- Platform.Random -->
<g id="node12" class="node">
<title>Platform.Random</title>
<g id="a_node12"><a xlink:href="https://github.com/linksplatform/Random" xlink:title="Platform.Random">
<polygon fill="#ccd1ff" stroke="#ccd1ff" points="285.8882,-108 170.0242,-108 170.0242,-72 285.8882,-72 285.8882,-108"/>
<text text-anchor="middle" x="227.9562" y="-85.8" font-family="Times,serif" font-size="14.00" fill="#000000">Platform.Random</text>
</a>
</g>
</g>
<!-- Platform.Ranges&#45;&gt;Platform.Random -->
<g id="edge11" class="edge">
<title>Platform.Ranges-&gt;Platform.Random</title>
<path fill="none" stroke="#000000" d="M215.1258,-287.9555C217.5655,-250.3144 223.2126,-163.1867 226.1333,-118.1246"/>
<polygon fill="#000000" stroke="#000000" points="229.6259,-118.3505 226.7801,-108.1451 222.6406,-117.8977 229.6259,-118.3505"/>
</g>
<!-- Platform.Converters -->
<g id="node6" class="node">
<title>Platform.Converters</title>
<g id="a_node6"><a xlink:href="https://github.com/linksplatform/Converters" xlink:title="Platform.Converters">
<polygon fill="#ccd1ff" stroke="#ccd1ff" points="129.8686,-396 .0438,-396 .0438,-360 129.8686,-360 129.8686,-396"/>
<text text-anchor="middle" x="64.9562" y="-373.8" font-family="Times,serif" font-size="14.00" fill="#000000">Platform.Converters</text>
</a>
</g>
</g>
<!-- Platform.Converters&#45;&gt;Platform.Ranges -->
<g id="edge4" class="edge">
<title>Platform.Converters-&gt;Platform.Ranges</title>
<path fill="none" stroke="#000000" d="M102.5552,-359.8314C122.3059,-350.2874 146.6859,-338.5065 167.5979,-328.4013"/>
<polygon fill="#000000" stroke="#000000" points="169.1465,-331.5403 176.6276,-324.038 166.1009,-325.2376 169.1465,-331.5403"/>
</g>
<!-- Platform.Numbers -->
<g id="node10" class="node">
<title>Platform.Numbers</title>
<g id="a_node10"><a xlink:href="https://github.com/linksplatform/Numbers" xlink:title="Platform.Numbers">
<polygon fill="#ccd1ff" stroke="#ccd1ff" points="137.7636,-252 18.1488,-252 18.1488,-216 137.7636,-216 137.7636,-252"/>
<text text-anchor="middle" x="77.9562" y="-229.8" font-family="Times,serif" font-size="14.00" fill="#000000">Platform.Numbers</text>
</a>
</g>
</g>
<!-- Platform.Converters&#45;&gt;Platform.Numbers -->
<g id="edge9" class="edge">
<title>Platform.Converters-&gt;Platform.Numbers</title>
<path fill="none" stroke="#000000" d="M66.6027,-359.7623C68.82,-335.201 72.788,-291.2474 75.3965,-262.3541"/>
<polygon fill="#000000" stroke="#000000" points="78.9097,-262.3638 76.3231,-252.0896 71.9381,-261.7344 78.9097,-262.3638"/>
</g>
<!-- Platform.Hashing -->
<g id="node7" class="node">
<title>Platform.Hashing</title>
<g id="a_node7"><a xlink:href="https://github.com/linksplatform/Hashing" xlink:title="Platform.Hashing">
<polygon fill="#ccd1ff" stroke="#ccd1ff" points="411.6029,-396 296.3095,-396 296.3095,-360 411.6029,-360 411.6029,-396"/>
<text text-anchor="middle" x="353.9562" y="-373.8" font-family="Times,serif" font-size="14.00" fill="#000000">Platform.Hashing</text>
</a>
</g>
</g>
<!-- Platform.Hashing&#45;&gt;Platform.Collections -->
<g id="edge27" class="edge">
<title>Platform.Hashing-&gt;Platform.Collections</title>
<path fill="none" stroke="#000000" d="M355.7226,-359.8314C356.4712,-352.131 357.3615,-342.9743 358.1935,-334.4166"/>
<polygon fill="#000000" stroke="#000000" points="361.6818,-334.7051 359.166,-324.4133 354.7147,-334.0276 361.6818,-334.7051"/>
</g>
<!-- Platform.Hashing&#45;&gt;Platform.Ranges -->
<g id="edge5" class="edge">
<title>Platform.Hashing-&gt;Platform.Ranges</title>
<path fill="none" stroke="#000000" d="M318.6283,-359.8314C300.3069,-350.4089 277.746,-338.8062 258.2667,-328.7883"/>
<polygon fill="#000000" stroke="#000000" points="259.7664,-325.6239 249.2728,-324.1628 256.565,-331.8489 259.7664,-325.6239"/>
</g>
<!-- Platform.IO -->
<g id="node9" class="node">
<title>Platform.IO</title>
<g id="a_node9"><a xlink:href="https://github.com/linksplatform/IO" xlink:title="Platform.IO">
<polygon fill="#ccd1ff" stroke="#ccd1ff" points="390.714,-180 307.1984,-180 307.1984,-144 390.714,-144 390.714,-180"/>
<text text-anchor="middle" x="348.9562" y="-157.8" font-family="Times,serif" font-size="14.00" fill="#000000">Platform.IO</text>
</a>
</g>
</g>
<!-- Platform.Threading&#45;&gt;Platform.IO -->
<g id="edge7" class="edge">
<title>Platform.Threading-&gt;Platform.IO</title>
<path fill="none" stroke="#000000" d="M357.9281,-215.8314C356.6447,-208.131 355.1186,-198.9743 353.6923,-190.4166"/>
<polygon fill="#000000" stroke="#000000" points="357.1215,-189.7018 352.0251,-180.4133 350.2168,-190.8526 357.1215,-189.7018"/>
</g>
<!-- Platform.Data -->
<g id="node16" class="node">
<title>Platform.Data</title>
<g id="a_node16"><a xlink:href="https://github.com/linksplatform/Data" xlink:title="Platform.Data">
<polygon fill="#4c5eff" stroke="#4c5eff" points="503.3728,-180 408.5396,-180 408.5396,-144 503.3728,-144 503.3728,-180"/>
<text text-anchor="middle" x="455.9562" y="-157.8" font-family="Times,serif" font-size="14.00" fill="#000000">Platform.Data</text>
</a>
</g>
</g>
<!-- Platform.Threading&#45;&gt;Platform.Data -->
<g id="edge15" class="edge">
<title>Platform.Threading-&gt;Platform.Data</title>
<path fill="none" stroke="#000000" d="M384.9287,-215.8314C396.7423,-206.8779 411.1534,-195.9558 423.8997,-186.2955"/>
<polygon fill="#000000" stroke="#000000" points="426.1357,-188.9925 431.9914,-180.1628 421.9076,-183.4137 426.1357,-188.9925"/>
</g>
<!-- Platform.Memory -->
<g id="node15" class="node">
<title>Platform.Memory</title>
<g id="a_node15"><a xlink:href="https://github.com/linksplatform/Memory" xlink:title="Platform.Memory">
<polygon fill="#4c5eff" stroke="#4c5eff" points="424.1572,-108 307.7552,-108 307.7552,-72 424.1572,-72 424.1572,-108"/>
<text text-anchor="middle" x="365.9562" y="-85.8" font-family="Times,serif" font-size="14.00" fill="#000000">Platform.Memory</text>
</a>
</g>
</g>
<!-- Platform.IO&#45;&gt;Platform.Memory -->
<g id="edge14" class="edge">
<title>Platform.IO-&gt;Platform.Memory</title>
<path fill="none" stroke="#000000" d="M353.246,-143.8314C355.0642,-136.131 357.2261,-126.9743 359.2467,-118.4166"/>
<polygon fill="#000000" stroke="#000000" points="362.717,-118.95 361.6086,-108.4133 355.9043,-117.3414 362.717,-118.95"/>
</g>
<!-- Platform.Collections.Methods -->
<g id="node11" class="node">
<title>Platform.Collections.Methods</title>
<g id="a_node11"><a xlink:href="https://github.com/linksplatform/Collections.Methods" xlink:title="Platform.Collections.Methods">
<polygon fill="#ccd1ff" stroke="#ccd1ff" points="190.2138,-180 5.6986,-180 5.6986,-144 190.2138,-144 190.2138,-180"/>
<text text-anchor="middle" x="97.9562" y="-157.8" font-family="Times,serif" font-size="14.00" fill="#000000">Platform.Collections.Methods</text>
</a>
</g>
</g>
<!-- Platform.Numbers&#45;&gt;Platform.Collections.Methods -->
<g id="edge10" class="edge">
<title>Platform.Numbers-&gt;Platform.Collections.Methods</title>
<path fill="none" stroke="#000000" d="M83.003,-215.8314C85.1656,-208.0463 87.7415,-198.7729 90.141,-190.1347"/>
<polygon fill="#000000" stroke="#000000" points="93.5372,-190.9852 92.8414,-180.4133 86.7926,-189.1117 93.5372,-190.9852"/>
</g>
<!-- Platform.Data.Doublets -->
<g id="node17" class="node">
<title>Platform.Data.Doublets</title>
<g id="a_node17"><a xlink:href="https://github.com/linksplatform/Data.Doublets" xlink:title="Platform.Data.Doublets">
<polygon fill="#4c5eff" stroke="#4c5eff" points="483.4198,-36 334.4926,-36 334.4926,0 483.4198,0 483.4198,-36"/>
<text text-anchor="middle" x="408.9562" y="-13.8" font-family="Times,serif" font-size="14.00" fill="#000000">Platform.Data.Doublets</text>
</a>
</g>
</g>
<!-- Platform.Collections.Methods&#45;&gt;Platform.Data.Doublets -->
<g id="edge19" class="edge">
<title>Platform.Collections.Methods-&gt;Platform.Data.Doublets</title>
<path fill="none" stroke="#000000" d="M105.7154,-143.7005C115.4857,-122.9652 134.2818,-89.7533 160.9562,-72 187.5385,-54.308 263.5097,-39.3405 324.4277,-29.6832"/>
<polygon fill="#000000" stroke="#000000" points="325.1093,-33.1193 334.4506,-28.1201 324.0306,-26.2029 325.1093,-33.1193"/>
</g>
<!-- Platform.Random&#45;&gt;Platform.Data.Doublets -->
<g id="edge17" class="edge">
<title>Platform.Random-&gt;Platform.Data.Doublets</title>
<path fill="none" stroke="#000000" d="M273.6301,-71.8314C298.053,-62.1162 328.3028,-50.0831 354.0046,-39.8592"/>
<polygon fill="#000000" stroke="#000000" points="355.6125,-42.9864 363.6107,-36.038 353.0252,-36.4821 355.6125,-42.9864"/>
</g>
<!-- Platform.Timestamps&#45;&gt;Platform.Data.Doublets -->
<g id="edge18" class="edge">
<title>Platform.Timestamps-&gt;Platform.Data.Doublets</title>
<path fill="none" stroke="#000000" d="M572.0862,-215.9555C540.5436,-177.6791 466.8322,-88.2316 430.2827,-43.8793"/>
<polygon fill="#000000" stroke="#000000" points="432.9697,-41.6365 423.9091,-36.1451 427.5677,-46.0882 432.9697,-41.6365"/>
</g>
<!-- Platform.Setters&#45;&gt;Platform.Data -->
<g id="edge16" class="edge">
<title>Platform.Setters-&gt;Platform.Data</title>
<path fill="none" stroke="#000000" d="M516.2173,-287.7623C504.2928,-262.8764 482.8289,-218.0822 468.9974,-189.2165"/>
<polygon fill="#000000" stroke="#000000" points="472.1018,-187.5953 464.6241,-180.0896 465.789,-190.6202 472.1018,-187.5953"/>
</g>
<!-- Platform.Memory&#45;&gt;Platform.Data.Doublets -->
<g id="edge20" class="edge">
<title>Platform.Memory-&gt;Platform.Data.Doublets</title>
<path fill="none" stroke="#000000" d="M376.8069,-71.8314C381.6585,-63.7079 387.4779,-53.9637 392.8242,-45.0118"/>
<polygon fill="#000000" stroke="#000000" points="395.8368,-46.7933 397.9594,-36.4133 389.827,-43.2041 395.8368,-46.7933"/>
</g>
<!-- Platform.Data&#45;&gt;Platform.Data.Doublets -->
<g id="edge21" class="edge">
<title>Platform.Data-&gt;Platform.Data.Doublets</title>
<path fill="none" stroke="#000000" d="M452.2497,-143.8069C448.2887,-125.438 441.4204,-96.3757 432.9562,-72 429.9085,-63.2231 426.0136,-53.8981 422.2523,-45.5113"/>
<polygon fill="#000000" stroke="#000000" points="425.3197,-43.8044 417.9571,-36.1858 418.9617,-46.7329 425.3197,-43.8044"/>
</g>
<!-- Platform.Incrementers -->
<g id="node18" class="node">
<title>Platform.Incrementers</title>
<g id="a_node18"><a xlink:href="https://github.com/linksplatform/Incrementers" xlink:title="Platform.Incrementers">
<polygon fill="#ccd1ff" stroke="#ccd1ff" points="700.5131,-108 559.3993,-108 559.3993,-72 700.5131,-72 700.5131,-108"/>
<text text-anchor="middle" x="629.9562" y="-85.8" font-family="Times,serif" font-size="14.00" fill="#000000">Platform.Incrementers</text>
</a>
</g>
</g>
<!-- Platform.Incrementers&#45;&gt;Platform.Data.Doublets -->
<g id="edge22" class="edge">
<title>Platform.Incrementers-&gt;Platform.Data.Doublets</title>
<path fill="none" stroke="#000000" d="M574.4738,-71.9243C543.9991,-61.9959 506.0289,-49.6255 474.1457,-39.2382"/>
<polygon fill="#000000" stroke="#000000" points="475.0537,-35.853 464.4614,-36.0831 472.8853,-42.5087 475.0537,-35.853"/>
</g>
<!-- Set of deleted:  -->
<g id="node19" class="node">
<title>Set of deleted: </title>
<polygon fill="#ccd1ff" stroke="#ccd1ff" points="1040.3209,-468 939.5915,-468 939.5915,-432 1040.3209,-432 1040.3209,-468"/>
<text text-anchor="middle" x="989.9562" y="-445.8" font-family="Times,serif" font-size="14.00" fill="#000000">Set of deleted: </text>
</g>
<!-- Platform.Disposables -->
<g id="node20" class="node">
<title>Platform.Disposables</title>
<g id="a_node20"><a xlink:href="https://github.com/linksplatform/Disposables" xlink:title="Platform.Disposables">
<polygon fill="#ff0000" stroke="#ff0000" points="842.0973,-396 705.8151,-396 705.8151,-360 842.0973,-360 842.0973,-396"/>
<text text-anchor="middle" x="773.9562" y="-373.8" font-family="Times,serif" font-size="14.00" fill="#000000">Platform.Disposables</text>
</a>
</g>
</g>
<!-- Set of deleted: &#45;&gt;Platform.Disposables -->
<g id="edge23" class="edge">
<title>Set of deleted: -&gt;Platform.Disposables</title>
<path fill="none" stroke="#000000" d="M939.5864,-433.2101C909.3094,-423.1177 870.4866,-410.1768 838.0387,-399.3608"/>
<polygon fill="#000000" stroke="#000000" points="838.7835,-395.9198 828.1898,-396.0779 836.5699,-402.5606 838.7835,-395.9198"/>
</g>
<!-- Platform.Reflection -->
<g id="node21" class="node">
<title>Platform.Reflection</title>
<g id="a_node21"><a xlink:href="https://github.com/linksplatform/Reflection" xlink:title="Platform.Reflection">
<polygon fill="#ff0000" stroke="#ff0000" points="986.2594,-396 859.653,-396 859.653,-360 986.2594,-360 986.2594,-396"/>
<text text-anchor="middle" x="922.9562" y="-373.8" font-family="Times,serif" font-size="14.00" fill="#000000">Platform.Reflection</text>
</a>
</g>
</g>
<!-- Set of deleted: &#45;&gt;Platform.Reflection -->
<g id="edge24" class="edge">
<title>Set of deleted: -&gt;Platform.Reflection</title>
<path fill="none" stroke="#000000" d="M973.0493,-431.8314C965.1749,-423.3694 955.6642,-413.1489 947.0549,-403.8971"/>
<polygon fill="#000000" stroke="#000000" points="949.4654,-401.3497 940.0908,-396.4133 944.3409,-406.1183 949.4654,-401.3497"/>
</g>
<!-- Platform.Unsafe -->
<g id="node22" class="node">
<title>Platform.Unsafe</title>
<g id="a_node22"><a xlink:href="https://github.com/linksplatform/Unsafe" xlink:title="Platform.Unsafe">
<polygon fill="#ff0000" stroke="#ff0000" points="1112.0875,-396 1003.8249,-396 1003.8249,-360 1112.0875,-360 1112.0875,-396"/>
<text text-anchor="middle" x="1057.9562" y="-373.8" font-family="Times,serif" font-size="14.00" fill="#000000">Platform.Unsafe</text>
</a>
</g>
</g>
<!-- Set of deleted: &#45;&gt;Platform.Unsafe -->
<g id="edge25" class="edge">
<title>Set of deleted: -&gt;Platform.Unsafe</title>
<path fill="none" stroke="#000000" d="M1007.1155,-431.8314C1015.1073,-423.3694 1024.76,-413.1489 1033.4978,-403.8971"/>
<polygon fill="#000000" stroke="#000000" points="1036.2442,-406.0866 1040.5659,-396.4133 1031.1551,-401.2802 1036.2442,-406.0866"/>
</g>
<!-- Platform.Singletons -->
<g id="node23" class="node">
<title>Platform.Singletons</title>
<g id="a_node23"><a xlink:href="https://github.com/linksplatform/Singletons" xlink:title="Platform.Singletons">
<polygon fill="#ff0000" stroke="#ff0000" points="1257.5606,-396 1130.3518,-396 1130.3518,-360 1257.5606,-360 1257.5606,-396"/>
<text text-anchor="middle" x="1193.9562" y="-373.8" font-family="Times,serif" font-size="14.00" fill="#000000">Platform.Singletons</text>
</a>
</g>
</g>
<!-- Set of deleted: &#45;&gt;Platform.Singletons -->
<g id="edge26" class="edge">
<title>Set of deleted: -&gt;Platform.Singletons</title>
<path fill="none" stroke="#000000" d="M1040.3832,-432.2022C1068.3686,-422.325 1103.383,-409.967 1132.908,-399.5464"/>
<polygon fill="#000000" stroke="#000000" points="1134.4273,-402.7219 1142.6924,-396.0931 1132.0976,-396.1209 1134.4273,-402.7219"/>
</g>
<!-- Platform.Equality -->
<g id="node24" class="node">
<title>Platform.Equality</title>
<g id="a_node24"><a xlink:href="https://github.com/linksplatform/Equality" xlink:title="Platform.Equality">
<polygon fill="#ccd1ff" stroke="#ccd1ff" points="545.8854,-396 430.027,-396 430.027,-360 545.8854,-360 545.8854,-396"/>
<text text-anchor="middle" x="487.9562" y="-373.8" font-family="Times,serif" font-size="14.00" fill="#000000">Platform.Equality</text>
</a>
</g>
</g>
<!-- Platform.Equality&#45;&gt;Platform.Collections -->
<g id="edge28" class="edge">
<title>Platform.Equality-&gt;Platform.Collections</title>
<path fill="none" stroke="#000000" d="M455.9087,-359.8314C439.5142,-350.5368 419.3776,-339.1208 401.8733,-329.1971"/>
<polygon fill="#000000" stroke="#000000" points="403.4188,-326.05 392.9934,-324.1628 399.9665,-332.1395 403.4188,-326.05"/>
</g>
</g>
</svg>