<?xml version="1.0" encoding="UTF-8" standalone="no"?><!DOCTYPE svg PUBLIC "-//W3C//DTD SVG 1.1//EN" "http://www.w3.org/Graphics/SVG/1.1/DTD/svg11.dtd"><!-- Generated by graphviz version 2.40.1 (20161225.0304)
 --><!-- Title: PlatformDataDoubletsDependencies Pages: 1 --><svg xmlns="http://www.w3.org/2000/svg" xmlns:xlink="http://www.w3.org/1999/xlink" width="681pt" height="620pt" viewBox="0.00 0.00 680.81 620.00">
<g id="graph0" class="graph" transform="scale(1 1) rotate(0) translate(4 616)">
<title>PlatformDataDoubletsDependencies</title>
<polygon fill="#ffffff" stroke="transparent" points="-4,4 -4,-616 676.8107,-616 676.8107,4 -4,4"/>
<!-- Platform.Delegates -->
<g id="node1" class="node">
<title>Platform.Delegates</title>
<g id="a_node1"><a xlink:href="https://github.com/linksplatform/Delegates" xlink:title="Platform.Delegates">
<polygon fill="#ccd1ff" stroke="#ccd1ff" points="127.0303,-612 3.6675,-612 3.6675,-576 127.0303,-576 127.0303,-612"/>
<text text-anchor="middle" x="65.3489" y="-589.8" font-family="Times,serif" font-size="14.00" fill="#000000">Platform.Delegates</text>
</a>
</g>
</g>
<!-- Platform.Exceptions -->
<g id="node2" class="node">
<title>Platform.Exceptions</title>
<g id="a_node2"><a xlink:href="https://github.com/linksplatform/Exceptions" xlink:title="Platform.Exceptions">
<polygon fill="#ccd1ff" stroke="#ccd1ff" points="130.547,-540 .1508,-540 .1508,-504 130.547,-504 130.547,-540"/>
<text text-anchor="middle" x="65.3489" y="-517.8" font-family="Times,serif" font-size="14.00" fill="#000000">Platform.Exceptions</text>
</a>
</g>
</g>
<!-- Platform.Delegates&#45;&gt;Platform.Exceptions -->
<g id="edge1" class="edge">
<title>Platform.Delegates-&gt;Platform.Exceptions</title>
<path fill="none" stroke="#000000" d="M65.3489,-575.8314C65.3489,-568.131 65.3489,-558.9743 65.3489,-550.4166"/>
<polygon fill="#000000" stroke="#000000" points="68.849,-550.4132 65.3489,-540.4133 61.849,-550.4133 68.849,-550.4132"/>
</g>
<!-- Platform.Collections -->
<g id="node5" class="node">
<title>Platform.Collections</title>
<g id="a_node5"><a xlink:href="https://github.com/linksplatform/Collections" xlink:title="Platform.Collections">
<polygon fill="#ccd1ff" stroke="#ccd1ff" points="365.6122,-324 233.0856,-324 233.0856,-288 365.6122,-288 365.6122,-324"/>
<text text-anchor="middle" x="299.3489" y="-301.8" font-family="Times,serif" font-size="14.00" fill="#000000">Platform.Collections</text>
</a>
</g>
</g>
<!-- Platform.Exceptions&#45;&gt;Platform.Collections -->
<g id="edge22" class="edge">
<title>Platform.Exceptions-&gt;Platform.Collections</title>
<path fill="none" stroke="#000000" d="M69.5865,-503.92C78.2755,-470.7324 101.2058,-399.8515 146.3489,-360 167.8835,-340.9896 196.5396,-328.556 223.2265,-320.476"/>
<polygon fill="#000000" stroke="#000000" points="224.3019,-323.8088 232.9526,-317.692 222.3755,-317.0791 224.3019,-323.8088"/>
</g>
<!-- Platform.Ranges -->
<g id="node8" class="node">
<title>Platform.Ranges</title>
<g id="a_node8"><a xlink:href="https://github.com/linksplatform/Ranges" xlink:title="Platform.Ranges">
<polygon fill="#ccd1ff" stroke="#ccd1ff" points="268.0499,-468 158.6479,-468 158.6479,-432 268.0499,-432 268.0499,-468"/>
<text text-anchor="middle" x="213.3489" y="-445.8" font-family="Times,serif" font-size="14.00" fill="#000000">Platform.Ranges</text>
</a>
</g>
</g>
<!-- Platform.Exceptions&#45;&gt;Platform.Ranges -->
<g id="edge11" class="edge">
<title>Platform.Exceptions-&gt;Platform.Ranges</title>
<path fill="none" stroke="#000000" d="M102.6955,-503.8314C122.2258,-494.3302 146.313,-482.6121 167.022,-472.5374"/>
<polygon fill="#000000" stroke="#000000" points="168.8096,-475.56 176.2708,-468.038 165.7473,-469.2654 168.8096,-475.56"/>
</g>
<!-- Platform.Threading -->
<g id="node3" class="node">
<title>Platform.Threading</title>
<g id="a_node3"><a xlink:href="https://github.com/linksplatform/Threading" xlink:title="Platform.Threading">
<polygon fill="#ccd1ff" stroke="#ccd1ff" points="362.3721,-252 236.3257,-252 236.3257,-216 362.3721,-216 362.3721,-252"/>
<text text-anchor="middle" x="299.3489" y="-229.8" font-family="Times,serif" font-size="14.00" fill="#000000">Platform.Threading</text>
</a>
</g>
</g>
<!-- Platform.IO -->
<g id="node4" class="node">
<title>Platform.IO</title>
<g id="a_node4"><a xlink:href="https://github.com/linksplatform/IO" xlink:title="Platform.IO">
<polygon fill="#ccd1ff" stroke="#ccd1ff" points="333.1067,-180 249.5911,-180 249.5911,-144 333.1067,-144 333.1067,-180"/>
<text text-anchor="middle" x="291.3489" y="-157.8" font-family="Times,serif" font-size="14.00" fill="#000000">Platform.IO</text>
</a>
</g>
</g>
<!-- Platform.Threading&#45;&gt;Platform.IO -->
<g id="edge2" class="edge">
<title>Platform.Threading-&gt;Platform.IO</title>
<path fill="none" stroke="#000000" d="M297.3302,-215.8314C296.4746,-208.131 295.4572,-198.9743 294.5063,-190.4166"/>
<polygon fill="#000000" stroke="#000000" points="297.9778,-189.9656 293.3948,-180.4133 291.0206,-190.7386 297.9778,-189.9656"/>
</g>
<!-- Platform.Data -->
<g id="node14" class="node">
<title>Platform.Data</title>
<g id="a_node14"><a xlink:href="https://github.com/linksplatform/Data" xlink:title="Platform.Data">
<polygon fill="#4c5eff" stroke="#4c5eff" points="445.7655,-180 350.9323,-180 350.9323,-144 445.7655,-144 445.7655,-180"/>
<text text-anchor="middle" x="398.3489" y="-157.8" font-family="Times,serif" font-size="14.00" fill="#000000">Platform.Data</text>
</a>
</g>
</g>
<!-- Platform.Threading&#45;&gt;Platform.Data -->
<g id="edge9" class="edge">
<title>Platform.Threading-&gt;Platform.Data</title>
<path fill="none" stroke="#000000" d="M324.3308,-215.8314C336.6417,-206.8779 351.6596,-195.9558 364.9426,-186.2955"/>
<polygon fill="#000000" stroke="#000000" points="367.3462,-188.8752 373.375,-180.1628 363.229,-183.214 367.3462,-188.8752"/>
</g>
<!-- Platform.Memory -->
<g id="node13" class="node">
<title>Platform.Memory</title>
<g id="a_node13"><a xlink:href="https://github.com/linksplatform/Memory" xlink:title="Platform.Memory">
<polygon fill="#4c5eff" stroke="#4c5eff" points="359.5499,-108 243.1479,-108 243.1479,-72 359.5499,-72 359.5499,-108"/>
<text text-anchor="middle" x="301.3489" y="-85.8" font-family="Times,serif" font-size="14.00" fill="#000000">Platform.Memory</text>
</a>
</g>
</g>
<!-- Platform.IO&#45;&gt;Platform.Memory -->
<g id="edge8" class="edge">
<title>Platform.IO-&gt;Platform.Memory</title>
<path fill="none" stroke="#000000" d="M293.8723,-143.8314C294.9418,-136.131 296.2136,-126.9743 297.4021,-118.4166"/>
<polygon fill="#000000" stroke="#000000" points="300.8825,-118.7997 298.7915,-108.4133 293.949,-117.8367 300.8825,-118.7997"/>
</g>
<!-- Platform.Collections&#45;&gt;Platform.Threading -->
<g id="edge3" class="edge">
<title>Platform.Collections-&gt;Platform.Threading</title>
<path fill="none" stroke="#000000" d="M299.3489,-287.8314C299.3489,-280.131 299.3489,-270.9743 299.3489,-262.4166"/>
<polygon fill="#000000" stroke="#000000" points="302.849,-262.4132 299.3489,-252.4133 295.849,-262.4133 302.849,-262.4132"/>
</g>
<!-- Platform.Numbers -->
<g id="node6" class="node">
<title>Platform.Numbers</title>
<g id="a_node6"><a xlink:href="https://github.com/linksplatform/Numbers" xlink:title="Platform.Numbers">
<polygon fill="#ccd1ff" stroke="#ccd1ff" points="583.1563,-180 463.5415,-180 463.5415,-144 583.1563,-144 583.1563,-180"/>
<text text-anchor="middle" x="523.3489" y="-157.8" font-family="Times,serif" font-size="14.00" fill="#000000">Platform.Numbers</text>
</a>
</g>
</g>
<!-- Platform.Collections.Methods -->
<g id="node7" class="node">
<title>Platform.Collections.Methods</title>
<g id="a_node7"><a xlink:href="https://github.com/linksplatform/Collections.Methods" xlink:title="Platform.Collections.Methods">
<polygon fill="#ccd1ff" stroke="#ccd1ff" points="604.6065,-108 420.0913,-108 420.0913,-72 604.6065,-72 604.6065,-108"/>
<text text-anchor="middle" x="512.3489" y="-85.8" font-family="Times,serif" font-size="14.00" fill="#000000">Platform.Collections.Methods</text>
</a>
</g>
</g>
<!-- Platform.Numbers&#45;&gt;Platform.Collections.Methods -->
<g id="edge4" class="edge">
<title>Platform.Numbers-&gt;Platform.Collections.Methods</title>
<path fill="none" stroke="#000000" d="M520.5731,-143.8314C519.3967,-136.131 517.9978,-126.9743 516.6903,-118.4166"/>
<polygon fill="#000000" stroke="#000000" points="520.1322,-117.7699 515.162,-108.4133 513.2125,-118.8272 520.1322,-117.7699"/>
</g>
<!-- Platform.Data.Doublets -->
<g id="node17" class="node">
<title>Platform.Data.Doublets</title>
<g id="a_node17"><a xlink:href="https://github.com/linksplatform/Data.Doublets" xlink:title="Platform.Data.Doublets">
<polygon fill="#4c5eff" stroke="#4c5eff" points="526.8125,-36 377.8853,-36 377.8853,0 526.8125,0 526.8125,-36"/>
<text text-anchor="middle" x="452.3489" y="-13.8" font-family="Times,serif" font-size="14.00" fill="#000000">Platform.Data.Doublets</text>
</a>
</g>
</g>
<!-- Platform.Collections.Methods&#45;&gt;Platform.Data.Doublets -->
<g id="edge15" class="edge">
<title>Platform.Collections.Methods-&gt;Platform.Data.Doublets</title>
<path fill="none" stroke="#000000" d="M497.2084,-71.8314C490.2272,-63.454 481.8098,-53.3531 474.1613,-44.1749"/>
<polygon fill="#000000" stroke="#000000" points="476.784,-41.8548 467.6933,-36.4133 471.4064,-46.3362 476.784,-41.8548"/>
</g>
<!-- Platform.Random -->
<g id="node9" class="node">
<title>Platform.Random</title>
<g id="a_node9"><a xlink:href="https://github.com/linksplatform/Random" xlink:title="Platform.Random">
<polygon fill="#ccd1ff" stroke="#ccd1ff" points="271.2809,-396 155.4169,-396 155.4169,-360 271.2809,-360 271.2809,-396"/>
<text text-anchor="middle" x="213.3489" y="-373.8" font-family="Times,serif" font-size="14.00" fill="#000000">Platform.Random</text>
</a>
</g>
</g>
<!-- Platform.Ranges&#45;&gt;Platform.Random -->
<g id="edge5" class="edge">
<title>Platform.Ranges-&gt;Platform.Random</title>
<path fill="none" stroke="#000000" d="M213.3489,-431.8314C213.3489,-424.131 213.3489,-414.9743 213.3489,-406.4166"/>
<polygon fill="#000000" stroke="#000000" points="216.849,-406.4132 213.3489,-396.4133 209.849,-406.4133 216.849,-406.4132"/>
</g>
<!-- Platform.Random&#45;&gt;Platform.Collections -->
<g id="edge18" class="edge">
<title>Platform.Random-&gt;Platform.Collections</title>
<path fill="none" stroke="#000000" d="M235.0503,-359.8314C245.541,-351.0485 258.2944,-340.3712 269.6683,-330.8489"/>
<polygon fill="#000000" stroke="#000000" points="272.2336,-333.2659 277.6544,-324.1628 267.74,-327.8986 272.2336,-333.2659"/>
</g>
<!-- Platform.Interfaces -->
<g id="node10" class="node">
<title>Platform.Interfaces</title>
<g id="a_node10"><a xlink:href="https://github.com/linksplatform/Interfaces" xlink:title="Platform.Interfaces">
<polygon fill="#ccd1ff" stroke="#ccd1ff" points="585.015,-396 461.6828,-396 461.6828,-360 585.015,-360 585.015,-396"/>
<text text-anchor="middle" x="523.3489" y="-373.8" font-family="Times,serif" font-size="14.00" fill="#000000">Platform.Interfaces</text>
</a>
</g>
</g>
<!-- Platform.Interfaces&#45;&gt;Platform.Collections -->
<g id="edge21" class="edge">
<title>Platform.Interfaces-&gt;Platform.Collections</title>
<path fill="none" stroke="#000000" d="M467.1134,-359.9243C436.225,-349.9959 397.7393,-337.6255 365.4233,-327.2382"/>
<polygon fill="#000000" stroke="#000000" points="366.1989,-323.8112 355.6076,-324.0831 364.0568,-330.4754 366.1989,-323.8112"/>
</g>
<!-- Platform.Timestamps -->
<g id="node11" class="node">
<title>Platform.Timestamps</title>
<g id="a_node11"><a xlink:href="https://github.com/linksplatform/Timestamps" xlink:title="Platform.Timestamps">
<polygon fill="#ccd1ff" stroke="#ccd1ff" points="672.7725,-252 535.9253,-252 535.9253,-216 672.7725,-216 672.7725,-252"/>
<text text-anchor="middle" x="604.3489" y="-229.8" font-family="Times,serif" font-size="14.00" fill="#000000">Platform.Timestamps</text>
</a>
</g>
</g>
<!-- Platform.Interfaces&#45;&gt;Platform.Timestamps -->
<g id="edge6" class="edge">
<title>Platform.Interfaces-&gt;Platform.Timestamps</title>
<path fill="none" stroke="#000000" d="M533.6076,-359.7623C547.6668,-334.7682 573.022,-289.6924 589.2509,-260.8409"/>
<polygon fill="#000000" stroke="#000000" points="592.3213,-262.5213 594.1735,-252.0896 586.2203,-259.0895 592.3213,-262.5213"/>
</g>
<!-- Platform.Setters -->
<g id="node12" class="node">
<title>Platform.Setters</title>
<g id="a_node12"><a xlink:href="https://github.com/linksplatform/Setters" xlink:title="Platform.Setters">
<polygon fill="#ccd1ff" stroke="#ccd1ff" points="519.4381,-324 413.2597,-324 413.2597,-288 519.4381,-288 519.4381,-324"/>
<text text-anchor="middle" x="466.3489" y="-301.8" font-family="Times,serif" font-size="14.00" fill="#000000">Platform.Setters</text>
</a>
</g>
</g>
<!-- Platform.Interfaces&#45;&gt;Platform.Setters -->
<g id="edge7" class="edge">
<title>Platform.Interfaces-&gt;Platform.Setters</title>
<path fill="none" stroke="#000000" d="M508.9654,-359.8314C502.4003,-351.5386 494.4982,-341.557 487.2911,-332.4533"/>
<polygon fill="#000000" stroke="#000000" points="489.8773,-330.0813 480.9261,-324.4133 484.389,-334.4262 489.8773,-330.0813"/>
</g>
<!-- Platform.Timestamps&#45;&gt;Platform.Data.Doublets -->
<g id="edge14" class="edge">
<title>Platform.Timestamps-&gt;Platform.Data.Doublets</title>
<path fill="none" stroke="#000000" d="M612.067,-215.9124C624.5062,-183.6387 644.6021,-115.4467 613.3489,-72 603.5556,-58.3859 570.669,-46.2072 537.1491,-36.8769"/>
<polygon fill="#000000" stroke="#000000" points="537.7923,-33.4253 527.2258,-34.1985 535.9682,-40.1835 537.7923,-33.4253"/>
</g>
<!-- Platform.Setters&#45;&gt;Platform.Data -->
<g id="edge10" class="edge">
<title>Platform.Setters-&gt;Platform.Data</title>
<path fill="none" stroke="#000000" d="M457.7367,-287.7623C445.985,-262.8764 424.8322,-218.0822 411.2011,-189.2165"/>
<polygon fill="#000000" stroke="#000000" points="414.3262,-187.6376 406.8912,-180.0896 407.9965,-190.6267 414.3262,-187.6376"/>
</g>
<!-- Platform.Memory&#45;&gt;Platform.Data.Doublets -->
<g id="edge16" class="edge">
<title>Platform.Memory-&gt;Platform.Data.Doublets</title>
<path fill="none" stroke="#000000" d="M339.4526,-71.8314C359.4684,-62.2874 384.1756,-50.5065 405.3683,-40.4013"/>
<polygon fill="#000000" stroke="#000000" points="406.9992,-43.5013 414.5192,-36.038 403.9864,-37.1828 406.9992,-43.5013"/>
</g>
<!-- Platform.Data&#45;&gt;Platform.Data.Doublets -->
<g id="edge17" class="edge">
<title>Platform.Data-&gt;Platform.Data.Doublets</title>
<path fill="none" stroke="#000000" d="M398.3363,-143.7031C398.9231,-124.9985 401.5346,-95.4461 411.3489,-72 415.5077,-62.0648 421.9313,-52.3332 428.4695,-43.9289"/>
<polygon fill="#000000" stroke="#000000" points="431.3303,-45.96 434.9663,-36.0086 425.9182,-41.5205 431.3303,-45.96"/>
</g>
<!-- Platform.Converters -->
<g id="node15" class="node">
<title>Platform.Converters</title>
<g id="a_node15"><a xlink:href="https://github.com/linksplatform/Converters" xlink:title="Platform.Converters">
<polygon fill="#ccd1ff" stroke="#ccd1ff" points="278.2613,-540 148.4365,-540 148.4365,-504 278.2613,-504 278.2613,-540"/>
<text text-anchor="middle" x="213.3489" y="-517.8" font-family="Times,serif" font-size="14.00" fill="#000000">Platform.Converters</text>
</a>
</g>
</g>
<!-- Platform.Converters&#45;&gt;Platform.Ranges -->
<g id="edge12" class="edge">
<title>Platform.Converters-&gt;Platform.Ranges</title>
<path fill="none" stroke="#000000" d="M213.3489,-503.8314C213.3489,-496.131 213.3489,-486.9743 213.3489,-478.4166"/>
<polygon fill="#000000" stroke="#000000" points="216.849,-478.4132 213.3489,-468.4133 209.849,-478.4133 216.849,-478.4132"/>
</g>
<!-- Platform.Hashing -->
<g id="node16" class="node">
<title>Platform.Hashing</title>
<g id="a_node16"><a xlink:href="https://github.com/linksplatform/Hashing" xlink:title="Platform.Hashing">
<polygon fill="#ccd1ff" stroke="#ccd1ff" points="411.9956,-540 296.7022,-540 296.7022,-504 411.9956,-504 411.9956,-540"/>
<text text-anchor="middle" x="354.3489" y="-517.8" font-family="Times,serif" font-size="14.00" fill="#000000">Platform.Hashing</text>
</a>
</g>
</g>
<!-- Platform.Hashing&#45;&gt;Platform.Collections -->
<g id="edge19" class="edge">
<title>Platform.Hashing-&gt;Platform.Collections</title>
<path fill="none" stroke="#000000" d="M348.6966,-503.7454C341.2382,-479.3328 327.9354,-434.6417 318.3489,-396 313.2299,-375.3662 308.2969,-351.8546 304.7407,-334.0379"/>
<polygon fill="#000000" stroke="#000000" points="308.1329,-333.1488 302.7651,-324.0144 301.265,-334.5025 308.1329,-333.1488"/>
</g>
<!-- Platform.Hashing&#45;&gt;Platform.Ranges -->
<g id="edge13" class="edge">
<title>Platform.Hashing-&gt;Platform.Ranges</title>
<path fill="none" stroke="#000000" d="M318.7686,-503.8314C300.3164,-494.4089 277.5944,-482.8062 257.9759,-472.7883"/>
<polygon fill="#000000" stroke="#000000" points="259.4156,-469.5935 248.9178,-468.1628 256.2321,-475.8278 259.4156,-469.5935"/>
</g>
<!-- Platform.Equality -->
<g id="node18" class="node">
<title>Platform.Equality</title>
<g id="a_node18"><a xlink:href="https://github.com/linksplatform/Equality" xlink:title="Platform.Equality">
<polygon fill="#ccd1ff" stroke="#ccd1ff" points="443.2781,-396 327.4197,-396 327.4197,-360 443.2781,-360 443.2781,-396"/>
<text text-anchor="middle" x="385.3489" y="-373.8" font-family="Times,serif" font-size="14.00" fill="#000000">Platform.Equality</text>
</a>
</g>
</g>
<!-- Platform.Equality&#45;&gt;Platform.Collections -->
<g id="edge20" class="edge">
<title>Platform.Equality-&gt;Platform.Collections</title>
<path fill="none" stroke="#000000" d="M363.6475,-359.8314C353.1568,-351.0485 340.4034,-340.3712 329.0295,-330.8489"/>
<polygon fill="#000000" stroke="#000000" points="330.9578,-327.8986 321.0434,-324.1628 326.4642,-333.2659 330.9578,-327.8986"/>
</g>
</g>
</svg>