<?xml version="1.0" encoding="UTF-8" standalone="no"?>
<!DOCTYPE svg PUBLIC "-//W3C//DTD SVG 1.1//EN"
 "http://www.w3.org/Graphics/SVG/1.1/DTD/svg11.dtd">
<!-- Generated by graphviz version 2.40.1 (20161225.0304)
 -->
<!-- Title: DependenciesForPlatformDataDoublets Pages: 1 -->
<svg width="917pt" height="764pt"
 viewBox="0.00 0.00 916.76 764.00" xmlns="http://www.w3.org/2000/svg" xmlns:xlink="http://www.w3.org/1999/xlink">
<g id="graph0" class="graph" transform="scale(1 1) rotate(0) translate(4 760)">
<title>DependenciesForPlatformDataDoublets</title>
<polygon fill="#ffffff" stroke="transparent" points="-4,4 -4,-760 912.756,-760 912.756,4 -4,4"/>
<!-- Platform.Exceptions -->
<g id="node1" class="node">
<title>Platform.Exceptions</title>
<g id="a_node1"><a xlink:href="https://github.com/linksplatform/Exceptions" xlink:title="Platform.Exceptions">
<polygon fill="#ccd1ff" stroke="#ccd1ff" points="339.4923,-756 209.0961,-756 209.0961,-720 339.4923,-720 339.4923,-756"/>
<text text-anchor="middle" x="274.2942" y="-733.8" font-family="Times,serif" font-size="14.00" fill="#000000">Platform.Exceptions</text>
</a>
</g>
</g>
<!-- Platform.Disposables -->
<g id="node2" class="node">
<title>Platform.Disposables</title>
<g id="a_node2"><a xlink:href="https://github.com/linksplatform/Disposables" xlink:title="Platform.Disposables">
<polygon fill="#ccd1ff" stroke="#ccd1ff" points="272.4353,-684 136.1531,-684 136.1531,-648 272.4353,-648 272.4353,-684"/>
<text text-anchor="middle" x="204.2942" y="-661.8" font-family="Times,serif" font-size="14.00" fill="#000000">Platform.Disposables</text>
</a>
</g>
</g>
<!-- Platform.Exceptions&#45;&gt;Platform.Disposables -->
<g id="edge1" class="edge">
<title>Platform.Exceptions&#45;&gt;Platform.Disposables</title>
<path fill="none" stroke="#000000" d="M256.6302,-719.8314C248.321,-711.2848 238.2678,-700.9443 229.2024,-691.6198"/>
<polygon fill="#000000" stroke="#000000" points="231.6763,-689.1435 222.196,-684.4133 226.6573,-694.023 231.6763,-689.1435"/>
</g>
<!-- Platform.Ranges -->
<g id="node6" class="node">
<title>Platform.Ranges</title>
<g id="a_node6"><a xlink:href="https://github.com/linksplatform/Ranges" xlink:title="Platform.Ranges">
<polygon fill="#ccd1ff" stroke="#ccd1ff" points="399.9952,-684 290.5932,-684 290.5932,-648 399.9952,-648 399.9952,-684"/>
<text text-anchor="middle" x="345.2942" y="-661.8" font-family="Times,serif" font-size="14.00" fill="#000000">Platform.Ranges</text>
</a>
</g>
</g>
<!-- Platform.Exceptions&#45;&gt;Platform.Ranges -->
<g id="edge10" class="edge">
<title>Platform.Exceptions&#45;&gt;Platform.Ranges</title>
<path fill="none" stroke="#000000" d="M292.2105,-719.8314C300.6384,-711.2848 310.8352,-700.9443 320.0302,-691.6198"/>
<polygon fill="#000000" stroke="#000000" points="322.6073,-693.9912 327.1367,-684.4133 317.6231,-689.0761 322.6073,-693.9912"/>
</g>
<!-- Platform.Collections -->
<g id="node4" class="node">
<title>Platform.Collections</title>
<g id="a_node4"><a xlink:href="https://github.com/linksplatform/Collections" xlink:title="Platform.Collections">
<polygon fill="#ccd1ff" stroke="#ccd1ff" points="308.5575,-540 176.0309,-540 176.0309,-504 308.5575,-504 308.5575,-540"/>
<text text-anchor="middle" x="242.2942" y="-517.8" font-family="Times,serif" font-size="14.00" fill="#000000">Platform.Collections</text>
</a>
</g>
</g>
<!-- Platform.Disposables&#45;&gt;Platform.Collections -->
<g id="edge4" class="edge">
<title>Platform.Disposables&#45;&gt;Platform.Collections</title>
<path fill="none" stroke="#000000" d="M209.1069,-647.7623C215.6169,-623.0928 227.2895,-578.8598 234.9124,-549.9731"/>
<polygon fill="#000000" stroke="#000000" points="238.3531,-550.6517 237.5206,-540.0896 231.5848,-548.8656 238.3531,-550.6517"/>
</g>
<!-- System.Numerics.Vectors -->
<g id="node3" class="node">
<title>System.Numerics.Vectors</title>
<g id="a_node3"><a xlink:href="https://www.nuget.org/packages/System.Numerics.Vectors" xlink:title="System.Numerics.Vectors">
<polygon fill="#ccd1ff" stroke="#ccd1ff" points="432.4711,-612 270.1173,-612 270.1173,-576 432.4711,-576 432.4711,-612"/>
<text text-anchor="middle" x="351.2942" y="-589.8" font-family="Times,serif" font-size="14.00" fill="#000000">System.Numerics.Vectors</text>
</a>
</g>
</g>
<!-- System.Numerics.Vectors&#45;&gt;Platform.Collections -->
<g id="edge2" class="edge">
<title>System.Numerics.Vectors&#45;&gt;Platform.Collections</title>
<path fill="none" stroke="#000000" d="M323.7889,-575.8314C309.9762,-566.7074 293.0686,-555.539 278.2413,-545.7449"/>
<polygon fill="#000000" stroke="#000000" points="280.0638,-542.7541 269.7907,-540.1628 276.2056,-548.5949 280.0638,-542.7541"/>
</g>
<!-- Platform.Reflection -->
<g id="node11" class="node">
<title>Platform.Reflection</title>
<g id="a_node11"><a xlink:href="https://github.com/linksplatform/Reflection" xlink:title="Platform.Reflection">
<polygon fill="#ccd1ff" stroke="#ccd1ff" points="568.5974,-468 441.991,-468 441.991,-432 568.5974,-432 568.5974,-468"/>
<text text-anchor="middle" x="505.2942" y="-445.8" font-family="Times,serif" font-size="14.00" fill="#000000">Platform.Reflection</text>
</a>
</g>
</g>
<!-- Platform.Collections&#45;&gt;Platform.Reflection -->
<g id="edge13" class="edge">
<title>Platform.Collections&#45;&gt;Platform.Reflection</title>
<path fill="none" stroke="#000000" d="M308.3207,-503.9243C346.0539,-493.5943 393.4433,-480.6208 432.2832,-469.9878"/>
<polygon fill="#000000" stroke="#000000" points="433.2416,-473.3543 441.9625,-467.338 431.3932,-466.6027 433.2416,-473.3543"/>
</g>
<!-- Platform.Threading -->
<g id="node15" class="node">
<title>Platform.Threading</title>
<g id="a_node15"><a xlink:href="https://github.com/linksplatform/Threading" xlink:title="Platform.Threading">
<polygon fill="#ccd1ff" stroke="#ccd1ff" points="250.3174,-324 124.271,-324 124.271,-288 250.3174,-288 250.3174,-324"/>
<text text-anchor="middle" x="187.2942" y="-301.8" font-family="Times,serif" font-size="14.00" fill="#000000">Platform.Threading</text>
</a>
</g>
</g>
<!-- Platform.Collections&#45;&gt;Platform.Threading -->
<g id="edge16" class="edge">
<title>Platform.Collections&#45;&gt;Platform.Threading</title>
<path fill="none" stroke="#000000" d="M237.6995,-503.9555C228.0948,-466.235 205.836,-378.8188 194.3831,-333.8399"/>
<polygon fill="#000000" stroke="#000000" points="197.7739,-332.9722 191.9145,-324.1451 190.9903,-334.6995 197.7739,-332.9722"/>
</g>
<!-- Platform.Interfaces -->
<g id="node5" class="node">
<title>Platform.Interfaces</title>
<g id="a_node5"><a xlink:href="https://github.com/linksplatform/Interfaces" xlink:title="Platform.Interfaces">
<polygon fill="#ccd1ff" stroke="#ccd1ff" points="804.9603,-612 681.6281,-612 681.6281,-576 804.9603,-576 804.9603,-612"/>
<text text-anchor="middle" x="743.2942" y="-589.8" font-family="Times,serif" font-size="14.00" fill="#000000">Platform.Interfaces</text>
</a>
</g>
</g>
<!-- Platform.Interfaces&#45;&gt;Platform.Collections -->
<g id="edge3" class="edge">
<title>Platform.Interfaces&#45;&gt;Platform.Collections</title>
<path fill="none" stroke="#000000" d="M681.2694,-586.9853C584.6504,-575.9209 401.5035,-554.3647 318.5441,-540.0868"/>
<polygon fill="#000000" stroke="#000000" points="318.9221,-536.5992 308.464,-538.2961 317.6977,-543.4913 318.9221,-536.5992"/>
</g>
<!-- Platform.Timestamps -->
<g id="node18" class="node">
<title>Platform.Timestamps</title>
<g id="a_node18"><a xlink:href="https://github.com/linksplatform/Timestamps" xlink:title="Platform.Timestamps">
<polygon fill="#ccd1ff" stroke="#ccd1ff" points="908.7178,-468 771.8706,-468 771.8706,-432 908.7178,-432 908.7178,-468"/>
<text text-anchor="middle" x="840.2942" y="-445.8" font-family="Times,serif" font-size="14.00" fill="#000000">Platform.Timestamps</text>
</a>
</g>
</g>
<!-- Platform.Interfaces&#45;&gt;Platform.Timestamps -->
<g id="edge20" class="edge">
<title>Platform.Interfaces&#45;&gt;Platform.Timestamps</title>
<path fill="none" stroke="#000000" d="M755.5793,-575.7623C772.4885,-550.66 803.0424,-505.3017 822.4657,-476.4671"/>
<polygon fill="#000000" stroke="#000000" points="825.4248,-478.3389 828.1088,-468.0896 819.6191,-474.4281 825.4248,-478.3389"/>
</g>
<!-- Platform.Ranges&#45;&gt;Platform.Collections -->
<g id="edge5" class="edge">
<title>Platform.Ranges&#45;&gt;Platform.Collections</title>
<path fill="none" stroke="#000000" d="M303.7542,-647.9345C288.2285,-639.2099 271.826,-627.2708 261.2942,-612 248.8066,-593.8933 244.2563,-569.2179 242.7172,-550.2835"/>
<polygon fill="#000000" stroke="#000000" points="246.2035,-549.9437 242.1311,-540.1629 239.2152,-550.3485 246.2035,-549.9437"/>
</g>
<!-- Platform.Random -->
<g id="node7" class="node">
<title>Platform.Random</title>
<g id="a_node7"><a xlink:href="https://github.com/linksplatform/Random" xlink:title="Platform.Random">
<polygon fill="#ccd1ff" stroke="#ccd1ff" points="566.2262,-612 450.3622,-612 450.3622,-576 566.2262,-576 566.2262,-612"/>
<text text-anchor="middle" x="508.2942" y="-589.8" font-family="Times,serif" font-size="14.00" fill="#000000">Platform.Random</text>
</a>
</g>
</g>
<!-- Platform.Ranges&#45;&gt;Platform.Random -->
<g id="edge19" class="edge">
<title>Platform.Ranges&#45;&gt;Platform.Random</title>
<path fill="none" stroke="#000000" d="M386.426,-647.8314C408.2263,-638.2018 435.182,-626.295 458.1946,-616.1299"/>
<polygon fill="#000000" stroke="#000000" points="459.725,-619.2802 467.4582,-612.038 456.8966,-612.877 459.725,-619.2802"/>
</g>
<!-- Platform.Random&#45;&gt;Platform.Collections -->
<g id="edge6" class="edge">
<title>Platform.Random&#45;&gt;Platform.Collections</title>
<path fill="none" stroke="#000000" d="M450.2481,-578.2883C411.6128,-567.8306 360.4485,-553.9816 318.5387,-542.6376"/>
<polygon fill="#000000" stroke="#000000" points="319.2159,-539.195 308.6488,-539.9606 317.387,-545.9519 319.2159,-539.195"/>
</g>
<!-- Platform.Data.Doublets -->
<g id="node24" class="node">
<title>Platform.Data.Doublets</title>
<g id="a_node24"><a xlink:href="https://github.com/linksplatform/Data.Doublets" xlink:title="Platform.Data.Doublets">
<polygon fill="#4c5eff" stroke="#4c5eff" points="720.7578,-36 571.8306,-36 571.8306,0 720.7578,0 720.7578,-36"/>
<text text-anchor="middle" x="646.2942" y="-13.8" font-family="Times,serif" font-size="14.00" fill="#000000">Platform.Data.Doublets</text>
</a>
</g>
</g>
<!-- Platform.Random&#45;&gt;Platform.Data.Doublets -->
<g id="edge27" class="edge">
<title>Platform.Random&#45;&gt;Platform.Data.Doublets</title>
<path fill="none" stroke="#000000" d="M566.274,-586.5804C622.862,-578.1474 703.5277,-562.5609 725.2942,-540 753.6793,-510.579 744.2942,-490.8816 744.2942,-450 744.2942,-450 744.2942,-450 744.2942,-162 744.2942,-118.9187 733.234,-107.1284 708.2942,-72 700.6003,-61.1629 690.3014,-51.0655 680.3103,-42.6034"/>
<polygon fill="#000000" stroke="#000000" points="682.3855,-39.7798 672.4193,-36.1847 677.9683,-45.2101 682.3855,-39.7798"/>
</g>
<!-- System.Runtime.CompilerServices.Unsafe -->
<g id="node8" class="node">
<title>System.Runtime.CompilerServices.Unsafe</title>
<g id="a_node8"><a xlink:href="https://www.nuget.org/packages/System.Runtime.CompilerServices.Unsafe" xlink:title="System.Runtime.CompilerServices.Unsafe">
<polygon fill="#ccd1ff" stroke="#ccd1ff" points="524.187,-324 268.4014,-324 268.4014,-288 524.187,-288 524.187,-324"/>
<text text-anchor="middle" x="396.2942" y="-301.8" font-family="Times,serif" font-size="14.00" fill="#000000">System.Runtime.CompilerServices.Unsafe</text>
</a>
</g>
</g>
<!-- Platform.Unsafe -->
<g id="node9" class="node">
<title>Platform.Unsafe</title>
<g id="a_node9"><a xlink:href="https://github.com/linksplatform/Unsafe" xlink:title="Platform.Unsafe">
<polygon fill="#ccd1ff" stroke="#ccd1ff" points="529.4255,-252 421.1629,-252 421.1629,-216 529.4255,-216 529.4255,-252"/>
<text text-anchor="middle" x="475.2942" y="-229.8" font-family="Times,serif" font-size="14.00" fill="#000000">Platform.Unsafe</text>
</a>
</g>
</g>
<!-- System.Runtime.CompilerServices.Unsafe&#45;&gt;Platform.Unsafe -->
<g id="edge7" class="edge">
<title>System.Runtime.CompilerServices.Unsafe&#45;&gt;Platform.Unsafe</title>
<path fill="none" stroke="#000000" d="M416.2292,-287.8314C425.7725,-279.1337 437.3541,-268.5783 447.7248,-259.1265"/>
<polygon fill="#000000" stroke="#000000" points="450.3322,-261.4857 455.3655,-252.1628 445.617,-256.3121 450.3322,-261.4857"/>
</g>
<!-- Platform.IO -->
<g id="node16" class="node">
<title>Platform.IO</title>
<g id="a_node16"><a xlink:href="https://github.com/linksplatform/IO" xlink:title="Platform.IO">
<polygon fill="#ccd1ff" stroke="#ccd1ff" points="517.052,-180 433.5364,-180 433.5364,-144 517.052,-144 517.052,-180"/>
<text text-anchor="middle" x="475.2942" y="-157.8" font-family="Times,serif" font-size="14.00" fill="#000000">Platform.IO</text>
</a>
</g>
</g>
<!-- Platform.Unsafe&#45;&gt;Platform.IO -->
<g id="edge15" class="edge">
<title>Platform.Unsafe&#45;&gt;Platform.IO</title>
<path fill="none" stroke="#000000" d="M475.2942,-215.8314C475.2942,-208.131 475.2942,-198.9743 475.2942,-190.4166"/>
<polygon fill="#000000" stroke="#000000" points="478.7943,-190.4132 475.2942,-180.4133 471.7943,-190.4133 478.7943,-190.4132"/>
</g>
<!-- Platform.Numbers -->
<g id="node10" class="node">
<title>Platform.Numbers</title>
<g id="a_node10"><a xlink:href="https://github.com/linksplatform/Numbers" xlink:title="Platform.Numbers">
<polygon fill="#ccd1ff" stroke="#ccd1ff" points="662.1016,-324 542.4868,-324 542.4868,-288 662.1016,-288 662.1016,-324"/>
<text text-anchor="middle" x="602.2942" y="-301.8" font-family="Times,serif" font-size="14.00" fill="#000000">Platform.Numbers</text>
</a>
</g>
</g>
<!-- Platform.Numbers&#45;&gt;Platform.Unsafe -->
<g id="edge8" class="edge">
<title>Platform.Numbers&#45;&gt;Platform.Unsafe</title>
<path fill="none" stroke="#000000" d="M570.2467,-287.8314C553.8522,-278.5368 533.7156,-267.1208 516.2113,-257.1971"/>
<polygon fill="#000000" stroke="#000000" points="517.7568,-254.05 507.3314,-252.1628 514.3045,-260.1395 517.7568,-254.05"/>
</g>
<!-- Platform.Collections.Methods -->
<g id="node17" class="node">
<title>Platform.Collections.Methods</title>
<g id="a_node17"><a xlink:href="https://github.com/linksplatform/Collections.Methods" xlink:title="Platform.Collections.Methods">
<polygon fill="#ccd1ff" stroke="#ccd1ff" points="678.5518,-108 494.0366,-108 494.0366,-72 678.5518,-72 678.5518,-108"/>
<text text-anchor="middle" x="586.2942" y="-85.8" font-family="Times,serif" font-size="14.00" fill="#000000">Platform.Collections.Methods</text>
</a>
</g>
</g>
<!-- Platform.Numbers&#45;&gt;Platform.Collections.Methods -->
<g id="edge18" class="edge">
<title>Platform.Numbers&#45;&gt;Platform.Collections.Methods</title>
<path fill="none" stroke="#000000" d="M600.9576,-287.9555C598.1693,-250.3144 591.7154,-163.1867 588.3775,-118.1246"/>
<polygon fill="#000000" stroke="#000000" points="591.8675,-117.8592 587.6383,-108.1451 584.8867,-118.3763 591.8675,-117.8592"/>
</g>
<!-- Platform.Data -->
<g id="node22" class="node">
<title>Platform.Data</title>
<g id="a_node22"><a xlink:href="https://github.com/linksplatform/Data" xlink:title="Platform.Data">
<polygon fill="#4c5eff" stroke="#4c5eff" points="234.7108,-252 139.8776,-252 139.8776,-216 234.7108,-216 234.7108,-252"/>
<text text-anchor="middle" x="187.2942" y="-229.8" font-family="Times,serif" font-size="14.00" fill="#000000">Platform.Data</text>
</a>
</g>
</g>
<!-- Platform.Numbers&#45;&gt;Platform.Data -->
<g id="edge25" class="edge">
<title>Platform.Numbers&#45;&gt;Platform.Data</title>
<path fill="none" stroke="#000000" d="M542.1672,-289.9352C539.1732,-289.2545 536.2032,-288.6048 533.2942,-288 432.6572,-267.0753 314.0328,-250.2361 245.075,-241.2127"/>
<polygon fill="#000000" stroke="#000000" points="245.2245,-237.7028 234.857,-239.8854 244.3227,-244.6445 245.2245,-237.7028"/>
</g>
<!-- Platform.Converters -->
<g id="node12" class="node">
<title>Platform.Converters</title>
<g id="a_node12"><a xlink:href="https://github.com/linksplatform/Converters" xlink:title="Platform.Converters">
<polygon fill="#ccd1ff" stroke="#ccd1ff" points="570.2066,-396 440.3818,-396 440.3818,-360 570.2066,-360 570.2066,-396"/>
<text text-anchor="middle" x="505.2942" y="-373.8" font-family="Times,serif" font-size="14.00" fill="#000000">Platform.Converters</text>
</a>
</g>
</g>
<!-- Platform.Reflection&#45;&gt;Platform.Converters -->
<g id="edge9" class="edge">
<title>Platform.Reflection&#45;&gt;Platform.Converters</title>
<path fill="none" stroke="#000000" d="M505.2942,-431.8314C505.2942,-424.131 505.2942,-414.9743 505.2942,-406.4166"/>
<polygon fill="#000000" stroke="#000000" points="508.7943,-406.4132 505.2942,-396.4133 501.7943,-406.4133 508.7943,-406.4132"/>
</g>
<!-- Platform.Singletons -->
<g id="node19" class="node">
<title>Platform.Singletons</title>
<g id="a_node19"><a xlink:href="https://github.com/linksplatform/Singletons" xlink:title="Platform.Singletons">
<polygon fill="#ccd1ff" stroke="#ccd1ff" points="715.8986,-396 588.6898,-396 588.6898,-360 715.8986,-360 715.8986,-396"/>
<text text-anchor="middle" x="652.2942" y="-373.8" font-family="Times,serif" font-size="14.00" fill="#000000">Platform.Singletons</text>
</a>
</g>
</g>
<!-- Platform.Reflection&#45;&gt;Platform.Singletons -->
<g id="edge21" class="edge">
<title>Platform.Reflection&#45;&gt;Platform.Singletons</title>
<path fill="none" stroke="#000000" d="M542.3885,-431.8314C561.7868,-422.3302 585.7112,-410.6121 606.2804,-400.5374"/>
<polygon fill="#000000" stroke="#000000" points="608.0256,-403.5799 615.4666,-396.038 604.9464,-397.2935 608.0256,-403.5799"/>
</g>
<!-- Platform.Converters&#45;&gt;Platform.Numbers -->
<g id="edge17" class="edge">
<title>Platform.Converters&#45;&gt;Platform.Numbers</title>
<path fill="none" stroke="#000000" d="M529.7714,-359.8314C541.8337,-350.8779 556.5482,-339.9558 569.5628,-330.2955"/>
<polygon fill="#000000" stroke="#000000" points="571.8812,-332.9335 577.8248,-324.1628 567.709,-327.3127 571.8812,-332.9335"/>
</g>
<!-- System.Reflection.Emit -->
<g id="node13" class="node">
<title>System.Reflection.Emit</title>
<g id="a_node13"><a xlink:href="https://www.nuget.org/packages/System.Reflection.Emit" xlink:title="System.Reflection.Emit">
<polygon fill="#ccd1ff" stroke="#ccd1ff" points="716.0546,-540 566.5338,-540 566.5338,-504 716.0546,-504 716.0546,-540"/>
<text text-anchor="middle" x="641.2942" y="-517.8" font-family="Times,serif" font-size="14.00" fill="#000000">System.Reflection.Emit</text>
</a>
</g>
</g>
<!-- System.Reflection.Emit&#45;&gt;Platform.Reflection -->
<g id="edge11" class="edge">
<title>System.Reflection.Emit&#45;&gt;Platform.Reflection</title>
<path fill="none" stroke="#000000" d="M606.9757,-503.8314C589.2583,-494.4516 567.4597,-482.9112 548.5958,-472.9244"/>
<polygon fill="#000000" stroke="#000000" points="550.0773,-469.7485 539.6018,-468.1628 546.802,-475.935 550.0773,-469.7485"/>
</g>
<!-- System.Reflection.Emit.Lightweight -->
<g id="node14" class="node">
<title>System.Reflection.Emit.Lightweight</title>
<g id="a_node14"><a xlink:href="https://www.nuget.org/packages/System.Reflection.Emit.Lightweight" xlink:title="System.Reflection.Emit.Lightweight">
<polygon fill="#ccd1ff" stroke="#ccd1ff" points="547.9908,-540 326.5976,-540 326.5976,-504 547.9908,-504 547.9908,-540"/>
<text text-anchor="middle" x="437.2942" y="-517.8" font-family="Times,serif" font-size="14.00" fill="#000000">System.Reflection.Emit.Lightweight</text>
</a>
</g>
</g>
<!-- System.Reflection.Emit.Lightweight&#45;&gt;Platform.Reflection -->
<g id="edge12" class="edge">
<title>System.Reflection.Emit.Lightweight&#45;&gt;Platform.Reflection</title>
<path fill="none" stroke="#000000" d="M454.4535,-503.8314C462.4453,-495.3694 472.098,-485.1489 480.8358,-475.8971"/>
<polygon fill="#000000" stroke="#000000" points="483.5822,-478.0866 487.9039,-468.4133 478.4931,-473.2802 483.5822,-478.0866"/>
</g>
<!-- Platform.Threading&#45;&gt;Platform.IO -->
<g id="edge14" class="edge">
<title>Platform.Threading&#45;&gt;Platform.IO</title>
<path fill="none" stroke="#000000" d="M223.478,-287.9081C275.8559,-261.7192 372.7635,-213.2654 429.8778,-184.7082"/>
<polygon fill="#000000" stroke="#000000" points="431.6529,-187.7338 439.0319,-180.1311 428.5224,-181.4728 431.6529,-187.7338"/>
</g>
<!-- Platform.Threading&#45;&gt;Platform.Data -->
<g id="edge24" class="edge">
<title>Platform.Threading&#45;&gt;Platform.Data</title>
<path fill="none" stroke="#000000" d="M187.2942,-287.8314C187.2942,-280.131 187.2942,-270.9743 187.2942,-262.4166"/>
<polygon fill="#000000" stroke="#000000" points="190.7943,-262.4132 187.2942,-252.4133 183.7943,-262.4133 190.7943,-262.4132"/>
</g>
<!-- Platform.Memory -->
<g id="node21" class="node">
<title>Platform.Memory</title>
<g id="a_node21"><a xlink:href="https://github.com/linksplatform/Memory" xlink:title="Platform.Memory">
<polygon fill="#4c5eff" stroke="#4c5eff" points="475.4952,-108 359.0932,-108 359.0932,-72 475.4952,-72 475.4952,-108"/>
<text text-anchor="middle" x="417.2942" y="-85.8" font-family="Times,serif" font-size="14.00" fill="#000000">Platform.Memory</text>
</a>
</g>
</g>
<!-- Platform.IO&#45;&gt;Platform.Memory -->
<g id="edge23" class="edge">
<title>Platform.IO&#45;&gt;Platform.Memory</title>
<path fill="none" stroke="#000000" d="M460.6584,-143.8314C453.9781,-135.5386 445.9374,-125.557 438.6038,-116.4533"/>
<polygon fill="#000000" stroke="#000000" points="441.1261,-114.0052 432.1271,-108.4133 435.6748,-118.3965 441.1261,-114.0052"/>
</g>
<!-- Platform.Collections.Methods&#45;&gt;Platform.Data.Doublets -->
<g id="edge29" class="edge">
<title>Platform.Collections.Methods&#45;&gt;Platform.Data.Doublets</title>
<path fill="none" stroke="#000000" d="M601.4347,-71.8314C608.4159,-63.454 616.8333,-53.3531 624.4818,-44.1749"/>
<polygon fill="#000000" stroke="#000000" points="627.2367,-46.3362 630.9498,-36.4133 621.8591,-41.8548 627.2367,-46.3362"/>
</g>
<!-- Platform.Timestamps&#45;&gt;Platform.Data.Doublets -->
<g id="edge28" class="edge">
<title>Platform.Timestamps&#45;&gt;Platform.Data.Doublets</title>
<path fill="none" stroke="#000000" d="M834.144,-431.5984C825.6314,-404.4466 811.2942,-351.9035 811.2942,-306 811.2942,-306 811.2942,-306 811.2942,-162 811.2942,-115.5795 792.4512,-103.435 758.2942,-72 744.1552,-58.9877 726.3073,-48.4957 709.0394,-40.3444"/>
<polygon fill="#000000" stroke="#000000" points="710.0876,-36.9777 699.533,-36.0556 707.2089,-43.3584 710.0876,-36.9777"/>
</g>
<!-- Platform.Singletons&#45;&gt;Platform.Data.Doublets -->
<g id="edge30" class="edge">
<title>Platform.Singletons&#45;&gt;Platform.Data.Doublets</title>
<path fill="none" stroke="#000000" d="M664.0114,-359.7256C679.8932,-333.1531 706.2942,-281.793 706.2942,-234 706.2942,-234 706.2942,-234 706.2942,-162 706.2942,-121.1184 704.2893,-109.1817 687.2942,-72 682.8167,-62.2043 676.3022,-52.5125 669.7788,-44.1017"/>
<polygon fill="#000000" stroke="#000000" points="672.3498,-41.7156 663.3275,-36.1615 666.917,-46.1297 672.3498,-41.7156"/>
</g>
<!-- System.IO.MemoryMappedFiles -->
<g id="node20" class="node">
<title>System.IO.MemoryMappedFiles</title>
<g id="a_node20"><a xlink:href="https://www.nuget.org/packages/System.IO.MemoryMappedFiles" xlink:title="System.IO.MemoryMappedFiles">
<polygon fill="#ccd1ff" stroke="#ccd1ff" points="415.5918,-180 214.9966,-180 214.9966,-144 415.5918,-144 415.5918,-180"/>
<text text-anchor="middle" x="315.2942" y="-157.8" font-family="Times,serif" font-size="14.00" fill="#000000">System.IO.MemoryMappedFiles</text>
</a>
</g>
</g>
<!-- System.IO.MemoryMappedFiles&#45;&gt;Platform.Memory -->
<g id="edge22" class="edge">
<title>System.IO.MemoryMappedFiles&#45;&gt;Platform.Memory</title>
<path fill="none" stroke="#000000" d="M341.0331,-143.8314C353.8379,-134.7927 369.4851,-123.7476 383.2661,-114.0198"/>
<polygon fill="#000000" stroke="#000000" points="385.4122,-116.7891 391.5635,-108.1628 381.3754,-111.0703 385.4122,-116.7891"/>
</g>
<!-- Platform.Memory&#45;&gt;Platform.Data.Doublets -->
<g id="edge31" class="edge">
<title>Platform.Memory&#45;&gt;Platform.Data.Doublets</title>
<path fill="none" stroke="#000000" d="M474.785,-71.9243C506.499,-61.9531 546.0469,-49.5188 579.1717,-39.104"/>
<polygon fill="#000000" stroke="#000000" points="580.29,-42.4214 588.7798,-36.0831 578.1904,-35.7437 580.29,-42.4214"/>
</g>
<!-- Platform.Data&#45;&gt;Platform.Data.Doublets -->
<g id="edge32" class="edge">
<title>Platform.Data&#45;&gt;Platform.Data.Doublets</title>
<path fill="none" stroke="#000000" d="M186.6847,-215.8737C186.9513,-196.2141 190.1888,-164.8546 206.2942,-144 250.0296,-87.3677 282.4187,-94.6476 350.2942,-72 419.5027,-48.9076 501.3014,-34.9391 561.3513,-27.0126"/>
<polygon fill="#000000" stroke="#000000" points="562.0782,-30.4479 571.5481,-25.697 561.1824,-23.5054 562.0782,-30.4479"/>
</g>
<!-- Platform.Setters -->
<g id="node23" class="node">
<title>Platform.Setters</title>
<g id="a_node23"><a xlink:href="https://github.com/linksplatform/Setters" xlink:title="Platform.Setters">
<polygon fill="#ccd1ff" stroke="#ccd1ff" points="106.3834,-324 .205,-324 .205,-288 106.3834,-288 106.3834,-324"/>
<text text-anchor="middle" x="53.2942" y="-301.8" font-family="Times,serif" font-size="14.00" fill="#000000">Platform.Setters</text>
</a>
</g>
</g>
<!-- Platform.Setters&#45;&gt;Platform.Data -->
<g id="edge26" class="edge">
<title>Platform.Setters&#45;&gt;Platform.Data</title>
<path fill="none" stroke="#000000" d="M87.1081,-287.8314C104.5649,-278.4516 126.0429,-266.9112 144.6294,-256.9244"/>
<polygon fill="#000000" stroke="#000000" points="146.3388,-259.9792 153.4912,-252.1628 143.0256,-253.8129 146.3388,-259.9792"/>
</g>
</g>
</svg>