<svg xmlns="http://www.w3.org/2000/svg" xmlns:xlink="http://www.w3.org/1999/xlink" width="917pt" height="764pt" viewBox="0 0 916.76 764"><g id="graph0" class="graph" transform="scale(1 1) rotate(0) translate(4 760)"><title>DependenciesForPlatformDataDoublets</title><polygon fill="#fff" stroke="transparent" points="-4 4 -4 -760 912.756 -760 912.756 4 -4 4"/><g id="node1" class="node"><title>Platform.Exceptions</title><g id="a_node1"><a xlink:href="https://github.com/linksplatform/Exceptions" xlink:title="Platform.Exceptions"><polygon fill="#ccd1ff" stroke="#ccd1ff" points="339.492 -756 209.096 -756 209.096 -720 339.492 -720 339.492 -756"/><text x="274.294" y="-733.8" fill="#000" font-family="Times,serif" font-size="14" text-anchor="middle">Platform.Exceptions</text></a></g></g><g id="node2" class="node"><title>Platform.Disposables</title><g id="a_node2"><a xlink:href="https://github.com/linksplatform/Disposables" xlink:title="Platform.Disposables"><polygon fill="#ccd1ff" stroke="#ccd1ff" points="272.435 -684 136.153 -684 136.153 -648 272.435 -648 272.435 -684"/><text x="204.294" y="-661.8" fill="#000" font-family="Times,serif" font-size="14" text-anchor="middle">Platform.Disposables</text></a></g></g><g id="edge1" class="edge"><title>Platform.Exceptions-&gt;Platform.Disposables</title><path fill="none" stroke="#000" d="M256.6302,-719.8314C248.321,-711.2848 238.2678,-700.9443 229.2024,-691.6198"/><polygon fill="#000" stroke="#000" points="231.676 -689.144 222.196 -684.413 226.657 -694.023 231.676 -689.144"/></g><g id="node6" class="node"><title>Platform.Ranges</title><g id="a_node6"><a xlink:href="https://github.com/linksplatform/Ranges" xlink:title="Platform.Ranges"><polygon fill="#ccd1ff" stroke="#ccd1ff" points="399.995 -684 290.593 -684 290.593 -648 399.995 -648 399.995 -684"/><text x="345.294" y="-661.8" fill="#000" font-family="Times,serif" font-size="14" text-anchor="middle">Platform.Ranges</text></a></g></g><g id="edge10" class="edge"><title>Platform.Exceptions-&gt;Platform.Ranges</title><path fill="none" stroke="#000" d="M292.2105,-719.8314C300.6384,-711.2848 310.8352,-700.9443 320.0302,-691.6198"/><polygon fill="#000" stroke="#000" points="322.607 -693.991 327.137 -684.413 317.623 -689.076 322.607 -693.991"/></g><g id="node4" class="node"><title>Platform.Collections</title><g id="a_node4"><a xlink:href="https://github.com/linksplatform/Collections" xlink:title="Platform.Collections"><polygon fill="#ccd1ff" stroke="#ccd1ff" points="308.558 -540 176.031 -540 176.031 -504 308.558 -504 308.558 -540"/><text x="242.294" y="-517.8" fill="#000" font-family="Times,serif" font-size="14" text-anchor="middle">Platform.Collections</text></a></g></g><g id="edge4" class="edge"><title>Platform.Disposables-&gt;Platform.Collections</title><path fill="none" stroke="#000" d="M209.1069,-647.7623C215.6169,-623.0928 227.2895,-578.8598 234.9124,-549.9731"/><polygon fill="#000" stroke="#000" points="238.353 -550.652 237.521 -540.09 231.585 -548.866 238.353 -550.652"/></g><g id="node3" class="node"><title>System.Numerics.Vectors</title><g id="a_node3"><a xlink:href="https://www.nuget.org/packages/System.Numerics.Vectors" xlink:title="System.Numerics.Vectors"><polygon fill="#ccd1ff" stroke="#ccd1ff" points="432.471 -612 270.117 -612 270.117 -576 432.471 -576 432.471 -612"/><text x="351.294" y="-589.8" fill="#000" font-family="Times,serif" font-size="14" text-anchor="middle">System.Numerics.Vectors</text></a></g></g><g id="edge2" class="edge"><title>System.Numerics.Vectors-&gt;Platform.Collections</title><path fill="none" stroke="#000" d="M323.7889,-575.8314C309.9762,-566.7074 293.0686,-555.539 278.2413,-545.7449"/><polygon fill="#000" stroke="#000" points="280.064 -542.754 269.791 -540.163 276.206 -548.595 280.064 -542.754"/></g><g id="node11" class="node"><title>Platform.Reflection</title><g id="a_node11"><a xlink:href="https://github.com/linksplatform/Reflection" xlink:title="Platform.Reflection"><polygon fill="#ccd1ff" stroke="#ccd1ff" points="568.597 -468 441.991 -468 441.991 -432 568.597 -432 568.597 -468"/><text x="505.294" y="-445.8" fill="#000" font-family="Times,serif" font-size="14" text-anchor="middle">Platform.Reflection</text></a></g></g><g id="edge13" class="edge"><title>Platform.Collections-&gt;Platform.Reflection</title><path fill="none" stroke="#000" d="M308.3207,-503.9243C346.0539,-493.5943 393.4433,-480.6208 432.2832,-469.9878"/><polygon fill="#000" stroke="#000" points="433.242 -473.354 441.962 -467.338 431.393 -466.603 433.242 -473.354"/></g><g id="node15" class="node"><title>Platform.Threading</title><g id="a_node15"><a xlink:href="https://github.com/linksplatform/Threading" xlink:title="Platform.Threading"><polygon fill="#ccd1ff" stroke="#ccd1ff" points="250.317 -324 124.271 -324 124.271 -288 250.317 -288 250.317 -324"/><text x="187.294" y="-301.8" fill="#000" font-family="Times,serif" font-size="14" text-anchor="middle">Platform.Threading</text></a></g></g><g id="edge16" class="edge"><title>Platform.Collections-&gt;Platform.Threading</title><path fill="none" stroke="#000" d="M237.6995,-503.9555C228.0948,-466.235 205.836,-378.8188 194.3831,-333.8399"/><polygon fill="#000" stroke="#000" points="197.774 -332.972 191.915 -324.145 190.99 -334.7 197.774 -332.972"/></g><g id="node5" class="node"><title>Platform.Interfaces</title><g id="a_node5"><a xlink:href="https://github.com/linksplatform/Interfaces" xlink:title="Platform.Interfaces"><polygon fill="#ccd1ff" stroke="#ccd1ff" points="804.96 -612 681.628 -612 681.628 -576 804.96 -576 804.96 -612"/><text x="743.294" y="-589.8" fill="#000" font-family="Times,serif" font-size="14" text-anchor="middle">Platform.Interfaces</text></a></g></g><g id="edge3" class="edge"><title>Platform.Interfaces-&gt;Platform.Collections</title><path fill="none" stroke="#000" d="M681.2694,-586.9853C584.6504,-575.9209 401.5035,-554.3647 318.5441,-540.0868"/><polygon fill="#000" stroke="#000" points="318.922 -536.599 308.464 -538.296 317.698 -543.491 318.922 -536.599"/></g><g id="node18" class="node"><title>Platform.Timestamps</title><g id="a_node18"><a xlink:href="https://github.com/linksplatform/Timestamps" xlink:title="Platform.Timestamps"><polygon fill="#ccd1ff" stroke="#ccd1ff" points="908.718 -468 771.871 -468 771.871 -432 908.718 -432 908.718 -468"/><text x="840.294" y="-445.8" fill="#000" font-family="Times,serif" font-size="14" text-anchor="middle">Platform.Timestamps</text></a></g></g><g id="edge20" class="edge"><title>Platform.Interfaces-&gt;Platform.Timestamps</title><path fill="none" stroke="#000" d="M755.5793,-575.7623C772.4885,-550.66 803.0424,-505.3017 822.4657,-476.4671"/><polygon fill="#000" stroke="#000" points="825.425 -478.339 828.109 -468.09 819.619 -474.428 825.425 -478.339"/></g><g id="edge5" class="edge"><title>Platform.Ranges-&gt;Platform.Collections</title><path fill="none" stroke="#000" d="M303.7542,-647.9345C288.2285,-639.2099 271.826,-627.2708 261.2942,-612 248.8066,-593.8933 244.2563,-569.2179 242.7172,-550.2835"/><polygon fill="#000" stroke="#000" points="246.203 -549.944 242.131 -540.163 239.215 -550.348 246.203 -549.944"/></g><g id="node7" class="node"><title>Platform.Random</title><g id="a_node7"><a xlink:href="https://github.com/linksplatform/Random" xlink:title="Platform.Random"><polygon fill="#ccd1ff" stroke="#ccd1ff" points="566.226 -612 450.362 -612 450.362 -576 566.226 -576 566.226 -612"/><text x="508.294" y="-589.8" fill="#000" font-family="Times,serif" font-size="14" text-anchor="middle">Platform.Random</text></a></g></g><g id="edge19" class="edge"><title>Platform.Ranges-&gt;Platform.Random</title><path fill="none" stroke="#000" d="M386.426,-647.8314C408.2263,-638.2018 435.182,-626.295 458.1946,-616.1299"/><polygon fill="#000" stroke="#000" points="459.725 -619.28 467.458 -612.038 456.897 -612.877 459.725 -619.28"/></g><g id="edge6" class="edge"><title>Platform.Random-&gt;Platform.Collections</title><path fill="none" stroke="#000" d="M450.2481,-578.2883C411.6128,-567.8306 360.4485,-553.9816 318.5387,-542.6376"/><polygon fill="#000" stroke="#000" points="319.216 -539.195 308.649 -539.961 317.387 -545.952 319.216 -539.195"/></g><g id="node24" class="node"><title>Platform.Data.Doublets</title><g id="a_node24"><a xlink:href="https://github.com/linksplatform/Data.Doublets" xlink:title="Platform.Data.Doublets"><polygon fill="#4c5eff" stroke="#4c5eff" points="720.758 -36 571.831 -36 571.831 0 720.758 0 720.758 -36"/><text x="646.294" y="-13.8" fill="#000" font-family="Times,serif" font-size="14" text-anchor="middle">Platform.Data.Doublets</text></a></g></g><g id="edge27" class="edge"><title>Platform.Random-&gt;Platform.Data.Doublets</title><path fill="none" stroke="#000" d="M566.274,-586.5804C622.862,-578.1474 703.5277,-562.5609 725.2942,-540 753.6793,-510.579 744.2942,-490.8816 744.2942,-450 744.2942,-450 744.2942,-450 744.2942,-162 744.2942,-118.9187 733.234,-107.1284 708.2942,-72 700.6003,-61.1629 690.3014,-51.0655 680.3103,-42.6034"/><polygon fill="#000" stroke="#000" points="682.385 -39.78 672.419 -36.185 677.968 -45.21 682.385 -39.78"/></g><g id="node8" class="node"><title>System.Runtime.CompilerServices.Unsafe</title><g id="a_node8"><a xlink:href="https://www.nuget.org/packages/System.Runtime.CompilerServices.Unsafe" xlink:title="System.Runtime.CompilerServices.Unsafe"><polygon fill="#ccd1ff" stroke="#ccd1ff" points="524.187 -324 268.401 -324 268.401 -288 524.187 -288 524.187 -324"/><text x="396.294" y="-301.8" fill="#000" font-family="Times,serif" font-size="14" text-anchor="middle">System.Runtime.CompilerServices.Unsafe</text></a></g></g><g id="node9" class="node"><title>Platform.Unsafe</title><g id="a_node9"><a xlink:href="https://github.com/linksplatform/Unsafe" xlink:title="Platform.Unsafe"><polygon fill="#ccd1ff" stroke="#ccd1ff" points="529.426 -252 421.163 -252 421.163 -216 529.426 -216 529.426 -252"/><text x="475.294" y="-229.8" fill="#000" font-family="Times,serif" font-size="14" text-anchor="middle">Platform.Unsafe</text></a></g></g><g id="edge7" class="edge"><title>System.Runtime.CompilerServices.Unsafe-&gt;Platform.Unsafe</title><path fill="none" stroke="#000" d="M416.2292,-287.8314C425.7725,-279.1337 437.3541,-268.5783 447.7248,-259.1265"/><polygon fill="#000" stroke="#000" points="450.332 -261.486 455.365 -252.163 445.617 -256.312 450.332 -261.486"/></g><g id="node16" class="node"><title>Platform.IO</title><g id="a_node16"><a xlink:href="https://github.com/linksplatform/IO" xlink:title="Platform.IO"><polygon fill="#ccd1ff" stroke="#ccd1ff" points="517.052 -180 433.536 -180 433.536 -144 517.052 -144 517.052 -180"/><text x="475.294" y="-157.8" fill="#000" font-family="Times,serif" font-size="14" text-anchor="middle">Platform.IO</text></a></g></g><g id="edge15" class="edge"><title>Platform.Unsafe-&gt;Platform.IO</title><path fill="none" stroke="#000" d="M475.2942,-215.8314C475.2942,-208.131 475.2942,-198.9743 475.2942,-190.4166"/><polygon fill="#000" stroke="#000" points="478.794 -190.413 475.294 -180.413 471.794 -190.413 478.794 -190.413"/></g><g id="node10" class="node"><title>Platform.Numbers</title><g id="a_node10"><a xlink:href="https://github.com/linksplatform/Numbers" xlink:title="Platform.Numbers"><polygon fill="#ccd1ff" stroke="#ccd1ff" points="662.102 -324 542.487 -324 542.487 -288 662.102 -288 662.102 -324"/><text x="602.294" y="-301.8" fill="#000" font-family="Times,serif" font-size="14" text-anchor="middle">Platform.Numbers</text></a></g></g><g id="edge8" class="edge"><title>Platform.Numbers-&gt;Platform.Unsafe</title><path fill="none" stroke="#000" d="M570.2467,-287.8314C553.8522,-278.5368 533.7156,-267.1208 516.2113,-257.1971"/><polygon fill="#000" stroke="#000" points="517.757 -254.05 507.331 -252.163 514.304 -260.139 517.757 -254.05"/></g><g id="node17" class="node"><title>Platform.Collections.Methods</title><g id="a_node17"><a xlink:href="https://github.com/linksplatform/Collections.Methods" xlink:title="Platform.Collections.Methods"><polygon fill="#ccd1ff" stroke="#ccd1ff" points="678.552 -108 494.037 -108 494.037 -72 678.552 -72 678.552 -108"/><text x="586.294" y="-85.8" fill="#000" font-family="Times,serif" font-size="14" text-anchor="middle">Platform.Collections.Methods</text></a></g></g><g id="edge18" class="edge"><title>Platform.Numbers-&gt;Platform.Collections.Methods</title><path fill="none" stroke="#000" d="M600.9576,-287.9555C598.1693,-250.3144 591.7154,-163.1867 588.3775,-118.1246"/><polygon fill="#000" stroke="#000" points="591.867 -117.859 587.638 -108.145 584.887 -118.376 591.867 -117.859"/></g><g id="node22" class="node"><title>Platform.Data</title><g id="a_node22"><a xlink:href="https://github.com/linksplatform/Data" xlink:title="Platform.Data"><polygon fill="#4c5eff" stroke="#4c5eff" points="234.711 -252 139.878 -252 139.878 -216 234.711 -216 234.711 -252"/><text x="187.294" y="-229.8" fill="#000" font-family="Times,serif" font-size="14" text-anchor="middle">Platform.Data</text></a></g></g><g id="edge25" class="edge"><title>Platform.Numbers-&gt;Platform.Data</title><path fill="none" stroke="#000" d="M542.1672,-289.9352C539.1732,-289.2545 536.2032,-288.6048 533.2942,-288 432.6572,-267.0753 314.0328,-250.2361 245.075,-241.2127"/><polygon fill="#000" stroke="#000" points="245.225 -237.703 234.857 -239.885 244.323 -244.644 245.225 -237.703"/></g><g id="node12" class="node"><title>Platform.Converters</title><g id="a_node12"><a xlink:href="https://github.com/linksplatform/Converters" xlink:title="Platform.Converters"><polygon fill="#ccd1ff" stroke="#ccd1ff" points="570.207 -396 440.382 -396 440.382 -360 570.207 -360 570.207 -396"/><text x="505.294" y="-373.8" fill="#000" font-family="Times,serif" font-size="14" text-anchor="middle">Platform.Converters</text></a></g></g><g id="edge9" class="edge"><title>Platform.Reflection-&gt;Platform.Converters</title><path fill="none" stroke="#000" d="M505.2942,-431.8314C505.2942,-424.131 505.2942,-414.9743 505.2942,-406.4166"/><polygon fill="#000" stroke="#000" points="508.794 -406.413 505.294 -396.413 501.794 -406.413 508.794 -406.413"/></g><g id="node19" class="node"><title>Platform.Singletons</title><g id="a_node19"><a xlink:href="https://github.com/linksplatform/Singletons" xlink:title="Platform.Singletons"><polygon fill="#ccd1ff" stroke="#ccd1ff" points="715.899 -396 588.69 -396 588.69 -360 715.899 -360 715.899 -396"/><text x="652.294" y="-373.8" fill="#000" font-family="Times,serif" font-size="14" text-anchor="middle">Platform.Singletons</text></a></g></g><g id="edge21" class="edge"><title>Platform.Reflection-&gt;Platform.Singletons</title><path fill="none" stroke="#000" d="M542.3885,-431.8314C561.7868,-422.3302 585.7112,-410.6121 606.2804,-400.5374"/><polygon fill="#000" stroke="#000" points="608.026 -403.58 615.467 -396.038 604.946 -397.293 608.026 -403.58"/></g><g id="edge17" class="edge"><title>Platform.Converters-&gt;Platform.Numbers</title><path fill="none" stroke="#000" d="M529.7714,-359.8314C541.8337,-350.8779 556.5482,-339.9558 569.5628,-330.2955"/><polygon fill="#000" stroke="#000" points="571.881 -332.933 577.825 -324.163 567.709 -327.313 571.881 -332.933"/></g><g id="node13" class="node"><title>System.Reflection.Emit</title><g id="a_node13"><a xlink:href="https://www.nuget.org/packages/System.Reflection.Emit" xlink:title="System.Reflection.Emit"><polygon fill="#ccd1ff" stroke="#ccd1ff" points="716.055 -540 566.534 -540 566.534 -504 716.055 -504 716.055 -540"/><text x="641.294" y="-517.8" fill="#000" font-family="Times,serif" font-size="14" text-anchor="middle">System.Reflection.Emit</text></a></g></g><g id="edge11" class="edge"><title>System.Reflection.Emit-&gt;Platform.Reflection</title><path fill="none" stroke="#000" d="M606.9757,-503.8314C589.2583,-494.4516 567.4597,-482.9112 548.5958,-472.9244"/><polygon fill="#000" stroke="#000" points="550.077 -469.748 539.602 -468.163 546.802 -475.935 550.077 -469.748"/></g><g id="node14" class="node"><title>System.Reflection.Emit.Lightweight</title><g id="a_node14"><a xlink:href="https://www.nuget.org/packages/System.Reflection.Emit.Lightweight" xlink:title="System.Reflection.Emit.Lightweight"><polygon fill="#ccd1ff" stroke="#ccd1ff" points="547.991 -540 326.598 -540 326.598 -504 547.991 -504 547.991 -540"/><text x="437.294" y="-517.8" fill="#000" font-family="Times,serif" font-size="14" text-anchor="middle">System.Reflection.Emit.Lightweight</text></a></g></g><g id="edge12" class="edge"><title>System.Reflection.Emit.Lightweight-&gt;Platform.Reflection</title><path fill="none" stroke="#000" d="M454.4535,-503.8314C462.4453,-495.3694 472.098,-485.1489 480.8358,-475.8971"/><polygon fill="#000" stroke="#000" points="483.582 -478.087 487.904 -468.413 478.493 -473.28 483.582 -478.087"/></g><g id="edge14" class="edge"><title>Platform.Threading-&gt;Platform.IO</title><path fill="none" stroke="#000" d="M223.478,-287.9081C275.8559,-261.7192 372.7635,-213.2654 429.8778,-184.7082"/><polygon fill="#000" stroke="#000" points="431.653 -187.734 439.032 -180.131 428.522 -181.473 431.653 -187.734"/></g><g id="edge24" class="edge"><title>Platform.Threading-&gt;Platform.Data</title><path fill="none" stroke="#000" d="M187.2942,-287.8314C187.2942,-280.131 187.2942,-270.9743 187.2942,-262.4166"/><polygon fill="#000" stroke="#000" points="190.794 -262.413 187.294 -252.413 183.794 -262.413 190.794 -262.413"/></g><g id="node21" class="node"><title>Platform.Memory</title><g id="a_node21"><a xlink:href="https://github.com/linksplatform/Memory" xlink:title="Platform.Memory"><polygon fill="#4c5eff" stroke="#4c5eff" points="475.495 -108 359.093 -108 359.093 -72 475.495 -72 475.495 -108"/><text x="417.294" y="-85.8" fill="#000" font-family="Times,serif" font-size="14" text-anchor="middle">Platform.Memory</text></a></g></g><g id="edge23" class="edge"><title>Platform.IO-&gt;Platform.Memory</title><path fill="none" stroke="#000" d="M460.6584,-143.8314C453.9781,-135.5386 445.9374,-125.557 438.6038,-116.4533"/><polygon fill="#000" stroke="#000" points="441.126 -114.005 432.127 -108.413 435.675 -118.397 441.126 -114.005"/></g><g id="edge29" class="edge"><title>Platform.Collections.Methods-&gt;Platform.Data.Doublets</title><path fill="none" stroke="#000" d="M601.4347,-71.8314C608.4159,-63.454 616.8333,-53.3531 624.4818,-44.1749"/><polygon fill="#000" stroke="#000" points="627.237 -46.336 630.95 -36.413 621.859 -41.855 627.237 -46.336"/></g><g id="edge28" class="edge"><title>Platform.Timestamps-&gt;Platform.Data.Doublets</title><path fill="none" stroke="#000" d="M834.144,-431.5984C825.6314,-404.4466 811.2942,-351.9035 811.2942,-306 811.2942,-306 811.2942,-306 811.2942,-162 811.2942,-115.5795 792.4512,-103.435 758.2942,-72 744.1552,-58.9877 726.3073,-48.4957 709.0394,-40.3444"/><polygon fill="#000" stroke="#000" points="710.088 -36.978 699.533 -36.056 707.209 -43.358 710.088 -36.978"/></g><g id="edge30" class="edge"><title>Platform.Singletons-&gt;Platform.Data.Doublets</title><path fill="none" stroke="#000" d="M664.0114,-359.7256C679.8932,-333.1531 706.2942,-281.793 706.2942,-234 706.2942,-234 706.2942,-234 706.2942,-162 706.2942,-121.1184 704.2893,-109.1817 687.2942,-72 682.8167,-62.2043 676.3022,-52.5125 669.7788,-44.1017"/><polygon fill="#000" stroke="#000" points="672.35 -41.716 663.327 -36.161 666.917 -46.13 672.35 -41.716"/></g><g id="node20" class="node"><title>System.IO.MemoryMappedFiles</title><g id="a_node20"><a xlink:href="https://www.nuget.org/packages/System.IO.MemoryMappedFiles" xlink:title="System.IO.MemoryMappedFiles"><polygon fill="#ccd1ff" stroke="#ccd1ff" points="415.592 -180 214.997 -180 214.997 -144 415.592 -144 415.592 -180"/><text x="315.294" y="-157.8" fill="#000" font-family="Times,serif" font-size="14" text-anchor="middle">System.IO.MemoryMappedFiles</text></a></g></g><g id="edge22" class="edge"><title>System.IO.MemoryMappedFiles-&gt;Platform.Memory</title><path fill="none" stroke="#000" d="M341.0331,-143.8314C353.8379,-134.7927 369.4851,-123.7476 383.2661,-114.0198"/><polygon fill="#000" stroke="#000" points="385.412 -116.789 391.563 -108.163 381.375 -111.07 385.412 -116.789"/></g><g id="edge31" class="edge"><title>Platform.Memory-&gt;Platform.Data.Doublets</title><path fill="none" stroke="#000" d="M474.785,-71.9243C506.499,-61.9531 546.0469,-49.5188 579.1717,-39.104"/><polygon fill="#000" stroke="#000" points="580.29 -42.421 588.78 -36.083 578.19 -35.744 580.29 -42.421"/></g><g id="edge32" class="edge"><title>Platform.Data-&gt;Platform.Data.Doublets</title><path fill="none" stroke="#000" d="M186.6847,-215.8737C186.9513,-196.2141 190.1888,-164.8546 206.2942,-144 250.0296,-87.3677 282.4187,-94.6476 350.2942,-72 419.5027,-48.9076 501.3014,-34.9391 561.3513,-27.0126"/><polygon fill="#000" stroke="#000" points="562.078 -30.448 571.548 -25.697 561.182 -23.505 562.078 -30.448"/></g><g id="node23" class="node"><title>Platform.Setters</title><g id="a_node23"><a xlink:href="https://github.com/linksplatform/Setters" xlink:title="Platform.Setters"><polygon fill="#ccd1ff" stroke="#ccd1ff" points="106.383 -324 .205 -324 .205 -288 106.383 -288 106.383 -324"/><text x="53.294" y="-301.8" fill="#000" font-family="Times,serif" font-size="14" text-anchor="middle">Platform.Setters</text></a></g></g><g id="edge26" class="edge"><title>Platform.Setters-&gt;Platform.Data</title><path fill="none" stroke="#000" d="M87.1081,-287.8314C104.5649,-278.4516 126.0429,-266.9112 144.6294,-256.9244"/><polygon fill="#000" stroke="#000" points="146.339 -259.979 153.491 -252.163 143.026 -253.813 146.339 -259.979"/></g></g></svg>