<svg xmlns="http://www.w3.org/2000/svg" xmlns:xlink="http://www.w3.org/1999/xlink" width="1688" height="476pt" viewBox="0 0 1265.76 476"><g id="graph0" class="graph" transform="scale(1 1) rotate(0) translate(4 472)"><title>PlatformDataDoubletsDependencies</title><polygon fill="#fff" stroke="transparent" points="-4 4 -4 -472 1261.758 -472 1261.758 4 -4 4"/><g id="node1" class="node"><title>Platform.Delegates</title><g id="a_node1"><a xlink:href="https://github.com/linksplatform/Delegates" xlink:title="Platform.Delegates"><polygon fill="#ccd1ff" stroke="#ccd1ff" points="274.638 -468 151.275 -468 151.275 -432 274.638 -432 274.638 -468"/><text x="212.956" y="-445.8" fill="#000" font-family="Times,serif" font-size="14" text-anchor="middle">Platform.Delegates</text></a></g></g><g id="node2" class="node"><title>Platform.Exceptions</title><g id="a_node2"><a xlink:href="https://github.com/linksplatform/Exceptions" xlink:title="Platform.Exceptions"><polygon fill="#ccd1ff" stroke="#ccd1ff" points="278.154 -396 147.758 -396 147.758 -360 278.154 -360 278.154 -396"/><text x="212.956" y="-373.8" fill="#000" font-family="Times,serif" font-size="14" text-anchor="middle">Platform.Exceptions</text></a></g></g><g id="edge1" class="edge"><title>Platform.Delegates-&gt;Platform.Exceptions</title><path fill="none" stroke="#000" d="M212.9562,-431.8314C212.9562,-424.131 212.9562,-414.9743 212.9562,-406.4166"/><polygon fill="#000" stroke="#000" points="216.456 -406.413 212.956 -396.413 209.456 -406.413 216.456 -406.413"/></g><g id="node4" class="node"><title>Platform.Collections</title><g id="a_node4"><a xlink:href="https://github.com/linksplatform/Collections" xlink:title="Platform.Collections"><polygon fill="#ccd1ff" stroke="#ccd1ff" points="427.219 -324 294.693 -324 294.693 -288 427.219 -288 427.219 -324"/><text x="360.956" y="-301.8" fill="#000" font-family="Times,serif" font-size="14" text-anchor="middle">Platform.Collections</text></a></g></g><g id="edge6" class="edge"><title>Platform.Exceptions-&gt;Platform.Collections</title><path fill="none" stroke="#000" d="M250.3028,-359.8314C269.8331,-350.3302 293.9203,-338.6121 314.6293,-328.5374"/><polygon fill="#000" stroke="#000" points="316.417 -331.56 323.878 -324.038 313.355 -325.265 316.417 -331.56"/></g><g id="node5" class="node"><title>Platform.Ranges</title><g id="a_node5"><a xlink:href="https://github.com/linksplatform/Ranges" xlink:title="Platform.Ranges"><polygon fill="#ccd1ff" stroke="#ccd1ff" points="268.657 -324 159.255 -324 159.255 -288 268.657 -288 268.657 -324"/><text x="213.956" y="-301.8" fill="#000" font-family="Times,serif" font-size="14" text-anchor="middle">Platform.Ranges</text></a></g></g><g id="edge3" class="edge"><title>Platform.Exceptions-&gt;Platform.Ranges</title><path fill="none" stroke="#000" d="M213.2085,-359.8314C213.3155,-352.131 213.4427,-342.9743 213.5615,-334.4166"/><polygon fill="#000" stroke="#000" points="217.061 -334.461 213.701 -324.413 210.062 -334.364 217.061 -334.461"/></g><g id="node3" class="node"><title>Platform.Interfaces</title><g id="a_node3"><a xlink:href="https://github.com/linksplatform/Interfaces" xlink:title="Platform.Interfaces"><polygon fill="#ccd1ff" stroke="#ccd1ff" points="687.622 -396 564.29 -396 564.29 -360 687.622 -360 687.622 -396"/><text x="625.956" y="-373.8" fill="#000" font-family="Times,serif" font-size="14" text-anchor="middle">Platform.Interfaces</text></a></g></g><g id="edge2" class="edge"><title>Platform.Interfaces-&gt;Platform.Collections</title><path fill="none" stroke="#000" d="M564.1599,-361.2101C526.2941,-350.922 477.5331,-337.6737 437.2684,-326.7339"/><polygon fill="#000" stroke="#000" points="438.061 -323.322 427.493 -324.078 436.225 -330.077 438.061 -323.322"/></g><g id="node13" class="node"><title>Platform.Timestamps</title><g id="a_node13"><a xlink:href="https://github.com/linksplatform/Timestamps" xlink:title="Platform.Timestamps"><polygon fill="#ccd1ff" stroke="#ccd1ff" points="655.38 -252 518.533 -252 518.533 -216 655.38 -216 655.38 -252"/><text x="586.956" y="-229.8" fill="#000" font-family="Times,serif" font-size="14" text-anchor="middle">Platform.Timestamps</text></a></g></g><g id="edge12" class="edge"><title>Platform.Interfaces-&gt;Platform.Timestamps</title><path fill="none" stroke="#000" d="M621.0168,-359.7623C614.3355,-335.0928 602.3557,-290.8598 594.5322,-261.9731"/><polygon fill="#000" stroke="#000" points="597.848 -260.827 591.856 -252.09 591.091 -262.657 597.848 -260.827"/></g><g id="node14" class="node"><title>Platform.Setters</title><g id="a_node14"><a xlink:href="https://github.com/linksplatform/Setters" xlink:title="Platform.Setters"><polygon fill="#ccd1ff" stroke="#ccd1ff" points="578.045 -324 471.867 -324 471.867 -288 578.045 -288 578.045 -324"/><text x="524.956" y="-301.8" fill="#000" font-family="Times,serif" font-size="14" text-anchor="middle">Platform.Setters</text></a></g></g><g id="edge13" class="edge"><title>Platform.Interfaces-&gt;Platform.Setters</title><path fill="none" stroke="#000" d="M600.4696,-359.8314C587.7903,-350.7927 572.2966,-339.7476 558.6507,-330.0198"/><polygon fill="#000" stroke="#000" points="560.609 -327.118 550.435 -324.163 556.546 -332.818 560.609 -327.118"/></g><g id="node8" class="node"><title>Platform.Threading</title><g id="a_node8"><a xlink:href="https://github.com/linksplatform/Threading" xlink:title="Platform.Threading"><polygon fill="#ccd1ff" stroke="#ccd1ff" points="423.979 -252 297.933 -252 297.933 -216 423.979 -216 423.979 -252"/><text x="360.956" y="-229.8" fill="#000" font-family="Times,serif" font-size="14" text-anchor="middle">Platform.Threading</text></a></g></g><g id="edge8" class="edge"><title>Platform.Collections-&gt;Platform.Threading</title><path fill="none" stroke="#000" d="M360.9562,-287.8314C360.9562,-280.131 360.9562,-270.9743 360.9562,-262.4166"/><polygon fill="#000" stroke="#000" points="364.456 -262.413 360.956 -252.413 357.456 -262.413 364.456 -262.413"/></g><g id="node12" class="node"><title>Platform.Random</title><g id="a_node12"><a xlink:href="https://github.com/linksplatform/Random" xlink:title="Platform.Random"><polygon fill="#ccd1ff" stroke="#ccd1ff" points="285.888 -108 170.024 -108 170.024 -72 285.888 -72 285.888 -108"/><text x="227.956" y="-85.8" fill="#000" font-family="Times,serif" font-size="14" text-anchor="middle">Platform.Random</text></a></g></g><g id="edge11" class="edge"><title>Platform.Ranges-&gt;Platform.Random</title><path fill="none" stroke="#000" d="M215.1258,-287.9555C217.5655,-250.3144 223.2126,-163.1867 226.1333,-118.1246"/><polygon fill="#000" stroke="#000" points="229.626 -118.35 226.78 -108.145 222.641 -117.898 229.626 -118.35"/></g><g id="node6" class="node"><title>Platform.Converters</title><g id="a_node6"><a xlink:href="https://github.com/linksplatform/Converters" xlink:title="Platform.Converters"><polygon fill="#ccd1ff" stroke="#ccd1ff" points="129.869 -396 .044 -396 .044 -360 129.869 -360 129.869 -396"/><text x="64.956" y="-373.8" fill="#000" font-family="Times,serif" font-size="14" text-anchor="middle">Platform.Converters</text></a></g></g><g id="edge4" class="edge"><title>Platform.Converters-&gt;Platform.Ranges</title><path fill="none" stroke="#000" d="M102.5552,-359.8314C122.3059,-350.2874 146.6859,-338.5065 167.5979,-328.4013"/><polygon fill="#000" stroke="#000" points="169.147 -331.54 176.628 -324.038 166.101 -325.238 169.147 -331.54"/></g><g id="node10" class="node"><title>Platform.Numbers</title><g id="a_node10"><a xlink:href="https://github.com/linksplatform/Numbers" xlink:title="Platform.Numbers"><polygon fill="#ccd1ff" stroke="#ccd1ff" points="137.764 -252 18.149 -252 18.149 -216 137.764 -216 137.764 -252"/><text x="77.956" y="-229.8" fill="#000" font-family="Times,serif" font-size="14" text-anchor="middle">Platform.Numbers</text></a></g></g><g id="edge9" class="edge"><title>Platform.Converters-&gt;Platform.Numbers</title><path fill="none" stroke="#000" d="M66.6027,-359.7623C68.82,-335.201 72.788,-291.2474 75.3965,-262.3541"/><polygon fill="#000" stroke="#000" points="78.91 -262.364 76.323 -252.09 71.938 -261.734 78.91 -262.364"/></g><g id="node7" class="node"><title>Platform.Hashing</title><g id="a_node7"><a xlink:href="https://github.com/linksplatform/Hashing" xlink:title="Platform.Hashing"><polygon fill="#ccd1ff" stroke="#ccd1ff" points="411.603 -396 296.31 -396 296.31 -360 411.603 -360 411.603 -396"/><text x="353.956" y="-373.8" fill="#000" font-family="Times,serif" font-size="14" text-anchor="middle">Platform.Hashing</text></a></g></g><g id="edge27" class="edge"><title>Platform.Hashing-&gt;Platform.Collections</title><path fill="none" stroke="#000" d="M355.7226,-359.8314C356.4712,-352.131 357.3615,-342.9743 358.1935,-334.4166"/><polygon fill="#000" stroke="#000" points="361.682 -334.705 359.166 -324.413 354.715 -334.028 361.682 -334.705"/></g><g id="edge5" class="edge"><title>Platform.Hashing-&gt;Platform.Ranges</title><path fill="none" stroke="#000" d="M318.6283,-359.8314C300.3069,-350.4089 277.746,-338.8062 258.2667,-328.7883"/><polygon fill="#000" stroke="#000" points="259.766 -325.624 249.273 -324.163 256.565 -331.849 259.766 -325.624"/></g><g id="node9" class="node"><title>Platform.IO</title><g id="a_node9"><a xlink:href="https://github.com/linksplatform/IO" xlink:title="Platform.IO"><polygon fill="#ccd1ff" stroke="#ccd1ff" points="390.714 -180 307.198 -180 307.198 -144 390.714 -144 390.714 -180"/><text x="348.956" y="-157.8" fill="#000" font-family="Times,serif" font-size="14" text-anchor="middle">Platform.IO</text></a></g></g><g id="edge7" class="edge"><title>Platform.Threading-&gt;Platform.IO</title><path fill="none" stroke="#000" d="M357.9281,-215.8314C356.6447,-208.131 355.1186,-198.9743 353.6923,-190.4166"/><polygon fill="#000" stroke="#000" points="357.122 -189.702 352.025 -180.413 350.217 -190.853 357.122 -189.702"/></g><g id="node16" class="node"><title>Platform.Data</title><g id="a_node16"><a xlink:href="https://github.com/linksplatform/Data" xlink:title="Platform.Data"><polygon fill="#4c5eff" stroke="#4c5eff" points="503.373 -180 408.54 -180 408.54 -144 503.373 -144 503.373 -180"/><text x="455.956" y="-157.8" fill="#000" font-family="Times,serif" font-size="14" text-anchor="middle">Platform.Data</text></a></g></g><g id="edge15" class="edge"><title>Platform.Threading-&gt;Platform.Data</title><path fill="none" stroke="#000" d="M384.9287,-215.8314C396.7423,-206.8779 411.1534,-195.9558 423.8997,-186.2955"/><polygon fill="#000" stroke="#000" points="426.136 -188.993 431.991 -180.163 421.908 -183.414 426.136 -188.993"/></g><g id="node15" class="node"><title>Platform.Memory</title><g id="a_node15"><a xlink:href="https://github.com/linksplatform/Memory" xlink:title="Platform.Memory"><polygon fill="#4c5eff" stroke="#4c5eff" points="424.157 -108 307.755 -108 307.755 -72 424.157 -72 424.157 -108"/><text x="365.956" y="-85.8" fill="#000" font-family="Times,serif" font-size="14" text-anchor="middle">Platform.Memory</text></a></g></g><g id="edge14" class="edge"><title>Platform.IO-&gt;Platform.Memory</title><path fill="none" stroke="#000" d="M353.246,-143.8314C355.0642,-136.131 357.2261,-126.9743 359.2467,-118.4166"/><polygon fill="#000" stroke="#000" points="362.717 -118.95 361.609 -108.413 355.904 -117.341 362.717 -118.95"/></g><g id="node11" class="node"><title>Platform.Collections.Methods</title><g id="a_node11"><a xlink:href="https://github.com/linksplatform/Collections.Methods" xlink:title="Platform.Collections.Methods"><polygon fill="#ccd1ff" stroke="#ccd1ff" points="190.214 -180 5.699 -180 5.699 -144 190.214 -144 190.214 -180"/><text x="97.956" y="-157.8" fill="#000" font-family="Times,serif" font-size="14" text-anchor="middle">Platform.Collections.Methods</text></a></g></g><g id="edge10" class="edge"><title>Platform.Numbers-&gt;Platform.Collections.Methods</title><path fill="none" stroke="#000" d="M83.003,-215.8314C85.1656,-208.0463 87.7415,-198.7729 90.141,-190.1347"/><polygon fill="#000" stroke="#000" points="93.537 -190.985 92.841 -180.413 86.793 -189.112 93.537 -190.985"/></g><g id="node17" class="node"><title>Platform.Data.Doublets</title><g id="a_node17"><a xlink:href="https://github.com/linksplatform/Data.Doublets" xlink:title="Platform.Data.Doublets"><polygon fill="#4c5eff" stroke="#4c5eff" points="483.42 -36 334.493 -36 334.493 0 483.42 0 483.42 -36"/><text x="408.956" y="-13.8" fill="#000" font-family="Times,serif" font-size="14" text-anchor="middle">Platform.Data.Doublets</text></a></g></g><g id="edge19" class="edge"><title>Platform.Collections.Methods-&gt;Platform.Data.Doublets</title><path fill="none" stroke="#000" d="M105.7154,-143.7005C115.4857,-122.9652 134.2818,-89.7533 160.9562,-72 187.5385,-54.308 263.5097,-39.3405 324.4277,-29.6832"/><polygon fill="#000" stroke="#000" points="325.109 -33.119 334.451 -28.12 324.031 -26.203 325.109 -33.119"/></g><g id="edge17" class="edge"><title>Platform.Random-&gt;Platform.Data.Doublets</title><path fill="none" stroke="#000" d="M273.6301,-71.8314C298.053,-62.1162 328.3028,-50.0831 354.0046,-39.8592"/><polygon fill="#000" stroke="#000" points="355.613 -42.986 363.611 -36.038 353.025 -36.482 355.613 -42.986"/></g><g id="edge18" class="edge"><title>Platform.Timestamps-&gt;Platform.Data.Doublets</title><path fill="none" stroke="#000" d="M572.0862,-215.9555C540.5436,-177.6791 466.8322,-88.2316 430.2827,-43.8793"/><polygon fill="#000" stroke="#000" points="432.97 -41.636 423.909 -36.145 427.568 -46.088 432.97 -41.636"/></g><g id="edge16" class="edge"><title>Platform.Setters-&gt;Platform.Data</title><path fill="none" stroke="#000" d="M516.2173,-287.7623C504.2928,-262.8764 482.8289,-218.0822 468.9974,-189.2165"/><polygon fill="#000" stroke="#000" points="472.102 -187.595 464.624 -180.09 465.789 -190.62 472.102 -187.595"/></g><g id="edge20" class="edge"><title>Platform.Memory-&gt;Platform.Data.Doublets</title><path fill="none" stroke="#000" d="M376.8069,-71.8314C381.6585,-63.7079 387.4779,-53.9637 392.8242,-45.0118"/><polygon fill="#000" stroke="#000" points="395.837 -46.793 397.959 -36.413 389.827 -43.204 395.837 -46.793"/></g><g id="edge21" class="edge"><title>Platform.Data-&gt;Platform.Data.Doublets</title><path fill="none" stroke="#000" d="M452.2497,-143.8069C448.2887,-125.438 441.4204,-96.3757 432.9562,-72 429.9085,-63.2231 426.0136,-53.8981 422.2523,-45.5113"/><polygon fill="#000" stroke="#000" points="425.32 -43.804 417.957 -36.186 418.962 -46.733 425.32 -43.804"/></g><g id="node18" class="node"><title>Platform.Incrementers</title><g id="a_node18"><a xlink:href="https://github.com/linksplatform/Incrementers" xlink:title="Platform.Incrementers"><polygon fill="#ccd1ff" stroke="#ccd1ff" points="700.513 -108 559.399 -108 559.399 -72 700.513 -72 700.513 -108"/><text x="629.956" y="-85.8" fill="#000" font-family="Times,serif" font-size="14" text-anchor="middle">Platform.Incrementers</text></a></g></g><g id="edge22" class="edge"><title>Platform.Incrementers-&gt;Platform.Data.Doublets</title><path fill="none" stroke="#000" d="M574.4738,-71.9243C543.9991,-61.9959 506.0289,-49.6255 474.1457,-39.2382"/><polygon fill="#000" stroke="#000" points="475.054 -35.853 464.461 -36.083 472.885 -42.509 475.054 -35.853"/></g><g id="node19" class="node"><title>Set of deleted:</title><polygon fill="#ccd1ff" stroke="#ccd1ff" points="1040.321 -468 939.591 -468 939.591 -432 1040.321 -432 1040.321 -468"/><text x="989.956" y="-445.8" fill="#000" font-family="Times,serif" font-size="14" text-anchor="middle">Set of deleted:</text></g><g id="node20" class="node"><title>Platform.Disposables</title><g id="a_node20"><a xlink:href="https://github.com/linksplatform/Disposables" xlink:title="Platform.Disposables"><polygon fill="red" stroke="red" points="842.097 -396 705.815 -396 705.815 -360 842.097 -360 842.097 -396"/><text x="773.956" y="-373.8" fill="#000" font-family="Times,serif" font-size="14" text-anchor="middle">Platform.Disposables</text></a></g></g><g id="edge23" class="edge"><title>Set of deleted: -&gt;Platform.Disposables</title><path fill="none" stroke="#000" d="M939.5864,-433.2101C909.3094,-423.1177 870.4866,-410.1768 838.0387,-399.3608"/><polygon fill="#000" stroke="#000" points="838.784 -395.92 828.19 -396.078 836.57 -402.561 838.784 -395.92"/></g><g id="node21" class="node"><title>Platform.Reflection</title><g id="a_node21"><a xlink:href="https://github.com/linksplatform/Reflection" xlink:title="Platform.Reflection"><polygon fill="red" stroke="red" points="986.259 -396 859.653 -396 859.653 -360 986.259 -360 986.259 -396"/><text x="922.956" y="-373.8" fill="#000" font-family="Times,serif" font-size="14" text-anchor="middle">Platform.Reflection</text></a></g></g><g id="edge24" class="edge"><title>Set of deleted: -&gt;Platform.Reflection</title><path fill="none" stroke="#000" d="M973.0493,-431.8314C965.1749,-423.3694 955.6642,-413.1489 947.0549,-403.8971"/><polygon fill="#000" stroke="#000" points="949.465 -401.35 940.091 -396.413 944.341 -406.118 949.465 -401.35"/></g><g id="node22" class="node"><title>Platform.Unsafe</title><g id="a_node22"><a xlink:href="https://github.com/linksplatform/Unsafe" xlink:title="Platform.Unsafe"><polygon fill="red" stroke="red" points="1112.088 -396 1003.825 -396 1003.825 -360 1112.088 -360 1112.088 -396"/><text x="1057.956" y="-373.8" fill="#000" font-family="Times,serif" font-size="14" text-anchor="middle">Platform.Unsafe</text></a></g></g><g id="edge25" class="edge"><title>Set of deleted: -&gt;Platform.Unsafe</title><path fill="none" stroke="#000" d="M1007.1155,-431.8314C1015.1073,-423.3694 1024.76,-413.1489 1033.4978,-403.8971"/><polygon fill="#000" stroke="#000" points="1036.244 -406.087 1040.566 -396.413 1031.155 -401.28 1036.244 -406.087"/></g><g id="node23" class="node"><title>Platform.Singletons</title><g id="a_node23"><a xlink:href="https://github.com/linksplatform/Singletons" xlink:title="Platform.Singletons"><polygon fill="red" stroke="red" points="1257.561 -396 1130.352 -396 1130.352 -360 1257.561 -360 1257.561 -396"/><text x="1193.956" y="-373.8" fill="#000" font-family="Times,serif" font-size="14" text-anchor="middle">Platform.Singletons</text></a></g></g><g id="edge26" class="edge"><title>Set of deleted: -&gt;Platform.Singletons</title><path fill="none" stroke="#000" d="M1040.3832,-432.2022C1068.3686,-422.325 1103.383,-409.967 1132.908,-399.5464"/><polygon fill="#000" stroke="#000" points="1134.427 -402.722 1142.692 -396.093 1132.098 -396.121 1134.427 -402.722"/></g><g id="node24" class="node"><title>Platform.Equality</title><g id="a_node24"><a xlink:href="https://github.com/linksplatform/Equality" xlink:title="Platform.Equality"><polygon fill="#ccd1ff" stroke="#ccd1ff" points="545.885 -396 430.027 -396 430.027 -360 545.885 -360 545.885 -396"/><text x="487.956" y="-373.8" fill="#000" font-family="Times,serif" font-size="14" text-anchor="middle">Platform.Equality</text></a></g></g><g id="edge28" class="edge"><title>Platform.Equality-&gt;Platform.Collections</title><path fill="none" stroke="#000" d="M455.9087,-359.8314C439.5142,-350.5368 419.3776,-339.1208 401.8733,-329.1971"/><polygon fill="#000" stroke="#000" points="403.419 -326.05 392.993 -324.163 399.966 -332.139 403.419 -326.05"/></g></g></svg>