<?xml version="1.0" encoding="UTF-8" standalone="no"?>
<!DOCTYPE svg PUBLIC "-//W3C//DTD SVG 1.1//EN"
 "http://www.w3.org/Graphics/SVG/1.1/DTD/svg11.dtd">
<!-- Generated by graphviz version 2.40.1 (20161225.0304)
 -->
<!-- Title: PlatformDataDoubletsDependencies Pages: 1 -->
<svg width="693pt" height="476pt"
 viewBox="0.00 0.00 692.70 476.00" xmlns="http://www.w3.org/2000/svg" xmlns:xlink="http://www.w3.org/1999/xlink">
<g id="graph0" class="graph" transform="scale(1 1) rotate(0) translate(4 472)">
<title>PlatformDataDoubletsDependencies</title>
<polygon fill="#ffffff" stroke="transparent" points="-4,4 -4,-472 688.6992,-472 688.6992,4 -4,4"/>
<!-- Platform.Delegates -->
<g id="node1" class="node">
<title>Platform.Delegates</title>
<g id="a_node1"><a xlink:href="https://github.com/linksplatform/Delegates" xlink:title="Platform.Delegates">
<polygon fill="#ccd1ff" stroke="#ccd1ff" points="127.0303,-468 3.6675,-468 3.6675,-432 127.0303,-432 127.0303,-468"/>
<text text-anchor="middle" x="65.3489" y="-445.8" font-family="Times,serif" font-size="14.00" fill="#000000">Platform.Delegates</text>
</a>
</g>
</g>
<!-- Platform.Exceptions -->
<g id="node2" class="node">
<title>Platform.Exceptions</title>
<g id="a_node2"><a xlink:href="https://github.com/linksplatform/Exceptions" xlink:title="Platform.Exceptions">
<polygon fill="#ccd1ff" stroke="#ccd1ff" points="130.547,-396 .1508,-396 .1508,-360 130.547,-360 130.547,-396"/>
<text text-anchor="middle" x="65.3489" y="-373.8" font-family="Times,serif" font-size="14.00" fill="#000000">Platform.Exceptions</text>
</a>
</g>
</g>
<!-- Platform.Delegates&#45;&gt;Platform.Exceptions -->
<g id="edge1" class="edge">
<title>Platform.Delegates&#45;&gt;Platform.Exceptions</title>
<path fill="none" stroke="#000000" d="M65.3489,-431.8314C65.3489,-424.131 65.3489,-414.9743 65.3489,-406.4166"/>
<polygon fill="#000000" stroke="#000000" points="68.849,-406.4132 65.3489,-396.4133 61.849,-406.4133 68.849,-406.4132"/>
</g>
<!-- Platform.Ranges -->
<g id="node5" class="node">
<title>Platform.Ranges</title>
<g id="a_node5"><a xlink:href="https://github.com/linksplatform/Ranges" xlink:title="Platform.Ranges">
<polygon fill="#ccd1ff" stroke="#ccd1ff" points="268.0499,-324 158.6479,-324 158.6479,-288 268.0499,-288 268.0499,-324"/>
<text text-anchor="middle" x="213.3489" y="-301.8" font-family="Times,serif" font-size="14.00" fill="#000000">Platform.Ranges</text>
</a>
</g>
</g>
<!-- Platform.Exceptions&#45;&gt;Platform.Ranges -->
<g id="edge4" class="edge">
<title>Platform.Exceptions&#45;&gt;Platform.Ranges</title>
<path fill="none" stroke="#000000" d="M102.6955,-359.8314C122.2258,-350.3302 146.313,-338.6121 167.022,-328.5374"/>
<polygon fill="#000000" stroke="#000000" points="168.8096,-331.56 176.2708,-324.038 165.7473,-325.2654 168.8096,-331.56"/>
</g>
<!-- Platform.Collections -->
<g id="node9" class="node">
<title>Platform.Collections</title>
<g id="a_node9"><a xlink:href="https://github.com/linksplatform/Collections" xlink:title="Platform.Collections">
<polygon fill="#ccd1ff" stroke="#ccd1ff" points="365.6122,-180 233.0856,-180 233.0856,-144 365.6122,-144 365.6122,-180"/>
<text text-anchor="middle" x="299.3489" y="-157.8" font-family="Times,serif" font-size="14.00" fill="#000000">Platform.Collections</text>
</a>
</g>
</g>
<!-- Platform.Exceptions&#45;&gt;Platform.Collections -->
<g id="edge15" class="edge">
<title>Platform.Exceptions&#45;&gt;Platform.Collections</title>
<path fill="none" stroke="#000000" d="M69.5865,-359.92C78.2755,-326.7324 101.2058,-255.8515 146.3489,-216 167.8835,-196.9896 196.5396,-184.556 223.2265,-176.476"/>
<polygon fill="#000000" stroke="#000000" points="224.3019,-179.8088 232.9526,-173.692 222.3755,-173.0791 224.3019,-179.8088"/>
</g>
<!-- Platform.Numbers -->
<g id="node3" class="node">
<title>Platform.Numbers</title>
<g id="a_node3"><a xlink:href="https://github.com/linksplatform/Numbers" xlink:title="Platform.Numbers">
<polygon fill="#ccd1ff" stroke="#ccd1ff" points="517.1563,-180 397.5415,-180 397.5415,-144 517.1563,-144 517.1563,-180"/>
<text text-anchor="middle" x="457.3489" y="-157.8" font-family="Times,serif" font-size="14.00" fill="#000000">Platform.Numbers</text>
</a>
</g>
</g>
<!-- Platform.Collections.Methods -->
<g id="node4" class="node">
<title>Platform.Collections.Methods</title>
<g id="a_node4"><a xlink:href="https://github.com/linksplatform/Collections.Methods" xlink:title="Platform.Collections.Methods">
<polygon fill="#ccd1ff" stroke="#ccd1ff" points="549.6065,-108 365.0913,-108 365.0913,-72 549.6065,-72 549.6065,-108"/>
<text text-anchor="middle" x="457.3489" y="-85.8" font-family="Times,serif" font-size="14.00" fill="#000000">Platform.Collections.Methods</text>
</a>
</g>
</g>
<!-- Platform.Numbers&#45;&gt;Platform.Collections.Methods -->
<g id="edge2" class="edge">
<title>Platform.Numbers&#45;&gt;Platform.Collections.Methods</title>
<path fill="none" stroke="#000000" d="M457.3489,-143.8314C457.3489,-136.131 457.3489,-126.9743 457.3489,-118.4166"/>
<polygon fill="#000000" stroke="#000000" points="460.849,-118.4132 457.3489,-108.4133 453.849,-118.4133 460.849,-118.4132"/>
</g>
<!-- Platform.Data.Doublets -->
<g id="node11" class="node">
<title>Platform.Data.Doublets</title>
<g id="a_node11"><a xlink:href="https://github.com/linksplatform/Data.Doublets" xlink:title="Platform.Data.Doublets">
<polygon fill="#4c5eff" stroke="#4c5eff" points="531.8125,-36 382.8853,-36 382.8853,0 531.8125,0 531.8125,-36"/>
<text text-anchor="middle" x="457.3489" y="-13.8" font-family="Times,serif" font-size="14.00" fill="#000000">Platform.Data.Doublets</text>
</a>
</g>
</g>
<!-- Platform.Collections.Methods&#45;&gt;Platform.Data.Doublets -->
<g id="edge8" class="edge">
<title>Platform.Collections.Methods&#45;&gt;Platform.Data.Doublets</title>
<path fill="none" stroke="#000000" d="M457.3489,-71.8314C457.3489,-64.131 457.3489,-54.9743 457.3489,-46.4166"/>
<polygon fill="#000000" stroke="#000000" points="460.849,-46.4132 457.3489,-36.4133 453.849,-46.4133 460.849,-46.4132"/>
</g>
<!-- Platform.Random -->
<g id="node6" class="node">
<title>Platform.Random</title>
<g id="a_node6"><a xlink:href="https://github.com/linksplatform/Random" xlink:title="Platform.Random">
<polygon fill="#ccd1ff" stroke="#ccd1ff" points="271.2809,-252 155.4169,-252 155.4169,-216 271.2809,-216 271.2809,-252"/>
<text text-anchor="middle" x="213.3489" y="-229.8" font-family="Times,serif" font-size="14.00" fill="#000000">Platform.Random</text>
</a>
</g>
</g>
<!-- Platform.Ranges&#45;&gt;Platform.Random -->
<g id="edge3" class="edge">
<title>Platform.Ranges&#45;&gt;Platform.Random</title>
<path fill="none" stroke="#000000" d="M213.3489,-287.8314C213.3489,-280.131 213.3489,-270.9743 213.3489,-262.4166"/>
<polygon fill="#000000" stroke="#000000" points="216.849,-262.4132 213.3489,-252.4133 209.849,-262.4133 216.849,-262.4132"/>
</g>
<!-- Platform.Random&#45;&gt;Platform.Collections -->
<g id="edge11" class="edge">
<title>Platform.Random&#45;&gt;Platform.Collections</title>
<path fill="none" stroke="#000000" d="M235.0503,-215.8314C245.541,-207.0485 258.2944,-196.3712 269.6683,-186.8489"/>
<polygon fill="#000000" stroke="#000000" points="272.2336,-189.2659 277.6544,-180.1628 267.74,-183.8986 272.2336,-189.2659"/>
</g>
<!-- Platform.Converters -->
<g id="node7" class="node">
<title>Platform.Converters</title>
<g id="a_node7"><a xlink:href="https://github.com/linksplatform/Converters" xlink:title="Platform.Converters">
<polygon fill="#ccd1ff" stroke="#ccd1ff" points="278.2613,-396 148.4365,-396 148.4365,-360 278.2613,-360 278.2613,-396"/>
<text text-anchor="middle" x="213.3489" y="-373.8" font-family="Times,serif" font-size="14.00" fill="#000000">Platform.Converters</text>
</a>
</g>
</g>
<!-- Platform.Converters&#45;&gt;Platform.Ranges -->
<g id="edge5" class="edge">
<title>Platform.Converters&#45;&gt;Platform.Ranges</title>
<path fill="none" stroke="#000000" d="M213.3489,-359.8314C213.3489,-352.131 213.3489,-342.9743 213.3489,-334.4166"/>
<polygon fill="#000000" stroke="#000000" points="216.849,-334.4132 213.3489,-324.4133 209.849,-334.4133 216.849,-334.4132"/>
</g>
<!-- Platform.Hashing -->
<g id="node8" class="node">
<title>Platform.Hashing</title>
<g id="a_node8"><a xlink:href="https://github.com/linksplatform/Hashing" xlink:title="Platform.Hashing">
<polygon fill="#ccd1ff" stroke="#ccd1ff" points="411.9956,-396 296.7022,-396 296.7022,-360 411.9956,-360 411.9956,-396"/>
<text text-anchor="middle" x="354.3489" y="-373.8" font-family="Times,serif" font-size="14.00" fill="#000000">Platform.Hashing</text>
</a>
</g>
</g>
<!-- Platform.Hashing&#45;&gt;Platform.Ranges -->
<g id="edge6" class="edge">
<title>Platform.Hashing&#45;&gt;Platform.Ranges</title>
<path fill="none" stroke="#000000" d="M318.7686,-359.8314C300.3164,-350.4089 277.5944,-338.8062 257.9759,-328.7883"/>
<polygon fill="#000000" stroke="#000000" points="259.4156,-325.5935 248.9178,-324.1628 256.2321,-331.8278 259.4156,-325.5935"/>
</g>
<!-- Platform.Hashing&#45;&gt;Platform.Collections -->
<g id="edge12" class="edge">
<title>Platform.Hashing&#45;&gt;Platform.Collections</title>
<path fill="none" stroke="#000000" d="M348.6966,-359.7454C341.2382,-335.3328 327.9354,-290.6417 318.3489,-252 313.2299,-231.3662 308.2969,-207.8546 304.7407,-190.0379"/>
<polygon fill="#000000" stroke="#000000" points="308.1329,-189.1488 302.7651,-180.0144 301.265,-190.5025 308.1329,-189.1488"/>
</g>
<!-- Platform.Data -->
<g id="node10" class="node">
<title>Platform.Data</title>
<g id="a_node10"><a xlink:href="https://github.com/linksplatform/Data" xlink:title="Platform.Data">
<polygon fill="#4c5eff" stroke="#4c5eff" points="346.7655,-108 251.9323,-108 251.9323,-72 346.7655,-72 346.7655,-108"/>
<text text-anchor="middle" x="299.3489" y="-85.8" font-family="Times,serif" font-size="14.00" fill="#000000">Platform.Data</text>
</a>
</g>
</g>
<!-- Platform.Collections&#45;&gt;Platform.Data -->
<g id="edge7" class="edge">
<title>Platform.Collections&#45;&gt;Platform.Data</title>
<path fill="none" stroke="#000000" d="M299.3489,-143.8314C299.3489,-136.131 299.3489,-126.9743 299.3489,-118.4166"/>
<polygon fill="#000000" stroke="#000000" points="302.849,-118.4132 299.3489,-108.4133 295.849,-118.4133 302.849,-118.4132"/>
</g>
<!-- Platform.Data&#45;&gt;Platform.Data.Doublets -->
<g id="edge10" class="edge">
<title>Platform.Data&#45;&gt;Platform.Data.Doublets</title>
<path fill="none" stroke="#000000" d="M339.219,-71.8314C360.2566,-62.2446 386.2472,-50.4008 408.4885,-40.2655"/>
<polygon fill="#000000" stroke="#000000" points="410.1172,-43.3697 417.7655,-36.038 407.2144,-36.9999 410.1172,-43.3697"/>
</g>
<!-- Platform.Memory -->
<g id="node12" class="node">
<title>Platform.Memory</title>
<g id="a_node12"><a xlink:href="https://github.com/linksplatform/Memory" xlink:title="Platform.Memory">
<polygon fill="#ccd1ff" stroke="#ccd1ff" points="684.5499,-108 568.1479,-108 568.1479,-72 684.5499,-72 684.5499,-108"/>
<text text-anchor="middle" x="626.3489" y="-85.8" font-family="Times,serif" font-size="14.00" fill="#000000">Platform.Memory</text>
</a>
</g>
</g>
<!-- Platform.Memory&#45;&gt;Platform.Data.Doublets -->
<g id="edge9" class="edge">
<title>Platform.Memory&#45;&gt;Platform.Data.Doublets</title>
<path fill="none" stroke="#000000" d="M583.7031,-71.8314C560.9999,-62.159 532.9038,-50.1891 508.9747,-39.9944"/>
<polygon fill="#000000" stroke="#000000" points="510.2598,-36.7376 499.6881,-36.038 507.5161,-43.1775 510.2598,-36.7376"/>
</g>
<!-- Platform.Equality -->
<g id="node13" class="node">
<title>Platform.Equality</title>
<g id="a_node13"><a xlink:href="https://github.com/linksplatform/Equality" xlink:title="Platform.Equality">
<polygon fill="#ccd1ff" stroke="#ccd1ff" points="443.2781,-252 327.4197,-252 327.4197,-216 443.2781,-216 443.2781,-252"/>
<text text-anchor="middle" x="385.3489" y="-229.8" font-family="Times,serif" font-size="14.00" fill="#000000">Platform.Equality</text>
</a>
</g>
</g>
<!-- Platform.Equality&#45;&gt;Platform.Collections -->
<g id="edge13" class="edge">
<title>Platform.Equality&#45;&gt;Platform.Collections</title>
<path fill="none" stroke="#000000" d="M363.6475,-215.8314C353.1568,-207.0485 340.4034,-196.3712 329.0295,-186.8489"/>
<polygon fill="#000000" stroke="#000000" points="330.9578,-183.8986 321.0434,-180.1628 326.4642,-189.2659 330.9578,-183.8986"/>
</g>
<!-- Platform.Interfaces -->
<g id="node14" class="node">
<title>Platform.Interfaces</title>
<g id="a_node14"><a xlink:href="https://github.com/linksplatform/Interfaces" xlink:title="Platform.Interfaces">
<polygon fill="#ccd1ff" stroke="#ccd1ff" points="585.015,-252 461.6828,-252 461.6828,-216 585.015,-216 585.015,-252"/>
<text text-anchor="middle" x="523.3489" y="-229.8" font-family="Times,serif" font-size="14.00" fill="#000000">Platform.Interfaces</text>
</a>
</g>
</g>
<!-- Platform.Interfaces&#45;&gt;Platform.Collections -->
<g id="edge14" class="edge">
<title>Platform.Interfaces&#45;&gt;Platform.Collections</title>
<path fill="none" stroke="#000000" d="M467.1134,-215.9243C436.225,-205.9959 397.7393,-193.6255 365.4233,-183.2382"/>
<polygon fill="#000000" stroke="#000000" points="366.1989,-179.8112 355.6076,-180.0831 364.0568,-186.4754 366.1989,-179.8112"/>
</g>
</g>
</svg>
