<?xml version="1.0" encoding="UTF-8" standalone="no"?><!DOCTYPE svg PUBLIC "-//W3C//DTD SVG 1.1//EN" "http://www.w3.org/Graphics/SVG/1.1/DTD/svg11.dtd"><!-- Generated by graphviz version 2.40.1 (20161225.0304)
 --><!-- Title: PlatformDataDoubletsDependencies Pages: 1 --><svg xmlns="http://www.w3.org/2000/svg" xmlns:xlink="http://www.w3.org/1999/xlink" width="1063pt" height="620pt" viewBox="0.00 0.00 1062.77 620.00">
<g id="graph0" class="graph" transform="scale(1 1) rotate(0) translate(4 616)">
<title>PlatformDataDoubletsDependencies</title>
<polygon fill="#ffffff" stroke="transparent" points="-4,4 -4,-616 1058.7679,-616 1058.7679,4 -4,4"/>
<!-- Platform.Interfaces -->
<g id="node1" class="node">
<title>Platform.Interfaces</title>
<g id="a_node1"><a xlink:href="https://github.com/linksplatform/Interfaces" xlink:title="Platform.Interfaces">
<polygon fill="#ccd1ff" stroke="#ccd1ff" points="407.6321,-612 284.2999,-612 284.2999,-576 407.6321,-576 407.6321,-612"/>
<text text-anchor="middle" x="345.966" y="-589.8" font-family="Times,serif" font-size="14.00" fill="#000000">Platform.Interfaces</text>
</a>
</g>
</g>
<!-- Platform.Exceptions -->
<g id="node2" class="node">
<title>Platform.Exceptions</title>
<g id="a_node2"><a xlink:href="https://github.com/linksplatform/Exceptions" xlink:title="Platform.Exceptions">
<polygon fill="#ccd1ff" stroke="#ccd1ff" points="288.1641,-540 157.7679,-540 157.7679,-504 288.1641,-504 288.1641,-540"/>
<text text-anchor="middle" x="222.966" y="-517.8" font-family="Times,serif" font-size="14.00" fill="#000000">Platform.Exceptions</text>
</a>
</g>
</g>
<!-- Platform.Interfaces&#45;&gt;Platform.Exceptions -->
<g id="edge1" class="edge">
<title>Platform.Interfaces-&gt;Platform.Exceptions</title>
<path fill="none" stroke="#000000" d="M314.9279,-575.8314C299.1955,-566.6221 279.9049,-555.3301 263.0616,-545.4706"/>
<polygon fill="#000000" stroke="#000000" points="264.3925,-542.1941 253.9942,-540.1628 260.8562,-548.2352 264.3925,-542.1941"/>
</g>
<!-- Platform.Collections -->
<g id="node3" class="node">
<title>Platform.Collections</title>
<g id="a_node3"><a xlink:href="https://github.com/linksplatform/Collections" xlink:title="Platform.Collections">
<polygon fill="#ccd1ff" stroke="#ccd1ff" points="365.2293,-324 232.7027,-324 232.7027,-288 365.2293,-288 365.2293,-324"/>
<text text-anchor="middle" x="298.966" y="-301.8" font-family="Times,serif" font-size="14.00" fill="#000000">Platform.Collections</text>
</a>
</g>
</g>
<!-- Platform.Interfaces&#45;&gt;Platform.Collections -->
<g id="edge2" class="edge">
<title>Platform.Interfaces-&gt;Platform.Collections</title>
<path fill="none" stroke="#000000" d="M343.0259,-575.9843C335.0799,-527.2939 313.1306,-392.7961 303.5448,-334.0573"/>
<polygon fill="#000000" stroke="#000000" points="306.97,-333.3146 301.9049,-324.0089 300.0614,-334.4421 306.97,-333.3146"/>
</g>
<!-- Platform.Timestamps -->
<g id="node11" class="node">
<title>Platform.Timestamps</title>
<g id="a_node11"><a xlink:href="https://github.com/linksplatform/Timestamps" xlink:title="Platform.Timestamps">
<polygon fill="#ccd1ff" stroke="#ccd1ff" points="605.3896,-468 468.5424,-468 468.5424,-432 605.3896,-432 605.3896,-468"/>
<text text-anchor="middle" x="536.966" y="-445.8" font-family="Times,serif" font-size="14.00" fill="#000000">Platform.Timestamps</text>
</a>
</g>
</g>
<!-- Platform.Interfaces&#45;&gt;Platform.Timestamps -->
<g id="edge11" class="edge">
<title>Platform.Interfaces-&gt;Platform.Timestamps</title>
<path fill="none" stroke="#000000" d="M370.1563,-575.7623C404.3127,-550.0108 466.7443,-502.942 504.7829,-474.2637"/>
<polygon fill="#000000" stroke="#000000" points="507.0942,-476.9044 512.9721,-468.0896 502.8802,-471.315 507.0942,-476.9044"/>
</g>
<!-- Platform.Setters -->
<g id="node12" class="node">
<title>Platform.Setters</title>
<g id="a_node12"><a xlink:href="https://github.com/linksplatform/Setters" xlink:title="Platform.Setters">
<polygon fill="#ccd1ff" stroke="#ccd1ff" points="450.0552,-468 343.8768,-468 343.8768,-432 450.0552,-432 450.0552,-468"/>
<text text-anchor="middle" x="396.966" y="-445.8" font-family="Times,serif" font-size="14.00" fill="#000000">Platform.Setters</text>
</a>
</g>
</g>
<!-- Platform.Interfaces&#45;&gt;Platform.Setters -->
<g id="edge12" class="edge">
<title>Platform.Interfaces-&gt;Platform.Setters</title>
<path fill="none" stroke="#000000" d="M352.4252,-575.7623C361.2006,-550.9846 376.9657,-506.4714 387.1932,-477.5939"/>
<polygon fill="#000000" stroke="#000000" points="390.5199,-478.6844 390.5593,-468.0896 383.9215,-476.3474 390.5199,-478.6844"/>
</g>
<!-- Platform.Ranges -->
<g id="node4" class="node">
<title>Platform.Ranges</title>
<g id="a_node4"><a xlink:href="https://github.com/linksplatform/Ranges" xlink:title="Platform.Ranges">
<polygon fill="#ccd1ff" stroke="#ccd1ff" points="206.667,-468 97.265,-468 97.265,-432 206.667,-432 206.667,-468"/>
<text text-anchor="middle" x="151.966" y="-445.8" font-family="Times,serif" font-size="14.00" fill="#000000">Platform.Ranges</text>
</a>
</g>
</g>
<!-- Platform.Exceptions&#45;&gt;Platform.Ranges -->
<g id="edge5" class="edge">
<title>Platform.Exceptions-&gt;Platform.Ranges</title>
<path fill="none" stroke="#000000" d="M205.0497,-503.8314C196.6218,-495.2848 186.425,-484.9443 177.23,-475.6198"/>
<polygon fill="#000000" stroke="#000000" points="179.6371,-473.0761 170.1235,-468.4133 174.6529,-477.9912 179.6371,-473.0761"/>
</g>
<!-- Platform.Threading -->
<g id="node6" class="node">
<title>Platform.Threading</title>
<g id="a_node6"><a xlink:href="https://github.com/linksplatform/Threading" xlink:title="Platform.Threading">
<polygon fill="#ccd1ff" stroke="#ccd1ff" points="367.9892,-252 241.9428,-252 241.9428,-216 367.9892,-216 367.9892,-252"/>
<text text-anchor="middle" x="304.966" y="-229.8" font-family="Times,serif" font-size="14.00" fill="#000000">Platform.Threading</text>
</a>
</g>
</g>
<!-- Platform.Collections&#45;&gt;Platform.Threading -->
<g id="edge7" class="edge">
<title>Platform.Collections-&gt;Platform.Threading</title>
<path fill="none" stroke="#000000" d="M300.4801,-287.8314C301.1218,-280.131 301.8848,-270.9743 302.5979,-262.4166"/>
<polygon fill="#000000" stroke="#000000" points="306.0889,-262.6694 303.4316,-252.4133 299.1131,-262.088 306.0889,-262.6694"/>
</g>
<!-- Platform.Ranges&#45;&gt;Platform.Collections -->
<g id="edge3" class="edge">
<title>Platform.Ranges-&gt;Platform.Collections</title>
<path fill="none" stroke="#000000" d="M204.8301,-431.9482C223.7843,-423.4103 244.1164,-411.5981 258.966,-396 275.4557,-378.6792 285.8669,-353.4206 291.9195,-334.0677"/>
<polygon fill="#000000" stroke="#000000" points="295.3325,-334.8657 294.7706,-324.2858 288.6121,-332.907 295.3325,-334.8657"/>
</g>
<!-- Platform.Random -->
<g id="node5" class="node">
<title>Platform.Random</title>
<g id="a_node5"><a xlink:href="https://github.com/linksplatform/Random" xlink:title="Platform.Random">
<polygon fill="#ccd1ff" stroke="#ccd1ff" points="115.898,-396 .034,-396 .034,-360 115.898,-360 115.898,-396"/>
<text text-anchor="middle" x="57.966" y="-373.8" font-family="Times,serif" font-size="14.00" fill="#000000">Platform.Random</text>
</a>
</g>
</g>
<!-- Platform.Ranges&#45;&gt;Platform.Random -->
<g id="edge10" class="edge">
<title>Platform.Ranges-&gt;Platform.Random</title>
<path fill="none" stroke="#000000" d="M128.2458,-431.8314C116.5566,-422.8779 102.2972,-411.9558 89.6851,-402.2955"/>
<polygon fill="#000000" stroke="#000000" points="91.7457,-399.4651 81.6786,-396.1628 87.4891,-405.0222 91.7457,-399.4651"/>
</g>
<!-- Platform.Random&#45;&gt;Platform.Collections -->
<g id="edge4" class="edge">
<title>Platform.Random-&gt;Platform.Collections</title>
<path fill="none" stroke="#000000" d="M115.9982,-360.6626C149.863,-350.5453 192.826,-337.7099 228.6091,-327.0195"/>
<polygon fill="#000000" stroke="#000000" points="229.9182,-330.2813 238.4978,-324.0652 227.9144,-323.5742 229.9182,-330.2813"/>
</g>
<!-- Platform.Data.Doublets -->
<g id="node15" class="node">
<title>Platform.Data.Doublets</title>
<g id="a_node15"><a xlink:href="https://github.com/linksplatform/Data.Doublets" xlink:title="Platform.Data.Doublets">
<polygon fill="#4c5eff" stroke="#4c5eff" points="458.4296,-36 309.5024,-36 309.5024,0 458.4296,0 458.4296,-36"/>
<text text-anchor="middle" x="383.966" y="-13.8" font-family="Times,serif" font-size="14.00" fill="#000000">Platform.Data.Doublets</text>
</a>
</g>
</g>
<!-- Platform.Random&#45;&gt;Platform.Data.Doublets -->
<g id="edge17" class="edge">
<title>Platform.Random-&gt;Platform.Data.Doublets</title>
<path fill="none" stroke="#000000" d="M56.7228,-359.8247C54.9654,-332.5213 51.966,-279.2893 51.966,-234 51.966,-234 51.966,-234 51.966,-162 51.966,-121.1184 41.5255,-100.3648 70.966,-72 102.8121,-41.3175 217.6161,-27.8849 298.9272,-22.1311"/>
<polygon fill="#000000" stroke="#000000" points="299.428,-25.6052 309.1672,-21.4343 298.9526,-18.6214 299.428,-25.6052"/>
</g>
<!-- Platform.IO -->
<g id="node7" class="node">
<title>Platform.IO</title>
<g id="a_node7"><a xlink:href="https://github.com/linksplatform/IO" xlink:title="Platform.IO">
<polygon fill="#ccd1ff" stroke="#ccd1ff" points="331.7238,-180 248.2082,-180 248.2082,-144 331.7238,-144 331.7238,-180"/>
<text text-anchor="middle" x="289.966" y="-157.8" font-family="Times,serif" font-size="14.00" fill="#000000">Platform.IO</text>
</a>
</g>
</g>
<!-- Platform.Threading&#45;&gt;Platform.IO -->
<g id="edge6" class="edge">
<title>Platform.Threading-&gt;Platform.IO</title>
<path fill="none" stroke="#000000" d="M301.1809,-215.8314C299.5766,-208.131 297.669,-198.9743 295.8861,-190.4166"/>
<polygon fill="#000000" stroke="#000000" points="299.2681,-189.4892 293.8021,-180.4133 292.4153,-190.9169 299.2681,-189.4892"/>
</g>
<!-- Platform.Data -->
<g id="node14" class="node">
<title>Platform.Data</title>
<g id="a_node14"><a xlink:href="https://github.com/linksplatform/Data" xlink:title="Platform.Data">
<polygon fill="#4c5eff" stroke="#4c5eff" points="444.3826,-180 349.5494,-180 349.5494,-144 444.3826,-144 444.3826,-180"/>
<text text-anchor="middle" x="396.966" y="-157.8" font-family="Times,serif" font-size="14.00" fill="#000000">Platform.Data</text>
</a>
</g>
</g>
<!-- Platform.Threading&#45;&gt;Platform.Data -->
<g id="edge14" class="edge">
<title>Platform.Threading-&gt;Platform.Data</title>
<path fill="none" stroke="#000000" d="M328.1815,-215.8314C339.513,-206.9632 353.3124,-196.1637 365.5687,-186.5718"/>
<polygon fill="#000000" stroke="#000000" points="368.04,-189.0822 373.7579,-180.1628 363.7258,-183.5697 368.04,-189.0822"/>
</g>
<!-- Platform.Memory -->
<g id="node13" class="node">
<title>Platform.Memory</title>
<g id="a_node13"><a xlink:href="https://github.com/linksplatform/Memory" xlink:title="Platform.Memory">
<polygon fill="#4c5eff" stroke="#4c5eff" points="399.167,-108 282.765,-108 282.765,-72 399.167,-72 399.167,-108"/>
<text text-anchor="middle" x="340.966" y="-85.8" font-family="Times,serif" font-size="14.00" fill="#000000">Platform.Memory</text>
</a>
</g>
</g>
<!-- Platform.IO&#45;&gt;Platform.Memory -->
<g id="edge13" class="edge">
<title>Platform.IO-&gt;Platform.Memory</title>
<path fill="none" stroke="#000000" d="M302.8355,-143.8314C308.6495,-135.6232 315.6356,-125.7606 322.0306,-116.7323"/>
<polygon fill="#000000" stroke="#000000" points="324.9991,-118.5966 327.9233,-108.4133 319.287,-114.5505 324.9991,-118.5966"/>
</g>
<!-- Platform.Converters -->
<g id="node8" class="node">
<title>Platform.Converters</title>
<g id="a_node8"><a xlink:href="https://github.com/linksplatform/Converters" xlink:title="Platform.Converters">
<polygon fill="#ccd1ff" stroke="#ccd1ff" points="214.8784,-324 85.0536,-324 85.0536,-288 214.8784,-288 214.8784,-324"/>
<text text-anchor="middle" x="149.966" y="-301.8" font-family="Times,serif" font-size="14.00" fill="#000000">Platform.Converters</text>
</a>
</g>
</g>
<!-- Platform.Numbers -->
<g id="node9" class="node">
<title>Platform.Numbers</title>
<g id="a_node9"><a xlink:href="https://github.com/linksplatform/Numbers" xlink:title="Platform.Numbers">
<polygon fill="#ccd1ff" stroke="#ccd1ff" points="223.7734,-252 104.1586,-252 104.1586,-216 223.7734,-216 223.7734,-252"/>
<text text-anchor="middle" x="163.966" y="-229.8" font-family="Times,serif" font-size="14.00" fill="#000000">Platform.Numbers</text>
</a>
</g>
</g>
<!-- Platform.Converters&#45;&gt;Platform.Numbers -->
<g id="edge8" class="edge">
<title>Platform.Converters-&gt;Platform.Numbers</title>
<path fill="none" stroke="#000000" d="M153.4988,-287.8314C154.9961,-280.131 156.7765,-270.9743 158.4405,-262.4166"/>
<polygon fill="#000000" stroke="#000000" points="161.9125,-262.8975 160.3856,-252.4133 155.0412,-261.5614 161.9125,-262.8975"/>
</g>
<!-- Platform.Collections.Methods -->
<g id="node10" class="node">
<title>Platform.Collections.Methods</title>
<g id="a_node10"><a xlink:href="https://github.com/linksplatform/Collections.Methods" xlink:title="Platform.Collections.Methods">
<polygon fill="#ccd1ff" stroke="#ccd1ff" points="264.2236,-108 79.7084,-108 79.7084,-72 264.2236,-72 264.2236,-108"/>
<text text-anchor="middle" x="171.966" y="-85.8" font-family="Times,serif" font-size="14.00" fill="#000000">Platform.Collections.Methods</text>
</a>
</g>
</g>
<!-- Platform.Numbers&#45;&gt;Platform.Collections.Methods -->
<g id="edge9" class="edge">
<title>Platform.Numbers-&gt;Platform.Collections.Methods</title>
<path fill="none" stroke="#000000" d="M164.9792,-215.7623C166.3437,-191.201 168.7856,-147.2474 170.3908,-118.3541"/>
<polygon fill="#000000" stroke="#000000" points="173.9008,-118.2684 170.961,-108.0896 166.9116,-117.88 173.9008,-118.2684"/>
</g>
<!-- Platform.Numbers&#45;&gt;Platform.Data -->
<g id="edge15" class="edge">
<title>Platform.Numbers-&gt;Platform.Data</title>
<path fill="none" stroke="#000000" d="M223.8427,-215.9743C255.818,-206.292 296.077,-194.0124 339.6737,-180.3876"/>
<polygon fill="#000000" stroke="#000000" points="340.8247,-183.6948 349.3224,-177.3672 338.7335,-177.0145 340.8247,-183.6948"/>
</g>
<!-- Platform.Collections.Methods&#45;&gt;Platform.Data.Doublets -->
<g id="edge19" class="edge">
<title>Platform.Collections.Methods-&gt;Platform.Data.Doublets</title>
<path fill="none" stroke="#000000" d="M225.1889,-71.9243C254.2966,-62.0387 290.5326,-49.7321 321.0354,-39.3726"/>
<polygon fill="#000000" stroke="#000000" points="322.3779,-42.6131 330.7212,-36.0831 320.1268,-35.9849 322.3779,-42.6131"/>
</g>
<!-- Platform.Timestamps&#45;&gt;Platform.Data.Doublets -->
<g id="edge18" class="edge">
<title>Platform.Timestamps-&gt;Platform.Data.Doublets</title>
<path fill="none" stroke="#000000" d="M522.5404,-431.6392C503.3909,-405.37 471.966,-354.8235 471.966,-306 471.966,-306 471.966,-306 471.966,-162 471.966,-115.0672 437.5104,-70.4873 411.7191,-43.6918"/>
<polygon fill="#000000" stroke="#000000" points="413.9042,-40.9247 404.3762,-36.2913 408.9351,-45.8551 413.9042,-40.9247"/>
</g>
<!-- Platform.Setters&#45;&gt;Platform.Data -->
<g id="edge16" class="edge">
<title>Platform.Setters-&gt;Platform.Data</title>
<path fill="none" stroke="#000000" d="M396.966,-431.9843C396.966,-383.2939 396.966,-248.7961 396.966,-190.0573"/>
<polygon fill="#000000" stroke="#000000" points="400.4661,-190.0088 396.966,-180.0089 393.4661,-190.0089 400.4661,-190.0088"/>
</g>
<!-- Platform.Memory&#45;&gt;Platform.Data.Doublets -->
<g id="edge20" class="edge">
<title>Platform.Memory-&gt;Platform.Data.Doublets</title>
<path fill="none" stroke="#000000" d="M351.8167,-71.8314C356.6683,-63.7079 362.4877,-53.9637 367.834,-45.0118"/>
<polygon fill="#000000" stroke="#000000" points="370.8466,-46.7933 372.9692,-36.4133 364.8368,-43.2041 370.8466,-46.7933"/>
</g>
<!-- Platform.Data&#45;&gt;Platform.Data.Doublets -->
<g id="edge21" class="edge">
<title>Platform.Data-&gt;Platform.Data.Doublets</title>
<path fill="none" stroke="#000000" d="M402.6522,-143.9173C407.5904,-125.6343 413.1944,-96.6374 407.966,-72 406.0679,-63.0557 402.5825,-53.7941 398.8451,-45.5203"/>
<polygon fill="#000000" stroke="#000000" points="401.9155,-43.8294 394.4219,-36.3395 395.6092,-46.8676 401.9155,-43.8294"/>
</g>
<!-- Platform.Incrementers -->
<g id="node16" class="node">
<title>Platform.Incrementers</title>
<g id="a_node16"><a xlink:href="https://github.com/linksplatform/Incrementers" xlink:title="Platform.Incrementers">
<polygon fill="#ccd1ff" stroke="#ccd1ff" points="641.5229,-108 500.4091,-108 500.4091,-72 641.5229,-72 641.5229,-108"/>
<text text-anchor="middle" x="570.966" y="-85.8" font-family="Times,serif" font-size="14.00" fill="#000000">Platform.Incrementers</text>
</a>
</g>
</g>
<!-- Platform.Incrementers&#45;&gt;Platform.Data.Doublets -->
<g id="edge22" class="edge">
<title>Platform.Incrementers-&gt;Platform.Data.Doublets</title>
<path fill="none" stroke="#000000" d="M523.778,-71.8314C498.4344,-62.0734 467.0175,-49.977 440.3886,-39.7242"/>
<polygon fill="#000000" stroke="#000000" points="441.4045,-36.3649 430.8147,-36.038 438.8892,-42.8974 441.4045,-36.3649"/>
</g>
<!-- List of deleted:  -->
<g id="node17" class="node">
<title>List of deleted: </title>
<polygon fill="#ccd1ff" stroke="#ccd1ff" points="839.2209,-612 734.7111,-612 734.7111,-576 839.2209,-576 839.2209,-612"/>
<text text-anchor="middle" x="786.966" y="-589.8" font-family="Times,serif" font-size="14.00" fill="#000000">List of deleted: </text>
</g>
<!-- Platform.Disposables -->
<g id="node18" class="node">
<title>Platform.Disposables</title>
<g id="a_node18"><a xlink:href="https://github.com/linksplatform/Disposables" xlink:title="Platform.Disposables">
<polygon fill="#ccd1ff" stroke="#ccd1ff" points="639.1071,-540 502.8249,-540 502.8249,-504 639.1071,-504 639.1071,-540"/>
<text text-anchor="middle" x="570.966" y="-517.8" font-family="Times,serif" font-size="14.00" fill="#000000">Platform.Disposables</text>
</a>
</g>
</g>
<!-- List of deleted: &#45;&gt;Platform.Disposables -->
<g id="edge23" class="edge">
<title>List of deleted: -&gt;Platform.Disposables</title>
<path fill="none" stroke="#000000" d="M734.6784,-576.5708C704.5805,-566.5382 666.5332,-553.8557 634.6939,-543.2426"/>
<polygon fill="#000000" stroke="#000000" points="635.6214,-539.8625 625.0278,-540.0206 633.4078,-546.5033 635.6214,-539.8625"/>
</g>
<!-- Platform.Reflection -->
<g id="node19" class="node">
<title>Platform.Reflection</title>
<g id="a_node19"><a xlink:href="https://github.com/linksplatform/Reflection" xlink:title="Platform.Reflection">
<polygon fill="#ccd1ff" stroke="#ccd1ff" points="783.2692,-540 656.6628,-540 656.6628,-504 783.2692,-504 783.2692,-540"/>
<text text-anchor="middle" x="719.966" y="-517.8" font-family="Times,serif" font-size="14.00" fill="#000000">Platform.Reflection</text>
</a>
</g>
</g>
<!-- List of deleted: &#45;&gt;Platform.Reflection -->
<g id="edge24" class="edge">
<title>List of deleted: -&gt;Platform.Reflection</title>
<path fill="none" stroke="#000000" d="M770.0591,-575.8314C762.1847,-567.3694 752.674,-557.1489 744.0647,-547.8971"/>
<polygon fill="#000000" stroke="#000000" points="746.4752,-545.3497 737.1006,-540.4133 741.3507,-550.1183 746.4752,-545.3497"/>
</g>
<!-- Platform.Unsafe -->
<g id="node20" class="node">
<title>Platform.Unsafe</title>
<g id="a_node20"><a xlink:href="https://github.com/linksplatform/Unsafe" xlink:title="Platform.Unsafe">
<polygon fill="#ccd1ff" stroke="#ccd1ff" points="909.0973,-540 800.8347,-540 800.8347,-504 909.0973,-504 909.0973,-540"/>
<text text-anchor="middle" x="854.966" y="-517.8" font-family="Times,serif" font-size="14.00" fill="#000000">Platform.Unsafe</text>
</a>
</g>
</g>
<!-- List of deleted: &#45;&gt;Platform.Unsafe -->
<g id="edge25" class="edge">
<title>List of deleted: -&gt;Platform.Unsafe</title>
<path fill="none" stroke="#000000" d="M804.1253,-575.8314C812.1171,-567.3694 821.7698,-557.1489 830.5076,-547.8971"/>
<polygon fill="#000000" stroke="#000000" points="833.254,-550.0866 837.5757,-540.4133 828.1649,-545.2802 833.254,-550.0866"/>
</g>
<!-- Platform.Singletons -->
<g id="node21" class="node">
<title>Platform.Singletons</title>
<g id="a_node21"><a xlink:href="https://github.com/linksplatform/Singletons" xlink:title="Platform.Singletons">
<polygon fill="#ccd1ff" stroke="#ccd1ff" points="1054.5704,-540 927.3616,-540 927.3616,-504 1054.5704,-504 1054.5704,-540"/>
<text text-anchor="middle" x="990.966" y="-517.8" font-family="Times,serif" font-size="14.00" fill="#000000">Platform.Singletons</text>
</a>
</g>
</g>
<!-- List of deleted: &#45;&gt;Platform.Singletons -->
<g id="edge26" class="edge">
<title>List of deleted: -&gt;Platform.Singletons</title>
<path fill="none" stroke="#000000" d="M838.1805,-575.9243C866.0685,-566.0815 900.7566,-553.8386 930.0287,-543.5073"/>
<polygon fill="#000000" stroke="#000000" points="931.4654,-546.7119 939.7304,-540.0831 929.1356,-540.1109 931.4654,-546.7119"/>
</g>
<!-- Platform.Hashing -->
<g id="node22" class="node">
<title>Platform.Hashing</title>
<polygon fill="#ccd1ff" stroke="#ccd1ff" points="139.6127,-540 24.3193,-540 24.3193,-504 139.6127,-504 139.6127,-540"/>
<text text-anchor="middle" x="81.966" y="-517.8" font-family="Times,serif" font-size="14.00" fill="#000000">Platform.Hashing</text>
</g>
<!-- Platform.Hashing&#45;&gt;Platform.Ranges -->
<g id="edge27" class="edge">
<title>Platform.Hashing-&gt;Platform.Ranges</title>
<path fill="none" stroke="#000000" d="M99.63,-503.8314C107.9392,-495.2848 117.9924,-484.9443 127.0578,-475.6198"/>
<polygon fill="#000000" stroke="#000000" points="129.6029,-478.023 134.0642,-468.4133 124.5839,-473.1435 129.6029,-478.023"/>
</g>
<!-- Platform.Equality -->
<g id="node23" class="node">
<title>Platform.Equality</title>
<polygon fill="#ccd1ff" stroke="#ccd1ff" points="249.8952,-396 134.0368,-396 134.0368,-360 249.8952,-360 249.8952,-396"/>
<text text-anchor="middle" x="191.966" y="-373.8" font-family="Times,serif" font-size="14.00" fill="#000000">Platform.Equality</text>
</g>
<!-- Platform.Equality&#45;&gt;Platform.Collections -->
<g id="edge28" class="edge">
<title>Platform.Equality-&gt;Platform.Collections</title>
<path fill="none" stroke="#000000" d="M218.9666,-359.8314C232.3991,-350.7927 248.8133,-339.7476 263.2699,-330.0198"/>
<polygon fill="#000000" stroke="#000000" points="265.6314,-332.6494 271.974,-324.1628 261.7235,-326.8418 265.6314,-332.6494"/>
</g>
</g>
</svg>