<?xml version="1.0" encoding="UTF-8" standalone="no"?><!DOCTYPE svg PUBLIC "-//W3C//DTD SVG 1.1//EN" "http://www.w3.org/Graphics/SVG/1.1/DTD/svg11.dtd"><!-- Generated by graphviz version 2.40.1 (20161225.0304)
 --><!-- Title: PlatformDataDoubletsDependencies Pages: 1 --><svg xmlns="http://www.w3.org/2000/svg" xmlns:xlink="http://www.w3.org/1999/xlink" width="1117pt" height="476pt" viewBox="0.00 0.00 1117.38 476.00">
<g id="graph0" class="graph" transform="scale(1 1) rotate(0) translate(4 472)">
<title>PlatformDataDoubletsDependencies</title>
<polygon fill="#ffffff" stroke="transparent" points="-4,4 -4,-472 1113.3752,-472 1113.3752,4 -4,4"/>
<!-- Platform.Delegates -->
<g id="node1" class="node">
<title>Platform.Delegates</title>
<g id="a_node1"><a xlink:href="https://github.com/linksplatform/Delegates" xlink:title="Platform.Delegates">
<polygon fill="#ccd1ff" stroke="#ccd1ff" points="260.2547,-468 136.8919,-468 136.8919,-432 260.2547,-432 260.2547,-468"/>
<text text-anchor="middle" x="198.5733" y="-445.8" font-family="Times,serif" font-size="14.00" fill="#000000">Platform.Delegates</text>
</a>
</g>
</g>
<!-- Platform.Exceptions -->
<g id="node2" class="node">
<title>Platform.Exceptions</title>
<g id="a_node2"><a xlink:href="https://github.com/linksplatform/Exceptions" xlink:title="Platform.Exceptions">
<polygon fill="#ccd1ff" stroke="#ccd1ff" points="263.7714,-396 133.3752,-396 133.3752,-360 263.7714,-360 263.7714,-396"/>
<text text-anchor="middle" x="198.5733" y="-373.8" font-family="Times,serif" font-size="14.00" fill="#000000">Platform.Exceptions</text>
</a>
</g>
</g>
<!-- Platform.Delegates&#45;&gt;Platform.Exceptions -->
<g id="edge1" class="edge">
<title>Platform.Delegates-&gt;Platform.Exceptions</title>
<path fill="none" stroke="#000000" d="M198.5733,-431.8314C198.5733,-424.131 198.5733,-414.9743 198.5733,-406.4166"/>
<polygon fill="#000000" stroke="#000000" points="202.0734,-406.4132 198.5733,-396.4133 195.0734,-406.4133 202.0734,-406.4132"/>
</g>
<!-- Platform.Collections -->
<g id="node4" class="node">
<title>Platform.Collections</title>
<g id="a_node4"><a xlink:href="https://github.com/linksplatform/Collections" xlink:title="Platform.Collections">
<polygon fill="#ccd1ff" stroke="#ccd1ff" points="404.8366,-324 272.31,-324 272.31,-288 404.8366,-288 404.8366,-324"/>
<text text-anchor="middle" x="338.5733" y="-301.8" font-family="Times,serif" font-size="14.00" fill="#000000">Platform.Collections</text>
</a>
</g>
</g>
<!-- Platform.Exceptions&#45;&gt;Platform.Collections -->
<g id="edge6" class="edge">
<title>Platform.Exceptions-&gt;Platform.Collections</title>
<path fill="none" stroke="#000000" d="M233.9012,-359.8314C252.2226,-350.4089 274.7835,-338.8062 294.2628,-328.7883"/>
<polygon fill="#000000" stroke="#000000" points="295.9645,-331.8489 303.2567,-324.1628 292.7631,-325.6239 295.9645,-331.8489"/>
</g>
<!-- Platform.Ranges -->
<g id="node5" class="node">
<title>Platform.Ranges</title>
<g id="a_node5"><a xlink:href="https://github.com/linksplatform/Ranges" xlink:title="Platform.Ranges">
<polygon fill="#ccd1ff" stroke="#ccd1ff" points="119.2743,-252 9.8723,-252 9.8723,-216 119.2743,-216 119.2743,-252"/>
<text text-anchor="middle" x="64.5733" y="-229.8" font-family="Times,serif" font-size="14.00" fill="#000000">Platform.Ranges</text>
</a>
</g>
</g>
<!-- Platform.Exceptions&#45;&gt;Platform.Ranges -->
<g id="edge3" class="edge">
<title>Platform.Exceptions-&gt;Platform.Ranges</title>
<path fill="none" stroke="#000000" d="M162.6853,-359.7648C146.9279,-350.5453 129.0002,-338.2755 115.5733,-324 98.3895,-305.7301 84.7765,-280.6094 75.9522,-261.5497"/>
<polygon fill="#000000" stroke="#000000" points="79.0527,-259.9087 71.7807,-252.2036 72.6605,-262.7618 79.0527,-259.9087"/>
</g>
<!-- Platform.Interfaces -->
<g id="node3" class="node">
<title>Platform.Interfaces</title>
<g id="a_node3"><a xlink:href="https://github.com/linksplatform/Interfaces" xlink:title="Platform.Interfaces">
<polygon fill="#ccd1ff" stroke="#ccd1ff" points="539.2394,-396 415.9072,-396 415.9072,-360 539.2394,-360 539.2394,-396"/>
<text text-anchor="middle" x="477.5733" y="-373.8" font-family="Times,serif" font-size="14.00" fill="#000000">Platform.Interfaces</text>
</a>
</g>
</g>
<!-- Platform.Interfaces&#45;&gt;Platform.Collections -->
<g id="edge2" class="edge">
<title>Platform.Interfaces-&gt;Platform.Collections</title>
<path fill="none" stroke="#000000" d="M442.4977,-359.8314C424.3072,-350.4089 401.9075,-338.8062 382.5673,-328.7883"/>
<polygon fill="#000000" stroke="#000000" points="384.127,-325.6545 373.6376,-324.1628 380.9073,-331.8701 384.127,-325.6545"/>
</g>
<!-- Platform.Timestamps -->
<g id="node13" class="node">
<title>Platform.Timestamps</title>
<g id="a_node13"><a xlink:href="https://github.com/linksplatform/Timestamps" xlink:title="Platform.Timestamps">
<polygon fill="#ccd1ff" stroke="#ccd1ff" points="628.9969,-324 492.1497,-324 492.1497,-288 628.9969,-288 628.9969,-324"/>
<text text-anchor="middle" x="560.5733" y="-301.8" font-family="Times,serif" font-size="14.00" fill="#000000">Platform.Timestamps</text>
</a>
</g>
</g>
<!-- Platform.Interfaces&#45;&gt;Platform.Timestamps -->
<g id="edge12" class="edge">
<title>Platform.Interfaces-&gt;Platform.Timestamps</title>
<path fill="none" stroke="#000000" d="M498.5177,-359.8314C508.6424,-351.0485 520.951,-340.3712 531.9281,-330.8489"/>
<polygon fill="#000000" stroke="#000000" points="534.3752,-333.3595 539.6356,-324.1628 529.7882,-328.0718 534.3752,-333.3595"/>
</g>
<!-- Platform.Setters -->
<g id="node14" class="node">
<title>Platform.Setters</title>
<g id="a_node14"><a xlink:href="https://github.com/linksplatform/Setters" xlink:title="Platform.Setters">
<polygon fill="#ccd1ff" stroke="#ccd1ff" points="525.6625,-252 419.4841,-252 419.4841,-216 525.6625,-216 525.6625,-252"/>
<text text-anchor="middle" x="472.5733" y="-229.8" font-family="Times,serif" font-size="14.00" fill="#000000">Platform.Setters</text>
</a>
</g>
</g>
<!-- Platform.Interfaces&#45;&gt;Platform.Setters -->
<g id="edge13" class="edge">
<title>Platform.Interfaces-&gt;Platform.Setters</title>
<path fill="none" stroke="#000000" d="M476.94,-359.7623C476.0872,-335.201 474.5611,-291.2474 473.5578,-262.3541"/>
<polygon fill="#000000" stroke="#000000" points="477.0464,-261.9621 473.2014,-252.0896 470.0506,-262.2051 477.0464,-261.9621"/>
</g>
<!-- Platform.Threading -->
<g id="node8" class="node">
<title>Platform.Threading</title>
<g id="a_node8"><a xlink:href="https://github.com/linksplatform/Threading" xlink:title="Platform.Threading">
<polygon fill="#ccd1ff" stroke="#ccd1ff" points="401.5965,-252 275.5501,-252 275.5501,-216 401.5965,-216 401.5965,-252"/>
<text text-anchor="middle" x="338.5733" y="-229.8" font-family="Times,serif" font-size="14.00" fill="#000000">Platform.Threading</text>
</a>
</g>
</g>
<!-- Platform.Collections&#45;&gt;Platform.Threading -->
<g id="edge8" class="edge">
<title>Platform.Collections-&gt;Platform.Threading</title>
<path fill="none" stroke="#000000" d="M338.5733,-287.8314C338.5733,-280.131 338.5733,-270.9743 338.5733,-262.4166"/>
<polygon fill="#000000" stroke="#000000" points="342.0734,-262.4132 338.5733,-252.4133 335.0734,-262.4133 342.0734,-262.4132"/>
</g>
<!-- Platform.Random -->
<g id="node12" class="node">
<title>Platform.Random</title>
<g id="a_node12"><a xlink:href="https://github.com/linksplatform/Random" xlink:title="Platform.Random">
<polygon fill="#ccd1ff" stroke="#ccd1ff" points="127.5053,-180 11.6413,-180 11.6413,-144 127.5053,-144 127.5053,-180"/>
<text text-anchor="middle" x="69.5733" y="-157.8" font-family="Times,serif" font-size="14.00" fill="#000000">Platform.Random</text>
</a>
</g>
</g>
<!-- Platform.Ranges&#45;&gt;Platform.Random -->
<g id="edge11" class="edge">
<title>Platform.Ranges-&gt;Platform.Random</title>
<path fill="none" stroke="#000000" d="M65.835,-215.8314C66.3698,-208.131 67.0056,-198.9743 67.5999,-190.4166"/>
<polygon fill="#000000" stroke="#000000" points="71.0933,-190.6317 68.2946,-180.4133 64.1101,-190.1467 71.0933,-190.6317"/>
</g>
<!-- Platform.Converters -->
<g id="node6" class="node">
<title>Platform.Converters</title>
<g id="a_node6"><a xlink:href="https://github.com/linksplatform/Converters" xlink:title="Platform.Converters">
<polygon fill="#ccd1ff" stroke="#ccd1ff" points="254.4857,-324 124.6609,-324 124.6609,-288 254.4857,-288 254.4857,-324"/>
<text text-anchor="middle" x="189.5733" y="-301.8" font-family="Times,serif" font-size="14.00" fill="#000000">Platform.Converters</text>
</a>
</g>
</g>
<!-- Platform.Converters&#45;&gt;Platform.Ranges -->
<g id="edge4" class="edge">
<title>Platform.Converters-&gt;Platform.Ranges</title>
<path fill="none" stroke="#000000" d="M158.0305,-287.8314C141.8942,-278.5368 122.0747,-267.1208 104.8461,-257.1971"/>
<polygon fill="#000000" stroke="#000000" points="106.5183,-254.1212 96.106,-252.1628 103.0244,-260.187 106.5183,-254.1212"/>
</g>
<!-- Platform.Numbers -->
<g id="node10" class="node">
<title>Platform.Numbers</title>
<g id="a_node10"><a xlink:href="https://github.com/linksplatform/Numbers" xlink:title="Platform.Numbers">
<polygon fill="#ccd1ff" stroke="#ccd1ff" points="257.3807,-252 137.7659,-252 137.7659,-216 257.3807,-216 257.3807,-252"/>
<text text-anchor="middle" x="197.5733" y="-229.8" font-family="Times,serif" font-size="14.00" fill="#000000">Platform.Numbers</text>
</a>
</g>
</g>
<!-- Platform.Converters&#45;&gt;Platform.Numbers -->
<g id="edge9" class="edge">
<title>Platform.Converters-&gt;Platform.Numbers</title>
<path fill="none" stroke="#000000" d="M191.592,-287.8314C192.4476,-280.131 193.465,-270.9743 194.4159,-262.4166"/>
<polygon fill="#000000" stroke="#000000" points="197.9016,-262.7386 195.5274,-252.4133 190.9444,-261.9656 197.9016,-262.7386"/>
</g>
<!-- Platform.Hashing -->
<g id="node7" class="node">
<title>Platform.Hashing</title>
<g id="a_node7"><a xlink:href="https://github.com/linksplatform/Hashing" xlink:title="Platform.Hashing">
<polygon fill="#ccd1ff" stroke="#ccd1ff" points="115.22,-396 -.0734,-396 -.0734,-360 115.22,-360 115.22,-396"/>
<text text-anchor="middle" x="57.5733" y="-373.8" font-family="Times,serif" font-size="14.00" fill="#000000">Platform.Hashing</text>
</a>
</g>
</g>
<!-- Platform.Hashing&#45;&gt;Platform.Collections -->
<g id="edge28" class="edge">
<title>Platform.Hashing-&gt;Platform.Collections</title>
<path fill="none" stroke="#000000" d="M115.302,-362.4308C118.4369,-361.6041 121.5429,-360.7894 124.5733,-360 170.1332,-348.1325 221.2564,-335.2174 262.1074,-324.9941"/>
<polygon fill="#000000" stroke="#000000" points="263.1414,-328.3434 271.9938,-322.5223 261.4434,-321.5524 263.1414,-328.3434"/>
</g>
<!-- Platform.Hashing&#45;&gt;Platform.Ranges -->
<g id="edge5" class="edge">
<title>Platform.Hashing-&gt;Platform.Ranges</title>
<path fill="none" stroke="#000000" d="M58.4599,-359.7623C59.6538,-335.201 61.7904,-291.2474 63.195,-262.3541"/>
<polygon fill="#000000" stroke="#000000" points="66.7042,-262.2478 63.6939,-252.0896 59.7124,-261.9079 66.7042,-262.2478"/>
</g>
<!-- Platform.IO -->
<g id="node9" class="node">
<title>Platform.IO</title>
<g id="a_node9"><a xlink:href="https://github.com/linksplatform/IO" xlink:title="Platform.IO">
<polygon fill="#ccd1ff" stroke="#ccd1ff" points="381.3311,-180 297.8155,-180 297.8155,-144 381.3311,-144 381.3311,-180"/>
<text text-anchor="middle" x="339.5733" y="-157.8" font-family="Times,serif" font-size="14.00" fill="#000000">Platform.IO</text>
</a>
</g>
</g>
<!-- Platform.Threading&#45;&gt;Platform.IO -->
<g id="edge7" class="edge">
<title>Platform.Threading-&gt;Platform.IO</title>
<path fill="none" stroke="#000000" d="M338.8256,-215.8314C338.9326,-208.131 339.0598,-198.9743 339.1786,-190.4166"/>
<polygon fill="#000000" stroke="#000000" points="342.6782,-190.4609 339.3176,-180.4133 335.6789,-190.3637 342.6782,-190.4609"/>
</g>
<!-- Platform.Data -->
<g id="node16" class="node">
<title>Platform.Data</title>
<g id="a_node16"><a xlink:href="https://github.com/linksplatform/Data" xlink:title="Platform.Data">
<polygon fill="#4c5eff" stroke="#4c5eff" points="494.9899,-180 400.1567,-180 400.1567,-144 494.9899,-144 494.9899,-180"/>
<text text-anchor="middle" x="447.5733" y="-157.8" font-family="Times,serif" font-size="14.00" fill="#000000">Platform.Data</text>
</a>
</g>
</g>
<!-- Platform.Threading&#45;&gt;Platform.Data -->
<g id="edge15" class="edge">
<title>Platform.Threading-&gt;Platform.Data</title>
<path fill="none" stroke="#000000" d="M366.0786,-215.8314C379.8913,-206.7074 396.7989,-195.539 411.6262,-185.7449"/>
<polygon fill="#000000" stroke="#000000" points="413.6619,-188.5949 420.0768,-180.1628 409.8037,-182.7541 413.6619,-188.5949"/>
</g>
<!-- Platform.Memory -->
<g id="node15" class="node">
<title>Platform.Memory</title>
<g id="a_node15"><a xlink:href="https://github.com/linksplatform/Memory" xlink:title="Platform.Memory">
<polygon fill="#4c5eff" stroke="#4c5eff" points="421.7743,-108 305.3723,-108 305.3723,-72 421.7743,-72 421.7743,-108"/>
<text text-anchor="middle" x="363.5733" y="-85.8" font-family="Times,serif" font-size="14.00" fill="#000000">Platform.Memory</text>
</a>
</g>
</g>
<!-- Platform.IO&#45;&gt;Platform.Memory -->
<g id="edge14" class="edge">
<title>Platform.IO-&gt;Platform.Memory</title>
<path fill="none" stroke="#000000" d="M345.6295,-143.8314C348.2245,-136.0463 351.3157,-126.7729 354.1951,-118.1347"/>
<polygon fill="#000000" stroke="#000000" points="357.5936,-119.0069 357.4355,-108.4133 350.9528,-116.7933 357.5936,-119.0069"/>
</g>
<!-- Platform.Collections.Methods -->
<g id="node11" class="node">
<title>Platform.Collections.Methods</title>
<g id="a_node11"><a xlink:href="https://github.com/linksplatform/Collections.Methods" xlink:title="Platform.Collections.Methods">
<polygon fill="#ccd1ff" stroke="#ccd1ff" points="286.8309,-108 102.3157,-108 102.3157,-72 286.8309,-72 286.8309,-108"/>
<text text-anchor="middle" x="194.5733" y="-85.8" font-family="Times,serif" font-size="14.00" fill="#000000">Platform.Collections.Methods</text>
</a>
</g>
</g>
<!-- Platform.Numbers&#45;&gt;Platform.Collections.Methods -->
<g id="edge10" class="edge">
<title>Platform.Numbers-&gt;Platform.Collections.Methods</title>
<path fill="none" stroke="#000000" d="M197.1933,-215.7623C196.6817,-191.201 195.766,-147.2474 195.164,-118.3541"/>
<polygon fill="#000000" stroke="#000000" points="198.6578,-118.0145 194.9502,-108.0896 191.6593,-118.1604 198.6578,-118.0145"/>
</g>
<!-- Platform.Numbers&#45;&gt;Platform.Data -->
<g id="edge16" class="edge">
<title>Platform.Numbers-&gt;Platform.Data</title>
<path fill="none" stroke="#000000" d="M257.7058,-217.7255C293.5505,-207.8967 340.1677,-194.893 390.2908,-180.0395"/>
<polygon fill="#000000" stroke="#000000" points="391.4364,-183.3504 400.0237,-177.1449 389.4409,-176.6408 391.4364,-183.3504"/>
</g>
<!-- Platform.Data.Doublets -->
<g id="node17" class="node">
<title>Platform.Data.Doublets</title>
<g id="a_node17"><a xlink:href="https://github.com/linksplatform/Data.Doublets" xlink:title="Platform.Data.Doublets">
<polygon fill="#4c5eff" stroke="#4c5eff" points="481.0369,-36 332.1097,-36 332.1097,0 481.0369,0 481.0369,-36"/>
<text text-anchor="middle" x="406.5733" y="-13.8" font-family="Times,serif" font-size="14.00" fill="#000000">Platform.Data.Doublets</text>
</a>
</g>
</g>
<!-- Platform.Collections.Methods&#45;&gt;Platform.Data.Doublets -->
<g id="edge20" class="edge">
<title>Platform.Collections.Methods-&gt;Platform.Data.Doublets</title>
<path fill="none" stroke="#000000" d="M247.7962,-71.9243C276.9039,-62.0387 313.1399,-49.7321 343.6427,-39.3726"/>
<polygon fill="#000000" stroke="#000000" points="344.9852,-42.6131 353.3285,-36.0831 342.7341,-35.9849 344.9852,-42.6131"/>
</g>
<!-- Platform.Random&#45;&gt;Platform.Data.Doublets -->
<g id="edge18" class="edge">
<title>Platform.Random-&gt;Platform.Data.Doublets</title>
<path fill="none" stroke="#000000" d="M69.0229,-143.9046C69.4511,-123.3609 73.5206,-90.329 93.5733,-72 126.2144,-42.1647 240.8173,-28.5177 321.8672,-22.4856"/>
<polygon fill="#000000" stroke="#000000" points="322.3498,-25.9601 332.0735,-21.7528 321.8484,-18.9781 322.3498,-25.9601"/>
</g>
<!-- Platform.Timestamps&#45;&gt;Platform.Data.Doublets -->
<g id="edge19" class="edge">
<title>Platform.Timestamps-&gt;Platform.Data.Doublets</title>
<path fill="none" stroke="#000000" d="M556.0481,-287.8588C551.3098,-269.5302 543.347,-240.4986 534.5733,-216 522.8266,-183.2 521.0366,-174.1473 503.5733,-144 483.5236,-109.3877 474.0344,-103.6489 449.5733,-72 442.5756,-62.946 434.8159,-53.1336 427.8361,-44.3882"/>
<polygon fill="#000000" stroke="#000000" points="430.4152,-42.0094 421.4335,-36.3899 424.9504,-46.384 430.4152,-42.0094"/>
</g>
<!-- Platform.Setters&#45;&gt;Platform.Data -->
<g id="edge17" class="edge">
<title>Platform.Setters-&gt;Platform.Data</title>
<path fill="none" stroke="#000000" d="M466.2647,-215.8314C463.5616,-208.0463 460.3417,-198.7729 457.3423,-190.1347"/>
<polygon fill="#000000" stroke="#000000" points="460.5533,-188.7119 453.9668,-180.4133 453.9406,-191.0081 460.5533,-188.7119"/>
</g>
<!-- Platform.Memory&#45;&gt;Platform.Data.Doublets -->
<g id="edge21" class="edge">
<title>Platform.Memory-&gt;Platform.Data.Doublets</title>
<path fill="none" stroke="#000000" d="M374.424,-71.8314C379.2756,-63.7079 385.095,-53.9637 390.4413,-45.0118"/>
<polygon fill="#000000" stroke="#000000" points="393.4539,-46.7933 395.5765,-36.4133 387.4441,-43.2041 393.4539,-46.7933"/>
</g>
<!-- Platform.Data&#45;&gt;Platform.Data.Doublets -->
<g id="edge22" class="edge">
<title>Platform.Data-&gt;Platform.Data.Doublets</title>
<path fill="none" stroke="#000000" d="M445.3915,-143.7696C442.8977,-125.3717 438.1516,-96.2872 430.5733,-72 427.8058,-63.1307 423.9929,-53.7788 420.2205,-45.3956"/>
<polygon fill="#000000" stroke="#000000" points="423.2766,-43.6678 415.8758,-36.0864 416.9335,-46.6283 423.2766,-43.6678"/>
</g>
<!-- Platform.Incrementers -->
<g id="node18" class="node">
<title>Platform.Incrementers</title>
<g id="a_node18"><a xlink:href="https://github.com/linksplatform/Incrementers" xlink:title="Platform.Incrementers">
<polygon fill="#ccd1ff" stroke="#ccd1ff" points="723.1302,-108 582.0164,-108 582.0164,-72 723.1302,-72 723.1302,-108"/>
<text text-anchor="middle" x="652.5733" y="-85.8" font-family="Times,serif" font-size="14.00" fill="#000000">Platform.Incrementers</text>
</a>
</g>
</g>
<!-- Platform.Incrementers&#45;&gt;Platform.Data.Doublets -->
<g id="edge23" class="edge">
<title>Platform.Incrementers-&gt;Platform.Data.Doublets</title>
<path fill="none" stroke="#000000" d="M590.8146,-71.9243C556.6001,-61.9103 513.8977,-49.412 478.2209,-38.97"/>
<polygon fill="#000000" stroke="#000000" points="478.9379,-35.5331 468.3574,-36.0831 476.9716,-42.2513 478.9379,-35.5331"/>
</g>
<!-- Set of deleted:  -->
<g id="node19" class="node">
<title>Set of deleted: </title>
<polygon fill="#ccd1ff" stroke="#ccd1ff" points="891.938,-468 791.2086,-468 791.2086,-432 891.938,-432 891.938,-468"/>
<text text-anchor="middle" x="841.5733" y="-445.8" font-family="Times,serif" font-size="14.00" fill="#000000">Set of deleted: </text>
</g>
<!-- Platform.Disposables -->
<g id="node20" class="node">
<title>Platform.Disposables</title>
<g id="a_node20"><a xlink:href="https://github.com/linksplatform/Disposables" xlink:title="Platform.Disposables">
<polygon fill="#ff0000" stroke="#ff0000" points="693.7144,-396 557.4322,-396 557.4322,-360 693.7144,-360 693.7144,-396"/>
<text text-anchor="middle" x="625.5733" y="-373.8" font-family="Times,serif" font-size="14.00" fill="#000000">Platform.Disposables</text>
</a>
</g>
</g>
<!-- Set of deleted: &#45;&gt;Platform.Disposables -->
<g id="edge24" class="edge">
<title>Set of deleted: -&gt;Platform.Disposables</title>
<path fill="none" stroke="#000000" d="M791.2035,-433.2101C760.9265,-423.1177 722.1037,-410.1768 689.6558,-399.3608"/>
<polygon fill="#000000" stroke="#000000" points="690.4006,-395.9198 679.8069,-396.0779 688.187,-402.5606 690.4006,-395.9198"/>
</g>
<!-- Platform.Reflection -->
<g id="node21" class="node">
<title>Platform.Reflection</title>
<g id="a_node21"><a xlink:href="https://github.com/linksplatform/Reflection" xlink:title="Platform.Reflection">
<polygon fill="#ff0000" stroke="#ff0000" points="837.8765,-396 711.2701,-396 711.2701,-360 837.8765,-360 837.8765,-396"/>
<text text-anchor="middle" x="774.5733" y="-373.8" font-family="Times,serif" font-size="14.00" fill="#000000">Platform.Reflection</text>
</a>
</g>
</g>
<!-- Set of deleted: &#45;&gt;Platform.Reflection -->
<g id="edge25" class="edge">
<title>Set of deleted: -&gt;Platform.Reflection</title>
<path fill="none" stroke="#000000" d="M824.6664,-431.8314C816.792,-423.3694 807.2813,-413.1489 798.672,-403.8971"/>
<polygon fill="#000000" stroke="#000000" points="801.0825,-401.3497 791.7079,-396.4133 795.958,-406.1183 801.0825,-401.3497"/>
</g>
<!-- Platform.Unsafe -->
<g id="node22" class="node">
<title>Platform.Unsafe</title>
<g id="a_node22"><a xlink:href="https://github.com/linksplatform/Unsafe" xlink:title="Platform.Unsafe">
<polygon fill="#ff0000" stroke="#ff0000" points="963.7046,-396 855.442,-396 855.442,-360 963.7046,-360 963.7046,-396"/>
<text text-anchor="middle" x="909.5733" y="-373.8" font-family="Times,serif" font-size="14.00" fill="#000000">Platform.Unsafe</text>
</a>
</g>
</g>
<!-- Set of deleted: &#45;&gt;Platform.Unsafe -->
<g id="edge26" class="edge">
<title>Set of deleted: -&gt;Platform.Unsafe</title>
<path fill="none" stroke="#000000" d="M858.7326,-431.8314C866.7244,-423.3694 876.3771,-413.1489 885.1149,-403.8971"/>
<polygon fill="#000000" stroke="#000000" points="887.8613,-406.0866 892.183,-396.4133 882.7722,-401.2802 887.8613,-406.0866"/>
</g>
<!-- Platform.Singletons -->
<g id="node23" class="node">
<title>Platform.Singletons</title>
<g id="a_node23"><a xlink:href="https://github.com/linksplatform/Singletons" xlink:title="Platform.Singletons">
<polygon fill="#ff0000" stroke="#ff0000" points="1109.1777,-396 981.9689,-396 981.9689,-360 1109.1777,-360 1109.1777,-396"/>
<text text-anchor="middle" x="1045.5733" y="-373.8" font-family="Times,serif" font-size="14.00" fill="#000000">Platform.Singletons</text>
</a>
</g>
</g>
<!-- Set of deleted: &#45;&gt;Platform.Singletons -->
<g id="edge27" class="edge">
<title>Set of deleted: -&gt;Platform.Singletons</title>
<path fill="none" stroke="#000000" d="M892.0003,-432.2022C919.9857,-422.325 955.0001,-409.967 984.5251,-399.5464"/>
<polygon fill="#000000" stroke="#000000" points="986.0444,-402.7219 994.3095,-396.0931 983.7147,-396.1209 986.0444,-402.7219"/>
</g>
<!-- Platform.Equality -->
<g id="node24" class="node">
<title>Platform.Equality</title>
<g id="a_node24"><a xlink:href="https://github.com/linksplatform/Equality" xlink:title="Platform.Equality">
<polygon fill="#ccd1ff" stroke="#ccd1ff" points="397.5025,-396 281.6441,-396 281.6441,-360 397.5025,-360 397.5025,-396"/>
<text text-anchor="middle" x="339.5733" y="-373.8" font-family="Times,serif" font-size="14.00" fill="#000000">Platform.Equality</text>
</a>
</g>
</g>
<!-- Platform.Equality&#45;&gt;Platform.Collections -->
<g id="edge29" class="edge">
<title>Platform.Equality-&gt;Platform.Collections</title>
<path fill="none" stroke="#000000" d="M339.321,-359.8314C339.214,-352.131 339.0868,-342.9743 338.968,-334.4166"/>
<polygon fill="#000000" stroke="#000000" points="342.4677,-334.3637 338.829,-324.4133 335.4684,-334.4609 342.4677,-334.3637"/>
</g>
</g>
</svg>